<?xml version="1.0" encoding="utf-8"?>
<!-- Generator: Adobe Illustrator 22.0.1, SVG Export Plug-In . SVG Version: 6.00 Build 0)  -->
<svg version="1.1" id="Layer_1" xmlns="http://www.w3.org/2000/svg" xmlns:xlink="http://www.w3.org/1999/xlink" x="0px" y="0px"
	 viewBox="0 0 800 564.4" style="enable-background:new 0 0 800 564.4;" xml:space="preserve">
<style type="text/css">
	.st0{fill:#C8CFF4;}
	.st1{fill:none;}
	.st2{fill:#88CFFD;}
	.st3{fill:#7E8DE8;}
	.st4{fill:#DADEF7;}
	.st5{fill:#10AD9A;}
</style>
<title>Cover_Delivery conformation</title>
<path class="st0" d="M399.7,392.8c-3,0-6,0.2-9,0.4v62.7h18.5v-62.7C406.1,393,402.9,392.8,399.7,392.8z"/>
<g id="Layer_2_1_">
	<g id="Layer_1-2">
		<path class="st0" d="M271.1,366.9h-18.5v-34c0-19.9,16.2-36,36.1-36.1h84.6c9.7,0,17.5-7.9,17.5-17.5v-21.5h18.6v21.5
			c0,19.9-16.2,36.1-36.1,36.1h-84.6c-9.7,0-17.5,7.8-17.5,17.5V366.9z"/>
		<path class="st0" d="M547.4,366.9h-18.6v-34c0-9.7-7.9-17.5-17.5-17.5h-84.6c-19.9,0-36.1-16.2-36.1-36.1v-21.5h18.6v21.5
			c0,9.7,7.8,17.5,17.5,17.5h84.6c19.9,0,36,16.2,36.1,36.1V366.9z"/>
		<line class="st1" x1="400" y1="245.3" x2="400" y2="366.9"/>
		<rect x="390.7" y="245.3" class="st0" width="18.6" height="121.6"/>
		<line class="st1" x1="261.9" y1="363.5" x2="261.9" y2="485.2"/>
		<rect x="252.6" y="363.5" class="st0" width="18.6" height="121.6"/>
		<line class="st1" x1="538.2" y1="363.5" x2="538.2" y2="485.2"/>
		<rect x="528.9" y="363.5" class="st0" width="18.6" height="121.6"/>
		<line class="st1" x1="400" y1="73.4" x2="400" y2="234.7"/>
		<path class="st2" d="M409.3,147.4v-74h-18.5v74c3-0.1,6-0.4,9-0.4C402.9,147,406.1,147.3,409.3,147.4z"/>
		<path class="st0" d="M399.7,171.6c-3,0-6,0.2-9,0.4v62.7h18.5V172C406.1,171.8,402.9,171.6,399.7,171.6z"/>
		<path class="st3" d="M212.6,257.2c-24-0.1-43.4-19.6-43.4-43.6l-0.2-13.8c-0.1-51.5,30.8-98.1,78.3-118
			c97.6-41.1,207.7-41.1,305.3,0c47.5,19.9,78.4,66.4,78.3,117.9l-0.1,14.1c-0.1,23.9-19.5,43.3-43.5,43.4h0
			c-3.4,0-6.8-0.3-10.1-1.1l-70.2-17.7c-20.9-5.3-35.5-24.1-35.4-45.6l0-20.1c-23-8.8-47.4-13.3-72-13.3c-24.5,0-48.8,4.5-71.6,13.4
			l0.2,19.8c0.1,21.5-14.5,40.4-35.4,45.7L223.1,256C219.7,256.8,216.2,257.2,212.6,257.2L212.6,257.2z"/>
		<path class="st4" d="M371.4,212.3h57.2c6.8,0,12.4,5.5,12.4,12.4v41.2c0,6.8-5.5,12.4-12.4,12.4h-57.2c-6.8,0-12.4-5.5-12.4-12.4
			v-41.2C359,217.9,364.6,212.3,371.4,212.3z"/>
		<path class="st4" d="M233.3,334h57.2c6.8,0,12.4,5.5,12.4,12.4v41.2c0,6.8-5.5,12.4-12.4,12.4h-57.2c-6.8,0-12.4-5.5-12.4-12.4
			v-41.2C220.9,339.5,226.4,334,233.3,334z"/>
		<path class="st4" d="M233.3,447.6h57.2c6.8,0,12.4,5.5,12.4,12.4v41.2c0,6.8-5.5,12.4-12.4,12.4h-57.2c-6.8,0-12.4-5.5-12.4-12.4
			v-41.2C220.9,453.1,226.4,447.6,233.3,447.6z"/>
		<path class="st4" d="M371.4,334h57.2c6.8,0,12.4,5.5,12.4,12.4v41.2c0,6.8-5.5,12.4-12.4,12.4h-57.2c-6.8,0-12.4-5.5-12.4-12.4
			v-41.2C359,339.5,364.6,334,371.4,334z"/>
		<path class="st4" d="M512.1,334h57.2c6.8,0,12.4,5.5,12.4,12.4v41.2c0,6.8-5.5,12.4-12.4,12.4h-57.2c-6.8,0-12.4-5.5-12.4-12.4
			v-41.2C499.7,339.5,505.2,334,512.1,334z"/>
		<path class="st4" d="M512.1,447.6h57.2c6.8,0,12.4,5.5,12.4,12.4v41.2c0,6.8-5.5,12.4-12.4,12.4h-57.2c-6.8,0-12.4-5.5-12.4-12.4
			v-41.2C499.7,453.1,505.2,447.6,512.1,447.6z"/>
	</g>
</g>
<g>
	<path class="st5" d="M377.2,251.7c0,0.1-0.1,0.2-0.1,0.3c-0.1,0.1-0.1,0.1-0.2,0.2c-0.1,0-0.3,0.1-0.4,0.1c-0.2,0-0.4,0-0.7,0
		c-0.3,0-0.5,0-0.7,0c-0.2,0-0.3,0-0.4-0.1s-0.2-0.1-0.2-0.2c0-0.1-0.1-0.2-0.1-0.3l-1.6-6.5h0l-1.5,6.5c0,0.1-0.1,0.2-0.1,0.3
		c0,0.1-0.1,0.1-0.2,0.2c-0.1,0-0.2,0.1-0.4,0.1c-0.2,0-0.4,0-0.7,0c-0.3,0-0.5,0-0.7,0c-0.2,0-0.3,0-0.4-0.1s-0.2-0.1-0.2-0.2
		c0-0.1-0.1-0.2-0.1-0.3l-2.3-8.9c0-0.2-0.1-0.3-0.1-0.4s0-0.2,0.1-0.2c0.1-0.1,0.2-0.1,0.3-0.1c0.1,0,0.4,0,0.6,0
		c0.2,0,0.4,0,0.6,0c0.1,0,0.3,0,0.3,0.1s0.1,0.1,0.1,0.1c0,0.1,0,0.1,0.1,0.2l1.8,7.8h0l1.9-7.8c0-0.1,0-0.2,0.1-0.2
		c0-0.1,0.1-0.1,0.2-0.1c0.1,0,0.2-0.1,0.3-0.1c0.1,0,0.3,0,0.6,0c0.3,0,0.5,0,0.6,0c0.1,0,0.3,0,0.3,0.1c0.1,0,0.1,0.1,0.2,0.1
		c0,0.1,0.1,0.1,0.1,0.3l1.9,7.8h0l1.8-7.8c0-0.1,0-0.2,0.1-0.2s0.1-0.1,0.1-0.1c0.1,0,0.2-0.1,0.3-0.1c0.1,0,0.3,0,0.6,0
		c0.2,0,0.4,0,0.5,0c0.1,0,0.2,0,0.3,0.1c0.1,0.1,0.1,0.1,0.1,0.3s0,0.3-0.1,0.5L377.2,251.7z"/>
	<path class="st5" d="M387.2,251.4c0,0.2,0,0.3,0,0.4s0,0.2-0.1,0.2c0,0.1-0.1,0.1-0.1,0.1s-0.1,0-0.1,0h-5.1
		c-0.2,0-0.3-0.1-0.4-0.2c-0.1-0.1-0.2-0.3-0.2-0.5v-8.9c0-0.2,0.1-0.4,0.2-0.5s0.3-0.2,0.4-0.2h5.1c0,0,0.1,0,0.1,0
		c0,0,0.1,0.1,0.1,0.1c0,0.1,0,0.2,0.1,0.3c0,0.1,0,0.2,0,0.4c0,0.1,0,0.3,0,0.4c0,0.1,0,0.2-0.1,0.2c0,0.1-0.1,0.1-0.1,0.1
		c0,0-0.1,0-0.1,0h-3.7v2.5h3.1c0,0,0.1,0,0.1,0c0,0,0.1,0.1,0.1,0.1s0,0.1,0.1,0.2c0,0.1,0,0.2,0,0.4c0,0.2,0,0.3,0,0.4
		s0,0.2-0.1,0.2s-0.1,0.1-0.1,0.1c0,0-0.1,0-0.1,0h-3.1v2.9h3.7c0,0,0.1,0,0.1,0s0.1,0.1,0.1,0.1c0,0.1,0,0.1,0.1,0.2
		S387.2,251.2,387.2,251.4z"/>
	<path class="st5" d="M394.6,251.3c0,0.2,0,0.3,0,0.4s0,0.2-0.1,0.3c0,0.1-0.1,0.1-0.1,0.2s-0.1,0-0.1,0h-4.7
		c-0.2,0-0.3-0.1-0.4-0.2c-0.1-0.1-0.2-0.3-0.2-0.5v-9.3c0-0.1,0-0.1,0.1-0.1c0,0,0.1-0.1,0.2-0.1s0.2,0,0.3-0.1c0.1,0,0.3,0,0.5,0
		c0.2,0,0.4,0,0.5,0c0.1,0,0.2,0,0.3,0.1c0.1,0,0.1,0.1,0.2,0.1c0,0,0.1,0.1,0.1,0.1v8.2h3.2c0.1,0,0.1,0,0.1,0s0.1,0.1,0.1,0.1
		c0,0.1,0,0.2,0.1,0.3C394.6,251,394.6,251.2,394.6,251.3z"/>
	<path class="st5" d="M402.7,250.7c0,0.1,0,0.2,0,0.3s0,0.2,0,0.2s0,0.1-0.1,0.2c0,0-0.1,0.1-0.1,0.2s-0.2,0.1-0.3,0.2
		c-0.2,0.1-0.4,0.2-0.6,0.3c-0.2,0.1-0.5,0.2-0.8,0.2c-0.3,0.1-0.6,0.1-1,0.1c-0.7,0-1.3-0.1-1.9-0.3c-0.6-0.2-1-0.5-1.4-1
		c-0.4-0.4-0.7-1-0.9-1.6c-0.2-0.6-0.3-1.4-0.3-2.2c0-0.9,0.1-1.6,0.3-2.3c0.2-0.7,0.6-1.2,1-1.7c0.4-0.5,0.9-0.8,1.5-1
		c0.6-0.2,1.2-0.4,1.9-0.4c0.3,0,0.6,0,0.8,0.1c0.3,0,0.5,0.1,0.7,0.2c0.2,0.1,0.4,0.2,0.6,0.3s0.3,0.2,0.4,0.3
		c0.1,0.1,0.1,0.1,0.1,0.2s0,0.1,0.1,0.2s0,0.2,0,0.3s0,0.2,0,0.4c0,0.2,0,0.3,0,0.4c0,0.1,0,0.2-0.1,0.3c0,0.1-0.1,0.1-0.1,0.2
		c0,0-0.1,0-0.1,0c-0.1,0-0.2,0-0.3-0.1c-0.1-0.1-0.3-0.2-0.5-0.3s-0.4-0.2-0.7-0.3c-0.3-0.1-0.6-0.1-1-0.1c-0.4,0-0.8,0.1-1.1,0.2
		s-0.6,0.4-0.8,0.7c-0.2,0.3-0.4,0.7-0.5,1.1c-0.1,0.4-0.2,0.9-0.2,1.5c0,0.6,0.1,1.1,0.2,1.6c0.1,0.4,0.3,0.8,0.5,1.1
		c0.2,0.3,0.5,0.5,0.8,0.6s0.7,0.2,1.1,0.2c0.4,0,0.7,0,1-0.1s0.5-0.2,0.7-0.3s0.3-0.2,0.5-0.3c0.1-0.1,0.2-0.1,0.3-0.1
		c0.1,0,0.1,0,0.1,0c0,0,0.1,0.1,0.1,0.1c0,0.1,0,0.2,0,0.3C402.7,250.3,402.7,250.5,402.7,250.7z"/>
	<path class="st5" d="M413.3,247c0,0.8-0.1,1.6-0.3,2.3s-0.5,1.2-0.9,1.7c-0.4,0.5-0.9,0.8-1.5,1.1c-0.6,0.2-1.3,0.4-2.1,0.4
		c-0.8,0-1.5-0.1-2.1-0.3s-1.1-0.5-1.5-1c-0.4-0.4-0.7-1-0.9-1.6s-0.3-1.4-0.3-2.3c0-0.8,0.1-1.6,0.3-2.2s0.5-1.2,0.9-1.7
		c0.4-0.5,0.9-0.8,1.5-1.1s1.3-0.4,2.1-0.4c0.8,0,1.5,0.1,2.1,0.3c0.6,0.2,1.1,0.5,1.5,0.9s0.7,1,0.9,1.6
		C413.2,245.3,413.3,246.1,413.3,247z M411.1,247.1c0-0.5,0-1-0.1-1.5c-0.1-0.4-0.2-0.8-0.4-1.1s-0.5-0.6-0.8-0.7
		c-0.3-0.2-0.8-0.3-1.3-0.3c-0.5,0-0.9,0.1-1.3,0.3c-0.3,0.2-0.6,0.4-0.8,0.8c-0.2,0.3-0.4,0.7-0.4,1.1c-0.1,0.4-0.1,0.9-0.1,1.4
		c0,0.6,0,1.1,0.1,1.5s0.2,0.8,0.4,1.1c0.2,0.3,0.5,0.6,0.8,0.7c0.3,0.2,0.8,0.2,1.3,0.2c0.5,0,0.9-0.1,1.3-0.3
		c0.3-0.2,0.6-0.4,0.8-0.8c0.2-0.3,0.4-0.7,0.4-1.1C411.1,248,411.1,247.6,411.1,247.1z"/>
	<path class="st5" d="M427,251.9c0,0.1,0,0.1,0,0.1c0,0-0.1,0.1-0.2,0.1c-0.1,0-0.2,0-0.3,0.1c-0.1,0-0.3,0-0.5,0
		c-0.2,0-0.3,0-0.5,0c-0.1,0-0.2,0-0.3-0.1c-0.1,0-0.1-0.1-0.2-0.1c0,0,0-0.1,0-0.1v-8.3h0l-3,8.3c0,0.1-0.1,0.1-0.1,0.2
		c0,0-0.1,0.1-0.2,0.1c-0.1,0-0.2,0-0.3,0.1c-0.1,0-0.3,0-0.5,0c-0.2,0-0.3,0-0.5,0c-0.1,0-0.2,0-0.3-0.1c-0.1,0-0.1-0.1-0.2-0.1
		c0,0-0.1-0.1-0.1-0.2l-2.9-8.3h0v8.3c0,0.1,0,0.1,0,0.1c0,0-0.1,0.1-0.2,0.1c-0.1,0-0.2,0-0.3,0.1c-0.1,0-0.3,0-0.5,0
		c-0.2,0-0.3,0-0.5,0c-0.1,0-0.2,0-0.3-0.1s-0.1-0.1-0.2-0.1c0,0,0-0.1,0-0.1v-9.1c0-0.3,0.1-0.5,0.2-0.6c0.1-0.1,0.3-0.2,0.6-0.2
		h1.4c0.2,0,0.5,0,0.6,0.1s0.3,0.1,0.5,0.2c0.1,0.1,0.2,0.2,0.3,0.4c0.1,0.1,0.2,0.3,0.2,0.6l2.2,6.1h0l2.3-6.1
		c0.1-0.2,0.1-0.4,0.2-0.6c0.1-0.2,0.2-0.3,0.3-0.4c0.1-0.1,0.2-0.2,0.4-0.2s0.3-0.1,0.5-0.1h1.4c0.1,0,0.3,0,0.4,0.1
		c0.1,0,0.2,0.1,0.3,0.2c0.1,0.1,0.1,0.2,0.1,0.3c0,0.1,0.1,0.2,0.1,0.4V251.9z"/>
	<path class="st5" d="M435.3,251.4c0,0.2,0,0.3,0,0.4c0,0.1,0,0.2-0.1,0.2c0,0.1-0.1,0.1-0.1,0.1c0,0-0.1,0-0.1,0h-5.1
		c-0.2,0-0.3-0.1-0.4-0.2c-0.1-0.1-0.2-0.3-0.2-0.5v-8.9c0-0.2,0.1-0.4,0.2-0.5s0.3-0.2,0.4-0.2h5.1c0,0,0.1,0,0.1,0
		s0.1,0.1,0.1,0.1c0,0.1,0,0.2,0.1,0.3c0,0.1,0,0.2,0,0.4c0,0.1,0,0.3,0,0.4c0,0.1,0,0.2-0.1,0.2c0,0.1-0.1,0.1-0.1,0.1
		c0,0-0.1,0-0.1,0h-3.7v2.5h3.1c0,0,0.1,0,0.1,0c0,0,0.1,0.1,0.1,0.1s0,0.1,0.1,0.2c0,0.1,0,0.2,0,0.4c0,0.2,0,0.3,0,0.4
		c0,0.1,0,0.2-0.1,0.2s-0.1,0.1-0.1,0.1c0,0-0.1,0-0.1,0h-3.1v2.9h3.7c0,0,0.1,0,0.1,0c0,0,0.1,0.1,0.1,0.1c0,0.1,0,0.1,0.1,0.2
		C435.2,251.1,435.3,251.2,435.3,251.4z"/>
</g>
<g>
	<path class="st5" d="M243.1,367.1c0,0.6-0.1,1.1-0.3,1.5c-0.2,0.4-0.4,0.8-0.8,1.1c-0.3,0.3-0.8,0.5-1.3,0.7
		c-0.5,0.2-1.1,0.2-1.8,0.2h-0.9v3.3c0,0.1,0,0.1-0.1,0.1c0,0-0.1,0.1-0.2,0.1c-0.1,0-0.2,0-0.3,0.1s-0.3,0-0.5,0
		c-0.2,0-0.4,0-0.5,0c-0.1,0-0.2,0-0.3-0.1c-0.1,0-0.1-0.1-0.2-0.1c0,0,0-0.1,0-0.1v-9.2c0-0.2,0.1-0.4,0.2-0.6
		c0.1-0.1,0.3-0.2,0.5-0.2h2.4c0.2,0,0.5,0,0.7,0c0.2,0,0.5,0.1,0.8,0.1s0.6,0.2,0.9,0.3c0.3,0.2,0.6,0.4,0.8,0.6
		c0.2,0.3,0.4,0.5,0.5,0.9C243.1,366.3,243.1,366.7,243.1,367.1z M240.9,367.2c0-0.4-0.1-0.7-0.2-0.9c-0.1-0.2-0.3-0.4-0.5-0.5
		c-0.2-0.1-0.4-0.2-0.6-0.2c-0.2,0-0.4,0-0.6,0h-0.9v3.5h0.9c0.3,0,0.6,0,0.8-0.1c0.2-0.1,0.4-0.2,0.5-0.4c0.1-0.2,0.3-0.4,0.3-0.6
		S240.9,367.5,240.9,367.2z"/>
	<path class="st5" d="M252.3,373.9c0,0.1,0,0.1,0,0.1c0,0-0.1,0.1-0.1,0.1c-0.1,0-0.2,0-0.3,0.1c-0.2,0-0.4,0-0.6,0
		c-0.2,0-0.4,0-0.5,0c-0.1,0-0.2,0-0.3-0.1c-0.1,0-0.1-0.1-0.2-0.1c0,0-0.1-0.1-0.1-0.2l-0.9-2.3c-0.1-0.3-0.2-0.5-0.3-0.7
		s-0.2-0.4-0.4-0.5c-0.1-0.1-0.3-0.2-0.4-0.3s-0.4-0.1-0.6-0.1h-0.6v3.9c0,0.1,0,0.1-0.1,0.1c0,0-0.1,0.1-0.2,0.1
		c-0.1,0-0.2,0-0.3,0.1s-0.3,0-0.5,0c-0.2,0-0.4,0-0.5,0c-0.1,0-0.2,0-0.3-0.1c-0.1,0-0.1-0.1-0.2-0.1c0,0,0-0.1,0-0.1v-9.3
		c0-0.2,0.1-0.4,0.2-0.5c0.1-0.1,0.3-0.2,0.4-0.2h2.6c0.3,0,0.5,0,0.7,0s0.3,0,0.5,0c0.4,0.1,0.8,0.2,1.1,0.3
		c0.3,0.1,0.6,0.3,0.8,0.6c0.2,0.2,0.4,0.5,0.5,0.8c0.1,0.3,0.2,0.7,0.2,1.1c0,0.3,0,0.7-0.1,0.9c-0.1,0.3-0.2,0.5-0.4,0.8
		c-0.2,0.2-0.4,0.4-0.6,0.6c-0.2,0.2-0.5,0.3-0.8,0.4c0.2,0.1,0.3,0.2,0.4,0.3c0.1,0.1,0.3,0.2,0.4,0.4c0.1,0.2,0.2,0.3,0.3,0.5
		s0.2,0.4,0.3,0.7l0.9,2c0.1,0.2,0.1,0.3,0.2,0.4C252.3,373.8,252.3,373.9,252.3,373.9z M249.6,367c0-0.3-0.1-0.6-0.2-0.9
		s-0.4-0.4-0.8-0.5c-0.1,0-0.2,0-0.4-0.1s-0.3,0-0.6,0h-0.9v2.9h1.1c0.3,0,0.6,0,0.8-0.1c0.2-0.1,0.4-0.2,0.6-0.3s0.3-0.3,0.3-0.5
		S249.6,367.2,249.6,367z"/>
	<path class="st5" d="M259.9,373.4c0,0.2,0,0.3,0,0.4s0,0.2-0.1,0.2c0,0.1-0.1,0.1-0.1,0.1c0,0-0.1,0-0.1,0h-5.1
		c-0.2,0-0.3-0.1-0.4-0.2c-0.1-0.1-0.2-0.3-0.2-0.5v-8.9c0-0.2,0.1-0.4,0.2-0.5c0.1-0.1,0.3-0.2,0.4-0.2h5.1c0,0,0.1,0,0.1,0
		c0,0,0.1,0.1,0.1,0.1c0,0.1,0,0.2,0.1,0.3c0,0.1,0,0.2,0,0.4c0,0.1,0,0.3,0,0.4c0,0.1,0,0.2-0.1,0.3c0,0.1-0.1,0.1-0.1,0.1
		c0,0-0.1,0-0.1,0h-3.7v2.5h3.1c0,0,0.1,0,0.1,0c0,0,0.1,0.1,0.1,0.1s0,0.1,0.1,0.2c0,0.1,0,0.2,0,0.4c0,0.2,0,0.3,0,0.4
		c0,0.1,0,0.2-0.1,0.2s-0.1,0.1-0.1,0.1c0,0-0.1,0-0.1,0h-3.1v2.9h3.7c0,0,0.1,0,0.1,0c0,0,0.1,0.1,0.1,0.1s0,0.1,0.1,0.2
		S259.9,373.2,259.9,373.4z"/>
	<path class="st5" d="M267.6,371.1c0,0.5-0.1,1-0.3,1.4c-0.2,0.4-0.5,0.7-0.8,1c-0.3,0.3-0.7,0.5-1.2,0.6c-0.5,0.1-0.9,0.2-1.5,0.2
		c-0.4,0-0.7,0-1-0.1s-0.6-0.1-0.8-0.2c-0.2-0.1-0.4-0.2-0.6-0.3s-0.3-0.2-0.3-0.2s-0.1-0.2-0.1-0.3c0-0.1,0-0.3,0-0.6
		c0-0.2,0-0.3,0-0.4c0-0.1,0-0.2,0.1-0.3c0-0.1,0.1-0.1,0.1-0.1c0,0,0.1,0,0.1,0c0.1,0,0.2,0,0.3,0.1c0.1,0.1,0.3,0.2,0.5,0.3
		c0.2,0.1,0.5,0.2,0.8,0.3c0.3,0.1,0.6,0.1,1,0.1c0.3,0,0.5,0,0.7-0.1s0.4-0.1,0.5-0.3c0.1-0.1,0.2-0.2,0.3-0.4
		c0.1-0.2,0.1-0.3,0.1-0.5c0-0.2-0.1-0.4-0.2-0.6s-0.3-0.3-0.5-0.4c-0.2-0.1-0.4-0.3-0.7-0.4s-0.5-0.2-0.8-0.4s-0.5-0.3-0.8-0.4
		c-0.3-0.2-0.5-0.4-0.7-0.6c-0.2-0.2-0.4-0.5-0.5-0.8c-0.1-0.3-0.2-0.7-0.2-1.1c0-0.5,0.1-0.9,0.3-1.3s0.4-0.7,0.7-0.9
		s0.7-0.4,1.1-0.5c0.4-0.1,0.9-0.2,1.3-0.2c0.2,0,0.5,0,0.7,0.1c0.2,0,0.5,0.1,0.7,0.2c0.2,0.1,0.4,0.1,0.6,0.2
		c0.2,0.1,0.3,0.1,0.3,0.2s0.1,0.1,0.1,0.1c0,0,0,0.1,0,0.1s0,0.1,0,0.2c0,0.1,0,0.2,0,0.3c0,0.2,0,0.3,0,0.4c0,0.1,0,0.2,0,0.3
		c0,0.1,0,0.1-0.1,0.2c0,0-0.1,0-0.1,0c-0.1,0-0.1,0-0.3-0.1c-0.1-0.1-0.3-0.2-0.5-0.2c-0.2-0.1-0.4-0.2-0.6-0.2
		c-0.2-0.1-0.5-0.1-0.8-0.1c-0.2,0-0.4,0-0.6,0.1c-0.2,0.1-0.3,0.1-0.4,0.2c-0.1,0.1-0.2,0.2-0.3,0.4c-0.1,0.1-0.1,0.3-0.1,0.4
		c0,0.2,0.1,0.4,0.2,0.6c0.1,0.2,0.3,0.3,0.5,0.4s0.4,0.3,0.7,0.4c0.3,0.1,0.5,0.2,0.8,0.4c0.3,0.1,0.5,0.3,0.8,0.4
		c0.3,0.2,0.5,0.4,0.7,0.6c0.2,0.2,0.4,0.5,0.5,0.8S267.6,370.7,267.6,371.1z"/>
	<path class="st5" d="M275.3,371.1c0,0.5-0.1,1-0.3,1.4c-0.2,0.4-0.5,0.7-0.8,1c-0.3,0.3-0.7,0.5-1.2,0.6s-0.9,0.2-1.5,0.2
		c-0.4,0-0.7,0-1-0.1s-0.6-0.1-0.8-0.2c-0.2-0.1-0.4-0.2-0.6-0.3s-0.3-0.2-0.3-0.2s-0.1-0.2-0.1-0.3c0-0.1,0-0.3,0-0.6
		c0-0.2,0-0.3,0-0.4c0-0.1,0-0.2,0.1-0.3c0-0.1,0.1-0.1,0.1-0.1c0,0,0.1,0,0.1,0c0.1,0,0.2,0,0.3,0.1c0.1,0.1,0.3,0.2,0.5,0.3
		c0.2,0.1,0.5,0.2,0.8,0.3c0.3,0.1,0.6,0.1,1,0.1c0.3,0,0.5,0,0.7-0.1s0.4-0.1,0.5-0.3c0.1-0.1,0.2-0.2,0.3-0.4
		c0.1-0.2,0.1-0.3,0.1-0.5c0-0.2-0.1-0.4-0.2-0.6c-0.1-0.2-0.3-0.3-0.5-0.4c-0.2-0.1-0.4-0.3-0.7-0.4s-0.5-0.2-0.8-0.4
		s-0.5-0.3-0.8-0.4c-0.3-0.2-0.5-0.4-0.7-0.6c-0.2-0.2-0.4-0.5-0.5-0.8c-0.1-0.3-0.2-0.7-0.2-1.1c0-0.5,0.1-0.9,0.3-1.3
		s0.4-0.7,0.7-0.9s0.7-0.4,1.1-0.5c0.4-0.1,0.9-0.2,1.3-0.2c0.2,0,0.5,0,0.7,0.1c0.2,0,0.5,0.1,0.7,0.2s0.4,0.1,0.6,0.2
		c0.2,0.1,0.3,0.1,0.3,0.2c0.1,0.1,0.1,0.1,0.1,0.1c0,0,0,0.1,0,0.1c0,0.1,0,0.1,0,0.2c0,0.1,0,0.2,0,0.3c0,0.2,0,0.3,0,0.4
		s0,0.2,0,0.3c0,0.1,0,0.1-0.1,0.2c0,0-0.1,0-0.1,0s-0.2,0-0.3-0.1c-0.1-0.1-0.3-0.2-0.5-0.2c-0.2-0.1-0.4-0.2-0.6-0.2
		c-0.2-0.1-0.5-0.1-0.8-0.1c-0.2,0-0.4,0-0.6,0.1c-0.2,0.1-0.3,0.1-0.4,0.2c-0.1,0.1-0.2,0.2-0.3,0.4c-0.1,0.1-0.1,0.3-0.1,0.4
		c0,0.2,0.1,0.4,0.2,0.6c0.1,0.2,0.3,0.3,0.5,0.4s0.4,0.3,0.7,0.4c0.3,0.1,0.5,0.2,0.8,0.4c0.3,0.1,0.5,0.3,0.8,0.4s0.5,0.4,0.7,0.6
		c0.2,0.2,0.4,0.5,0.5,0.8S275.3,370.7,275.3,371.1z"/>
	<path class="st5" d="M286.9,373.4c0,0.1,0,0.3,0,0.4s0,0.2-0.1,0.2s-0.1,0.1-0.1,0.1c0,0-0.1,0-0.1,0h-5.6c0,0-0.1,0-0.1,0
		c0,0-0.1-0.1-0.1-0.1s-0.1-0.1-0.1-0.2s0-0.2,0-0.4c0-0.2,0-0.3,0-0.4c0-0.1,0-0.2,0.1-0.2c0-0.1,0.1-0.1,0.1-0.1s0.1,0,0.1,0h1.9
		v-6.7l-1.6,0.9c-0.1,0.1-0.2,0.1-0.3,0.1c-0.1,0-0.1,0-0.2,0s-0.1-0.1-0.1-0.2c0-0.1,0-0.3,0-0.5c0-0.1,0-0.2,0-0.3
		c0-0.1,0-0.2,0-0.2c0-0.1,0-0.1,0.1-0.1c0,0,0.1-0.1,0.2-0.1l2.2-1.4c0,0,0.1,0,0.1-0.1c0,0,0.1,0,0.2,0c0.1,0,0.1,0,0.2,0
		c0.1,0,0.2,0,0.4,0c0.2,0,0.4,0,0.5,0c0.1,0,0.2,0,0.3,0c0.1,0,0.1,0,0.1,0.1c0,0,0,0.1,0,0.1v8.4h1.7c0,0,0.1,0,0.1,0
		c0,0,0.1,0.1,0.1,0.1c0,0.1,0,0.1,0.1,0.2C286.9,373.1,286.9,373.3,286.9,373.4z"/>
</g>
<g>
	<path class="st5" d="M382.8,367.1c0,0.6-0.1,1.1-0.3,1.5c-0.2,0.4-0.4,0.8-0.8,1.1c-0.3,0.3-0.8,0.5-1.3,0.7
		c-0.5,0.2-1.1,0.2-1.8,0.2h-0.9v3.3c0,0.1,0,0.1-0.1,0.1c0,0-0.1,0.1-0.2,0.1c-0.1,0-0.2,0-0.3,0.1s-0.3,0-0.5,0
		c-0.2,0-0.4,0-0.5,0c-0.1,0-0.2,0-0.3-0.1c-0.1,0-0.1-0.1-0.2-0.1c0,0,0-0.1,0-0.1v-9.2c0-0.2,0.1-0.4,0.2-0.6
		c0.1-0.1,0.3-0.2,0.5-0.2h2.4c0.2,0,0.5,0,0.7,0c0.2,0,0.5,0.1,0.8,0.1s0.6,0.2,0.9,0.3c0.3,0.2,0.6,0.4,0.8,0.6
		c0.2,0.3,0.4,0.5,0.5,0.9C382.7,366.3,382.8,366.7,382.8,367.1z M380.6,367.2c0-0.4-0.1-0.7-0.2-0.9c-0.1-0.2-0.3-0.4-0.5-0.5
		c-0.2-0.1-0.4-0.2-0.6-0.2c-0.2,0-0.4,0-0.6,0h-0.9v3.5h0.9c0.3,0,0.6,0,0.8-0.1c0.2-0.1,0.4-0.2,0.5-0.4c0.1-0.2,0.3-0.4,0.3-0.6
		S380.6,367.5,380.6,367.2z"/>
	<path class="st5" d="M392,373.9c0,0.1,0,0.1,0,0.1c0,0-0.1,0.1-0.1,0.1c-0.1,0-0.2,0-0.3,0.1c-0.2,0-0.4,0-0.6,0
		c-0.2,0-0.4,0-0.5,0c-0.1,0-0.2,0-0.3-0.1c-0.1,0-0.1-0.1-0.2-0.1c0,0-0.1-0.1-0.1-0.2l-0.9-2.3c-0.1-0.3-0.2-0.5-0.3-0.7
		s-0.2-0.4-0.4-0.5c-0.1-0.1-0.3-0.2-0.4-0.3s-0.4-0.1-0.6-0.1h-0.6v3.9c0,0.1,0,0.1-0.1,0.1c0,0-0.1,0.1-0.2,0.1
		c-0.1,0-0.2,0-0.3,0.1s-0.3,0-0.5,0c-0.2,0-0.4,0-0.5,0c-0.1,0-0.2,0-0.3-0.1c-0.1,0-0.1-0.1-0.2-0.1c0,0,0-0.1,0-0.1v-9.3
		c0-0.2,0.1-0.4,0.2-0.5c0.1-0.1,0.3-0.2,0.4-0.2h2.6c0.3,0,0.5,0,0.7,0s0.3,0,0.5,0c0.4,0.1,0.8,0.2,1.1,0.3
		c0.3,0.1,0.6,0.3,0.8,0.6c0.2,0.2,0.4,0.5,0.5,0.8c0.1,0.3,0.2,0.7,0.2,1.1c0,0.3,0,0.7-0.1,0.9c-0.1,0.3-0.2,0.5-0.4,0.8
		c-0.2,0.2-0.4,0.4-0.6,0.6c-0.2,0.2-0.5,0.3-0.8,0.4c0.2,0.1,0.3,0.2,0.4,0.3c0.1,0.1,0.3,0.2,0.4,0.4c0.1,0.2,0.2,0.3,0.3,0.5
		s0.2,0.4,0.3,0.7l0.9,2c0.1,0.2,0.1,0.3,0.2,0.4C392,373.8,392,373.9,392,373.9z M389.3,367c0-0.3-0.1-0.6-0.2-0.9
		s-0.4-0.4-0.8-0.5c-0.1,0-0.2,0-0.4-0.1s-0.3,0-0.6,0h-0.9v2.9h1.1c0.3,0,0.6,0,0.8-0.1c0.2-0.1,0.4-0.2,0.6-0.3s0.3-0.3,0.3-0.5
		S389.3,367.2,389.3,367z"/>
	<path class="st5" d="M399.6,373.4c0,0.2,0,0.3,0,0.4s0,0.2-0.1,0.2c0,0.1-0.1,0.1-0.1,0.1c0,0-0.1,0-0.1,0h-5.1
		c-0.2,0-0.3-0.1-0.4-0.2c-0.1-0.1-0.2-0.3-0.2-0.5v-8.9c0-0.2,0.1-0.4,0.2-0.5c0.1-0.1,0.3-0.2,0.4-0.2h5.1c0,0,0.1,0,0.1,0
		c0,0,0.1,0.1,0.1,0.1c0,0.1,0,0.2,0.1,0.3c0,0.1,0,0.2,0,0.4c0,0.1,0,0.3,0,0.4c0,0.1,0,0.2-0.1,0.3c0,0.1-0.1,0.1-0.1,0.1
		c0,0-0.1,0-0.1,0h-3.7v2.5h3.1c0,0,0.1,0,0.1,0c0,0,0.1,0.1,0.1,0.1s0,0.1,0.1,0.2c0,0.1,0,0.2,0,0.4c0,0.2,0,0.3,0,0.4
		c0,0.1,0,0.2-0.1,0.2s-0.1,0.1-0.1,0.1c0,0-0.1,0-0.1,0h-3.1v2.9h3.7c0,0,0.1,0,0.1,0c0,0,0.1,0.1,0.1,0.1s0,0.1,0.1,0.2
		S399.6,373.2,399.6,373.4z"/>
	<path class="st5" d="M407.3,371.1c0,0.5-0.1,1-0.3,1.4c-0.2,0.4-0.5,0.7-0.8,1c-0.3,0.3-0.7,0.5-1.2,0.6c-0.5,0.1-0.9,0.2-1.5,0.2
		c-0.4,0-0.7,0-1-0.1s-0.6-0.1-0.8-0.2c-0.2-0.1-0.4-0.2-0.6-0.3s-0.3-0.2-0.3-0.2s-0.1-0.2-0.1-0.3s0-0.3,0-0.6c0-0.2,0-0.3,0-0.4
		c0-0.1,0-0.2,0.1-0.3c0-0.1,0.1-0.1,0.1-0.1c0,0,0.1,0,0.1,0c0.1,0,0.2,0,0.3,0.1c0.1,0.1,0.3,0.2,0.5,0.3c0.2,0.1,0.5,0.2,0.8,0.3
		c0.3,0.1,0.6,0.1,1,0.1c0.3,0,0.5,0,0.7-0.1s0.4-0.1,0.5-0.3c0.1-0.1,0.2-0.2,0.3-0.4c0.1-0.2,0.1-0.3,0.1-0.5
		c0-0.2-0.1-0.4-0.2-0.6c-0.1-0.2-0.3-0.3-0.5-0.4c-0.2-0.1-0.4-0.3-0.7-0.4c-0.3-0.1-0.5-0.2-0.8-0.4c-0.3-0.1-0.5-0.3-0.8-0.4
		c-0.3-0.2-0.5-0.4-0.7-0.6c-0.2-0.2-0.4-0.5-0.5-0.8c-0.1-0.3-0.2-0.7-0.2-1.1c0-0.5,0.1-0.9,0.3-1.3s0.4-0.7,0.7-0.9
		c0.3-0.2,0.7-0.4,1.1-0.5c0.4-0.1,0.9-0.2,1.3-0.2c0.2,0,0.5,0,0.7,0.1c0.2,0,0.5,0.1,0.7,0.2s0.4,0.1,0.6,0.2
		c0.2,0.1,0.3,0.1,0.3,0.2s0.1,0.1,0.1,0.1c0,0,0,0.1,0,0.1c0,0.1,0,0.1,0,0.2c0,0.1,0,0.2,0,0.3c0,0.2,0,0.3,0,0.4
		c0,0.1,0,0.2,0,0.3c0,0.1,0,0.1-0.1,0.2s-0.1,0-0.1,0c-0.1,0-0.1,0-0.3-0.1c-0.1-0.1-0.3-0.2-0.5-0.2c-0.2-0.1-0.4-0.2-0.6-0.2
		c-0.2-0.1-0.5-0.1-0.8-0.1c-0.2,0-0.4,0-0.6,0.1c-0.2,0.1-0.3,0.1-0.4,0.2c-0.1,0.1-0.2,0.2-0.3,0.4c-0.1,0.1-0.1,0.3-0.1,0.4
		c0,0.2,0.1,0.4,0.2,0.6c0.1,0.2,0.3,0.3,0.5,0.4s0.4,0.3,0.7,0.4c0.3,0.1,0.5,0.2,0.8,0.4c0.3,0.1,0.5,0.3,0.8,0.4s0.5,0.4,0.7,0.6
		c0.2,0.2,0.4,0.5,0.5,0.8C407.2,370.4,407.3,370.7,407.3,371.1z"/>
	<path class="st5" d="M415,371.1c0,0.5-0.1,1-0.3,1.4c-0.2,0.4-0.5,0.7-0.8,1c-0.3,0.3-0.7,0.5-1.2,0.6s-0.9,0.2-1.5,0.2
		c-0.4,0-0.7,0-1-0.1s-0.6-0.1-0.8-0.2c-0.2-0.1-0.4-0.2-0.6-0.3s-0.3-0.2-0.3-0.2s-0.1-0.2-0.1-0.3c0-0.1,0-0.3,0-0.6
		c0-0.2,0-0.3,0-0.4c0-0.1,0-0.2,0.1-0.3s0.1-0.1,0.1-0.1c0,0,0.1,0,0.1,0c0.1,0,0.2,0,0.3,0.1c0.1,0.1,0.3,0.2,0.5,0.3
		s0.5,0.2,0.8,0.3s0.6,0.1,1,0.1c0.3,0,0.5,0,0.7-0.1s0.4-0.1,0.5-0.3c0.1-0.1,0.2-0.2,0.3-0.4c0.1-0.2,0.1-0.3,0.1-0.5
		c0-0.2-0.1-0.4-0.2-0.6c-0.1-0.2-0.3-0.3-0.5-0.4c-0.2-0.1-0.4-0.3-0.7-0.4c-0.3-0.1-0.5-0.2-0.8-0.4c-0.3-0.1-0.5-0.3-0.8-0.4
		s-0.5-0.4-0.7-0.6s-0.4-0.5-0.5-0.8c-0.1-0.3-0.2-0.7-0.2-1.1c0-0.5,0.1-0.9,0.3-1.3s0.4-0.7,0.7-0.9c0.3-0.2,0.7-0.4,1.1-0.5
		c0.4-0.1,0.9-0.2,1.3-0.2c0.2,0,0.5,0,0.7,0.1c0.2,0,0.5,0.1,0.7,0.2s0.4,0.1,0.6,0.2c0.2,0.1,0.3,0.1,0.3,0.2
		c0.1,0.1,0.1,0.1,0.1,0.1c0,0,0,0.1,0,0.1c0,0.1,0,0.1,0,0.2c0,0.1,0,0.2,0,0.3c0,0.2,0,0.3,0,0.4s0,0.2,0,0.3c0,0.1,0,0.1-0.1,0.2
		c0,0-0.1,0-0.1,0s-0.2,0-0.3-0.1c-0.1-0.1-0.3-0.2-0.5-0.2c-0.2-0.1-0.4-0.2-0.6-0.2c-0.2-0.1-0.5-0.1-0.8-0.1
		c-0.2,0-0.4,0-0.6,0.1c-0.2,0.1-0.3,0.1-0.4,0.2c-0.1,0.1-0.2,0.2-0.3,0.4c-0.1,0.1-0.1,0.3-0.1,0.4c0,0.2,0.1,0.4,0.2,0.6
		s0.3,0.3,0.5,0.4s0.4,0.3,0.7,0.4s0.5,0.2,0.8,0.4c0.3,0.1,0.5,0.3,0.8,0.4s0.5,0.4,0.7,0.6c0.2,0.2,0.4,0.5,0.5,0.8
		S415,370.7,415,371.1z"/>
	<path class="st5" d="M426.6,373.4c0,0.2,0,0.3,0,0.4c0,0.1,0,0.2-0.1,0.3s-0.1,0.1-0.1,0.1c0,0-0.1,0-0.1,0h-5.9
		c-0.1,0-0.2,0-0.3,0s-0.2-0.1-0.2-0.1s-0.1-0.1-0.1-0.3c0-0.1,0-0.3,0-0.5c0-0.2,0-0.3,0-0.4c0-0.1,0-0.2,0.1-0.3
		c0-0.1,0.1-0.2,0.2-0.3c0.1-0.1,0.2-0.2,0.3-0.3l1.8-1.9c0.4-0.4,0.6-0.7,0.9-1s0.4-0.6,0.5-0.8s0.2-0.5,0.2-0.7
		c0-0.2,0.1-0.4,0.1-0.6c0-0.2,0-0.3-0.1-0.5c-0.1-0.2-0.1-0.3-0.2-0.4c-0.1-0.1-0.2-0.2-0.4-0.3c-0.2-0.1-0.4-0.1-0.6-0.1
		c-0.3,0-0.6,0-0.8,0.1c-0.2,0.1-0.5,0.2-0.6,0.3s-0.3,0.2-0.5,0.3s-0.2,0.1-0.3,0.1c0,0-0.1,0-0.1,0c0,0-0.1-0.1-0.1-0.2
		c0-0.1,0-0.2-0.1-0.3c0-0.1,0-0.3,0-0.5c0-0.1,0-0.2,0-0.3c0-0.1,0-0.2,0-0.2s0-0.1,0.1-0.2s0.1-0.1,0.1-0.2
		c0.1-0.1,0.2-0.1,0.4-0.2c0.2-0.1,0.4-0.2,0.7-0.3c0.3-0.1,0.5-0.2,0.9-0.2c0.3-0.1,0.6-0.1,1-0.1c0.5,0,1,0.1,1.4,0.2
		c0.4,0.1,0.7,0.3,1,0.6c0.3,0.2,0.5,0.5,0.6,0.9c0.1,0.3,0.2,0.7,0.2,1.1c0,0.3,0,0.7-0.1,1c-0.1,0.3-0.2,0.7-0.4,1
		c-0.2,0.4-0.5,0.8-0.8,1.2c-0.4,0.5-0.8,1-1.4,1.6l-1.2,1.2h4c0.1,0,0.1,0,0.1,0s0.1,0.1,0.1,0.1c0,0.1,0.1,0.2,0.1,0.3
		C426.6,373.1,426.6,373.2,426.6,373.4z"/>
</g>
<g>
	<path class="st5" d="M526.4,367.1c0,0.6-0.1,1.1-0.3,1.5c-0.2,0.4-0.4,0.8-0.8,1.1s-0.8,0.5-1.3,0.7c-0.5,0.2-1.1,0.2-1.8,0.2h-0.9
		v3.3c0,0.1,0,0.1-0.1,0.1c0,0-0.1,0.1-0.2,0.1c-0.1,0-0.2,0-0.3,0.1s-0.3,0-0.5,0c-0.2,0-0.4,0-0.5,0s-0.2,0-0.3-0.1
		c-0.1,0-0.1-0.1-0.2-0.1c0,0,0-0.1,0-0.1v-9.2c0-0.2,0.1-0.4,0.2-0.6s0.3-0.2,0.5-0.2h2.4c0.2,0,0.5,0,0.7,0s0.5,0.1,0.8,0.1
		s0.6,0.2,0.9,0.3c0.3,0.2,0.6,0.4,0.8,0.6c0.2,0.3,0.4,0.5,0.5,0.9C526.4,366.3,526.4,366.7,526.4,367.1z M524.3,367.2
		c0-0.4-0.1-0.7-0.2-0.9c-0.1-0.2-0.3-0.4-0.5-0.5c-0.2-0.1-0.4-0.2-0.6-0.2c-0.2,0-0.4,0-0.6,0h-0.9v3.5h0.9c0.3,0,0.6,0,0.8-0.1
		c0.2-0.1,0.4-0.2,0.5-0.4s0.3-0.4,0.3-0.6C524.2,367.7,524.3,367.5,524.3,367.2z"/>
	<path class="st5" d="M535.6,373.9c0,0.1,0,0.1,0,0.1c0,0-0.1,0.1-0.1,0.1c-0.1,0-0.2,0-0.3,0.1c-0.2,0-0.4,0-0.6,0
		c-0.2,0-0.4,0-0.5,0c-0.1,0-0.2,0-0.3-0.1c-0.1,0-0.1-0.1-0.2-0.1c0,0-0.1-0.1-0.1-0.2l-0.9-2.3c-0.1-0.3-0.2-0.5-0.3-0.7
		s-0.2-0.4-0.4-0.5s-0.3-0.2-0.4-0.3c-0.2-0.1-0.4-0.1-0.6-0.1h-0.6v3.9c0,0.1,0,0.1-0.1,0.1c0,0-0.1,0.1-0.2,0.1
		c-0.1,0-0.2,0-0.3,0.1s-0.3,0-0.5,0c-0.2,0-0.4,0-0.5,0c-0.1,0-0.2,0-0.3-0.1c-0.1,0-0.1-0.1-0.2-0.1c0,0,0-0.1,0-0.1v-9.3
		c0-0.2,0.1-0.4,0.2-0.5c0.1-0.1,0.3-0.2,0.4-0.2h2.6c0.3,0,0.5,0,0.7,0s0.3,0,0.5,0c0.4,0.1,0.8,0.2,1.1,0.3
		c0.3,0.1,0.6,0.3,0.8,0.6c0.2,0.2,0.4,0.5,0.5,0.8c0.1,0.3,0.2,0.7,0.2,1.1c0,0.3,0,0.7-0.1,0.9c-0.1,0.3-0.2,0.5-0.4,0.8
		c-0.2,0.2-0.4,0.4-0.6,0.6c-0.2,0.2-0.5,0.3-0.8,0.4c0.2,0.1,0.3,0.2,0.4,0.3c0.1,0.1,0.3,0.2,0.4,0.4s0.2,0.3,0.3,0.5
		s0.2,0.4,0.3,0.7l0.9,2c0.1,0.2,0.1,0.3,0.2,0.4C535.6,373.8,535.6,373.9,535.6,373.9z M533,367c0-0.3-0.1-0.6-0.2-0.9
		c-0.2-0.2-0.4-0.4-0.8-0.5c-0.1,0-0.2,0-0.4-0.1c-0.1,0-0.3,0-0.6,0h-0.9v2.9h1.1c0.3,0,0.6,0,0.8-0.1c0.2-0.1,0.4-0.2,0.6-0.3
		s0.3-0.3,0.3-0.5C532.9,367.4,533,367.2,533,367z"/>
	<path class="st5" d="M543.2,373.4c0,0.2,0,0.3,0,0.4c0,0.1,0,0.2-0.1,0.2c0,0.1-0.1,0.1-0.1,0.1c0,0-0.1,0-0.1,0h-5.1
		c-0.2,0-0.3-0.1-0.4-0.2c-0.1-0.1-0.2-0.3-0.2-0.5v-8.9c0-0.2,0.1-0.4,0.2-0.5c0.1-0.1,0.3-0.2,0.4-0.2h5.1c0,0,0.1,0,0.1,0
		s0.1,0.1,0.1,0.1c0,0.1,0,0.2,0.1,0.3c0,0.1,0,0.2,0,0.4c0,0.1,0,0.3,0,0.4c0,0.1,0,0.2-0.1,0.3c0,0.1-0.1,0.1-0.1,0.1
		c0,0-0.1,0-0.1,0h-3.7v2.5h3.1c0,0,0.1,0,0.1,0c0,0,0.1,0.1,0.1,0.1s0,0.1,0.1,0.2c0,0.1,0,0.2,0,0.4c0,0.2,0,0.3,0,0.4
		c0,0.1,0,0.2-0.1,0.2s-0.1,0.1-0.1,0.1c0,0-0.1,0-0.1,0h-3.1v2.9h3.7c0,0,0.1,0,0.1,0c0,0,0.1,0.1,0.1,0.1s0,0.1,0.1,0.2
		C543.2,373.1,543.2,373.2,543.2,373.4z"/>
	<path class="st5" d="M551,371.1c0,0.5-0.1,1-0.3,1.4c-0.2,0.4-0.5,0.7-0.8,1c-0.3,0.3-0.7,0.5-1.2,0.6c-0.5,0.1-0.9,0.2-1.5,0.2
		c-0.4,0-0.7,0-1-0.1s-0.6-0.1-0.8-0.2c-0.2-0.1-0.4-0.2-0.6-0.3s-0.3-0.2-0.3-0.2s-0.1-0.2-0.1-0.3s0-0.3,0-0.6c0-0.2,0-0.3,0-0.4
		c0-0.1,0-0.2,0.1-0.3c0-0.1,0.1-0.1,0.1-0.1c0,0,0.1,0,0.1,0c0.1,0,0.2,0,0.3,0.1c0.1,0.1,0.3,0.2,0.5,0.3c0.2,0.1,0.5,0.2,0.8,0.3
		c0.3,0.1,0.6,0.1,1,0.1c0.3,0,0.5,0,0.7-0.1s0.4-0.1,0.5-0.3c0.1-0.1,0.2-0.2,0.3-0.4c0.1-0.2,0.1-0.3,0.1-0.5
		c0-0.2-0.1-0.4-0.2-0.6c-0.1-0.2-0.3-0.3-0.5-0.4c-0.2-0.1-0.4-0.3-0.7-0.4c-0.3-0.1-0.5-0.2-0.8-0.4c-0.3-0.1-0.5-0.3-0.8-0.4
		c-0.3-0.2-0.5-0.4-0.7-0.6c-0.2-0.2-0.4-0.5-0.5-0.8c-0.1-0.3-0.2-0.7-0.2-1.1c0-0.5,0.1-0.9,0.3-1.3s0.4-0.7,0.7-0.9
		c0.3-0.2,0.7-0.4,1.1-0.5c0.4-0.1,0.9-0.2,1.3-0.2c0.2,0,0.5,0,0.7,0.1c0.2,0,0.5,0.1,0.7,0.2s0.4,0.1,0.6,0.2
		c0.2,0.1,0.3,0.1,0.3,0.2s0.1,0.1,0.1,0.1c0,0,0,0.1,0,0.1c0,0.1,0,0.1,0,0.2c0,0.1,0,0.2,0,0.3c0,0.2,0,0.3,0,0.4
		c0,0.1,0,0.2,0,0.3c0,0.1,0,0.1-0.1,0.2s-0.1,0-0.1,0c-0.1,0-0.1,0-0.3-0.1c-0.1-0.1-0.3-0.2-0.5-0.2c-0.2-0.1-0.4-0.2-0.6-0.2
		c-0.2-0.1-0.5-0.1-0.8-0.1c-0.2,0-0.4,0-0.6,0.1c-0.2,0.1-0.3,0.1-0.4,0.2c-0.1,0.1-0.2,0.2-0.3,0.4c-0.1,0.1-0.1,0.3-0.1,0.4
		c0,0.2,0.1,0.4,0.2,0.6c0.1,0.2,0.3,0.3,0.5,0.4s0.4,0.3,0.7,0.4c0.3,0.1,0.5,0.2,0.8,0.4c0.3,0.1,0.5,0.3,0.8,0.4s0.5,0.4,0.7,0.6
		c0.2,0.2,0.4,0.5,0.5,0.8C550.9,370.4,551,370.7,551,371.1z"/>
	<path class="st5" d="M558.6,371.1c0,0.5-0.1,1-0.3,1.4c-0.2,0.4-0.5,0.7-0.8,1c-0.3,0.3-0.7,0.5-1.2,0.6s-0.9,0.2-1.5,0.2
		c-0.4,0-0.7,0-1-0.1s-0.6-0.1-0.8-0.2c-0.2-0.1-0.4-0.2-0.6-0.3s-0.3-0.2-0.3-0.2s-0.1-0.2-0.1-0.3c0-0.1,0-0.3,0-0.6
		c0-0.2,0-0.3,0-0.4c0-0.1,0-0.2,0.1-0.3s0.1-0.1,0.1-0.1c0,0,0.1,0,0.1,0c0.1,0,0.2,0,0.3,0.1c0.1,0.1,0.3,0.2,0.5,0.3
		s0.5,0.2,0.8,0.3s0.6,0.1,1,0.1c0.3,0,0.5,0,0.7-0.1s0.4-0.1,0.5-0.3c0.1-0.1,0.2-0.2,0.3-0.4c0.1-0.2,0.1-0.3,0.1-0.5
		c0-0.2-0.1-0.4-0.2-0.6c-0.1-0.2-0.3-0.3-0.5-0.4c-0.2-0.1-0.4-0.3-0.7-0.4c-0.3-0.1-0.5-0.2-0.8-0.4c-0.3-0.1-0.5-0.3-0.8-0.4
		s-0.5-0.4-0.7-0.6s-0.4-0.5-0.5-0.8c-0.1-0.3-0.2-0.7-0.2-1.1c0-0.5,0.1-0.9,0.3-1.3s0.4-0.7,0.7-0.9c0.3-0.2,0.7-0.4,1.1-0.5
		c0.4-0.1,0.9-0.2,1.3-0.2c0.2,0,0.5,0,0.7,0.1c0.2,0,0.5,0.1,0.7,0.2s0.4,0.1,0.6,0.2c0.2,0.1,0.3,0.1,0.3,0.2
		c0.1,0.1,0.1,0.1,0.1,0.1c0,0,0,0.1,0,0.1c0,0.1,0,0.1,0,0.2c0,0.1,0,0.2,0,0.3c0,0.2,0,0.3,0,0.4s0,0.2,0,0.3c0,0.1,0,0.1-0.1,0.2
		c0,0-0.1,0-0.1,0s-0.2,0-0.3-0.1c-0.1-0.1-0.3-0.2-0.5-0.2c-0.2-0.1-0.4-0.2-0.6-0.2c-0.2-0.1-0.5-0.1-0.8-0.1
		c-0.2,0-0.4,0-0.6,0.1c-0.2,0.1-0.3,0.1-0.4,0.2c-0.1,0.1-0.2,0.2-0.3,0.4c-0.1,0.1-0.1,0.3-0.1,0.4c0,0.2,0.1,0.4,0.2,0.6
		s0.3,0.3,0.5,0.4s0.4,0.3,0.7,0.4s0.5,0.2,0.8,0.4c0.3,0.1,0.5,0.3,0.8,0.4s0.5,0.4,0.7,0.6c0.2,0.2,0.4,0.5,0.5,0.8
		S558.6,370.7,558.6,371.1z"/>
	<path class="st5" d="M570.3,371.2c0,0.5-0.1,1-0.3,1.4c-0.2,0.4-0.5,0.7-0.8,1c-0.3,0.3-0.8,0.5-1.2,0.6c-0.5,0.1-1,0.2-1.6,0.2
		c-0.3,0-0.7,0-1-0.1s-0.6-0.1-0.8-0.2s-0.4-0.1-0.6-0.2c-0.2-0.1-0.3-0.1-0.3-0.2c0,0-0.1-0.1-0.1-0.1c0-0.1,0-0.1-0.1-0.2
		c0-0.1,0-0.2,0-0.3c0-0.1,0-0.2,0-0.4c0-0.3,0-0.4,0.1-0.5c0-0.1,0.1-0.1,0.2-0.1c0.1,0,0.1,0,0.3,0.1c0.1,0.1,0.3,0.1,0.5,0.2
		s0.4,0.2,0.7,0.2c0.3,0.1,0.6,0.1,0.9,0.1c0.3,0,0.5,0,0.8-0.1c0.2-0.1,0.4-0.2,0.6-0.3c0.2-0.1,0.3-0.3,0.3-0.5s0.1-0.4,0.1-0.6
		c0-0.2,0-0.5-0.1-0.6c-0.1-0.2-0.2-0.4-0.4-0.5s-0.4-0.2-0.7-0.3c-0.3-0.1-0.6-0.1-1-0.1h-0.9c-0.1,0-0.1,0-0.2,0
		c0,0-0.1-0.1-0.1-0.1c0-0.1-0.1-0.1-0.1-0.2c0-0.1,0-0.2,0-0.4c0-0.2,0-0.3,0-0.4c0-0.1,0-0.2,0.1-0.2s0.1-0.1,0.1-0.1
		c0,0,0.1,0,0.2,0h0.9c0.3,0,0.6,0,0.8-0.1s0.4-0.2,0.6-0.3c0.2-0.1,0.3-0.3,0.4-0.5c0.1-0.2,0.1-0.4,0.1-0.6c0-0.2,0-0.3-0.1-0.5
		c-0.1-0.2-0.1-0.3-0.3-0.4s-0.3-0.2-0.4-0.3c-0.2-0.1-0.4-0.1-0.6-0.1c-0.3,0-0.5,0-0.8,0.1c-0.2,0.1-0.5,0.2-0.7,0.3
		s-0.4,0.2-0.5,0.3c-0.1,0.1-0.2,0.1-0.3,0.1c0,0-0.1,0-0.1,0c0,0-0.1-0.1-0.1-0.1c0-0.1,0-0.1,0-0.2c0-0.1,0-0.2,0-0.4
		c0-0.1,0-0.2,0-0.3c0-0.1,0-0.2,0-0.2s0-0.1,0.1-0.2c0,0,0.1-0.1,0.1-0.1c0.1,0,0.2-0.1,0.3-0.2s0.4-0.2,0.6-0.3
		c0.2-0.1,0.5-0.2,0.9-0.2c0.3-0.1,0.7-0.1,1.1-0.1c0.5,0,0.9,0.1,1.3,0.2c0.4,0.1,0.7,0.3,1,0.5s0.5,0.5,0.6,0.8
		c0.1,0.3,0.2,0.7,0.2,1.1c0,0.3,0,0.6-0.1,0.9c-0.1,0.3-0.2,0.5-0.3,0.7c-0.2,0.2-0.3,0.4-0.6,0.5s-0.5,0.3-0.8,0.3v0
		c0.4,0,0.7,0.1,1,0.3c0.3,0.1,0.5,0.3,0.7,0.5c0.2,0.2,0.3,0.4,0.5,0.7S570.3,370.9,570.3,371.2z"/>
</g>
<path class="st4" d="M371.4,447.6h57.2c6.8,0,12.4,5.5,12.4,12.4v41.2c0,6.8-5.5,12.4-12.4,12.4h-57.2c-6.8,0-12.4-5.5-12.4-12.4
	v-41.2C359,453.1,364.6,447.6,371.4,447.6z"/>
<g>
	<path class="st5" d="M248.2,487.1c0,0.5-0.1,0.9-0.3,1.3s-0.4,0.7-0.8,1c-0.3,0.3-0.7,0.4-1.1,0.6c-0.4,0.1-0.9,0.2-1.4,0.2
		c-0.3,0-0.6,0-0.9-0.1c-0.3-0.1-0.5-0.1-0.8-0.2c-0.2-0.1-0.4-0.2-0.5-0.2s-0.3-0.2-0.3-0.2c-0.1-0.1-0.1-0.2-0.1-0.3s0-0.3,0-0.5
		c0-0.2,0-0.3,0-0.4c0-0.1,0-0.2,0-0.3c0-0.1,0.1-0.1,0.1-0.1s0.1,0,0.1,0c0.1,0,0.2,0,0.3,0.1c0.1,0.1,0.3,0.2,0.5,0.3
		s0.4,0.2,0.7,0.3c0.3,0.1,0.6,0.1,1,0.1c0.2,0,0.5,0,0.6-0.1c0.2-0.1,0.3-0.1,0.5-0.2c0.1-0.1,0.2-0.2,0.3-0.4s0.1-0.3,0.1-0.5
		c0-0.2-0.1-0.4-0.2-0.6c-0.1-0.2-0.3-0.3-0.5-0.4s-0.4-0.2-0.6-0.3c-0.2-0.1-0.5-0.2-0.7-0.3c-0.3-0.1-0.5-0.3-0.7-0.4
		c-0.2-0.2-0.5-0.3-0.6-0.5s-0.3-0.5-0.5-0.7s-0.2-0.6-0.2-1c0-0.5,0.1-0.9,0.3-1.2c0.2-0.3,0.4-0.6,0.7-0.9c0.3-0.2,0.6-0.4,1-0.5
		c0.4-0.1,0.8-0.2,1.3-0.2c0.2,0,0.5,0,0.7,0.1c0.2,0,0.4,0.1,0.6,0.1c0.2,0.1,0.4,0.1,0.5,0.2c0.2,0.1,0.3,0.1,0.3,0.2
		c0,0,0.1,0.1,0.1,0.1c0,0,0,0.1,0,0.1c0,0.1,0,0.1,0,0.2s0,0.2,0,0.3c0,0.1,0,0.3,0,0.4s0,0.2,0,0.2c0,0.1,0,0.1-0.1,0.1
		s-0.1,0-0.1,0c-0.1,0-0.1,0-0.3-0.1s-0.3-0.1-0.4-0.2c-0.2-0.1-0.4-0.2-0.6-0.2c-0.2-0.1-0.5-0.1-0.7-0.1c-0.2,0-0.4,0-0.6,0.1
		c-0.2,0.1-0.3,0.1-0.4,0.2s-0.2,0.2-0.2,0.3c-0.1,0.1-0.1,0.3-0.1,0.4c0,0.2,0.1,0.4,0.2,0.6c0.1,0.2,0.3,0.3,0.5,0.4
		s0.4,0.2,0.7,0.3c0.2,0.1,0.5,0.2,0.8,0.3c0.3,0.1,0.5,0.3,0.8,0.4c0.2,0.2,0.5,0.3,0.7,0.5c0.2,0.2,0.3,0.5,0.5,0.7
		C248.1,486.4,248.2,486.8,248.2,487.1z"/>
	<path class="st5" d="M257.4,489.3c0.1,0.2,0.1,0.3,0.1,0.4c0,0.1,0,0.2-0.1,0.2c-0.1,0.1-0.2,0.1-0.3,0.1c-0.1,0-0.3,0-0.6,0
		c-0.3,0-0.4,0-0.6,0c-0.1,0-0.2,0-0.3,0c-0.1,0-0.1-0.1-0.2-0.1c0,0-0.1-0.1-0.1-0.2l-0.6-1.9h-3.6l-0.6,1.9c0,0.1,0,0.1-0.1,0.2
		c0,0-0.1,0.1-0.2,0.1c-0.1,0-0.2,0-0.3,0.1c-0.1,0-0.3,0-0.5,0c-0.2,0-0.4,0-0.5,0c-0.1,0-0.2-0.1-0.3-0.1c0-0.1-0.1-0.1-0.1-0.2
		c0-0.1,0.1-0.2,0.1-0.4l3-8.5c0-0.1,0.1-0.2,0.1-0.2s0.1-0.1,0.2-0.1c0.1,0,0.2,0,0.4-0.1c0.2,0,0.4,0,0.6,0c0.3,0,0.5,0,0.7,0
		c0.2,0,0.3,0,0.4,0.1c0.1,0,0.2,0.1,0.2,0.1s0.1,0.1,0.1,0.2L257.4,489.3z M253,482.3L253,482.3l-1.4,4.1h2.7L253,482.3z"/>
	<path class="st5" d="M264,489.2c0,0.1,0,0.3,0,0.4c0,0.1,0,0.2-0.1,0.3c0,0.1-0.1,0.1-0.1,0.1c0,0-0.1,0-0.1,0h-4.4
		c-0.2,0-0.3,0-0.4-0.1s-0.2-0.3-0.2-0.5v-8.7c0,0,0-0.1,0-0.1c0,0,0.1-0.1,0.2-0.1c0.1,0,0.2,0,0.3-0.1c0.1,0,0.3,0,0.5,0
		c0.2,0,0.4,0,0.5,0c0.1,0,0.2,0,0.3,0.1c0.1,0,0.1,0.1,0.2,0.1c0,0,0,0.1,0,0.1v7.7h3c0,0,0.1,0,0.1,0s0.1,0.1,0.1,0.1
		c0,0.1,0,0.1,0.1,0.2C264,488.9,264,489.1,264,489.2z"/>
	<path class="st5" d="M270.8,489.3c0,0.1,0,0.3,0,0.4c0,0.1,0,0.2-0.1,0.2c0,0.1-0.1,0.1-0.1,0.1s-0.1,0-0.1,0h-4.8
		c-0.2,0-0.3,0-0.4-0.1s-0.2-0.3-0.2-0.5V481c0-0.2,0.1-0.4,0.2-0.5s0.2-0.1,0.4-0.1h4.8c0,0,0.1,0,0.1,0c0,0,0.1,0.1,0.1,0.1
		c0,0.1,0,0.1,0.1,0.2c0,0.1,0,0.2,0,0.4c0,0.1,0,0.3,0,0.4c0,0.1,0,0.2-0.1,0.2c0,0.1-0.1,0.1-0.1,0.1c0,0-0.1,0-0.1,0h-3.4v2.3
		h2.9c0,0,0.1,0,0.1,0s0.1,0.1,0.1,0.1c0,0.1,0,0.1,0.1,0.2c0,0.1,0,0.2,0,0.4c0,0.1,0,0.3,0,0.4c0,0.1,0,0.2-0.1,0.2
		c0,0.1-0.1,0.1-0.1,0.1c0,0-0.1,0-0.1,0h-2.9v2.7h3.5c0,0,0.1,0,0.1,0s0.1,0.1,0.1,0.1c0,0.1,0,0.1,0.1,0.2
		C270.8,489,270.8,489.1,270.8,489.3z"/>
	<path class="st5" d="M278.1,487.1c0,0.5-0.1,0.9-0.3,1.3s-0.4,0.7-0.8,1c-0.3,0.3-0.7,0.4-1.1,0.6c-0.4,0.1-0.9,0.2-1.4,0.2
		c-0.3,0-0.6,0-0.9-0.1c-0.3-0.1-0.5-0.1-0.8-0.2c-0.2-0.1-0.4-0.2-0.5-0.2s-0.3-0.2-0.3-0.2c-0.1-0.1-0.1-0.2-0.1-0.3s0-0.3,0-0.5
		c0-0.2,0-0.3,0-0.4c0-0.1,0-0.2,0-0.3c0-0.1,0.1-0.1,0.1-0.1s0.1,0,0.1,0c0.1,0,0.2,0,0.3,0.1c0.1,0.1,0.3,0.2,0.5,0.3
		s0.4,0.2,0.7,0.3c0.3,0.1,0.6,0.1,1,0.1c0.2,0,0.5,0,0.6-0.1c0.2-0.1,0.3-0.1,0.5-0.2c0.1-0.1,0.2-0.2,0.3-0.4s0.1-0.3,0.1-0.5
		c0-0.2-0.1-0.4-0.2-0.6c-0.1-0.2-0.3-0.3-0.5-0.4s-0.4-0.2-0.6-0.3c-0.2-0.1-0.5-0.2-0.7-0.3c-0.3-0.1-0.5-0.3-0.7-0.4
		c-0.2-0.2-0.5-0.3-0.6-0.5s-0.3-0.5-0.5-0.7s-0.2-0.6-0.2-1c0-0.5,0.1-0.9,0.3-1.2c0.2-0.3,0.4-0.6,0.7-0.9c0.3-0.2,0.6-0.4,1-0.5
		c0.4-0.1,0.8-0.2,1.3-0.2c0.2,0,0.5,0,0.7,0.1c0.2,0,0.4,0.1,0.6,0.1c0.2,0.1,0.4,0.1,0.5,0.2c0.2,0.1,0.3,0.1,0.3,0.2
		c0,0,0.1,0.1,0.1,0.1c0,0,0,0.1,0,0.1c0,0.1,0,0.1,0,0.2s0,0.2,0,0.3c0,0.1,0,0.3,0,0.4s0,0.2,0,0.2c0,0.1,0,0.1-0.1,0.1
		s-0.1,0-0.1,0c-0.1,0-0.1,0-0.3-0.1s-0.3-0.1-0.4-0.2c-0.2-0.1-0.4-0.2-0.6-0.2c-0.2-0.1-0.5-0.1-0.7-0.1c-0.2,0-0.4,0-0.6,0.1
		c-0.2,0.1-0.3,0.1-0.4,0.2s-0.2,0.2-0.2,0.3c-0.1,0.1-0.1,0.3-0.1,0.4c0,0.2,0.1,0.4,0.2,0.6c0.1,0.2,0.3,0.3,0.5,0.4
		s0.4,0.2,0.7,0.3c0.2,0.1,0.5,0.2,0.8,0.3c0.3,0.1,0.5,0.3,0.8,0.4c0.2,0.2,0.5,0.3,0.7,0.5c0.2,0.2,0.3,0.5,0.5,0.7
		C278,486.4,278.1,486.8,278.1,487.1z"/>
</g>
<g>
	<path class="st5" d="M377.4,485.3c0,0.5-0.1,0.9-0.3,1.3s-0.4,0.7-0.8,1c-0.3,0.3-0.7,0.4-1.1,0.6c-0.4,0.1-0.9,0.2-1.4,0.2
		c-0.3,0-0.6,0-0.9-0.1c-0.3-0.1-0.5-0.1-0.8-0.2c-0.2-0.1-0.4-0.2-0.5-0.2s-0.3-0.2-0.3-0.2c-0.1-0.1-0.1-0.2-0.1-0.3s0-0.3,0-0.5
		c0-0.2,0-0.3,0-0.4c0-0.1,0-0.2,0-0.3c0-0.1,0.1-0.1,0.1-0.1s0.1,0,0.1,0c0.1,0,0.2,0,0.3,0.1c0.1,0.1,0.3,0.2,0.5,0.3
		s0.4,0.2,0.7,0.3c0.3,0.1,0.6,0.1,1,0.1c0.2,0,0.5,0,0.6-0.1c0.2-0.1,0.3-0.1,0.5-0.2c0.1-0.1,0.2-0.2,0.3-0.4s0.1-0.3,0.1-0.5
		c0-0.2-0.1-0.4-0.2-0.6c-0.1-0.2-0.3-0.3-0.5-0.4s-0.4-0.2-0.6-0.3c-0.2-0.1-0.5-0.2-0.7-0.3c-0.3-0.1-0.5-0.3-0.7-0.4
		c-0.2-0.2-0.5-0.3-0.6-0.5s-0.3-0.5-0.5-0.7s-0.2-0.6-0.2-1c0-0.5,0.1-0.9,0.3-1.2c0.2-0.3,0.4-0.6,0.7-0.9c0.3-0.2,0.6-0.4,1-0.5
		c0.4-0.1,0.8-0.2,1.3-0.2c0.2,0,0.5,0,0.7,0.1c0.2,0,0.4,0.1,0.6,0.1c0.2,0.1,0.4,0.1,0.5,0.2c0.2,0.1,0.3,0.1,0.3,0.2
		c0,0,0.1,0.1,0.1,0.1c0,0,0,0.1,0,0.1c0,0.1,0,0.1,0,0.2s0,0.2,0,0.3c0,0.1,0,0.3,0,0.4s0,0.2,0,0.2c0,0.1,0,0.1-0.1,0.1
		s-0.1,0-0.1,0c-0.1,0-0.1,0-0.3-0.1s-0.3-0.1-0.4-0.2c-0.2-0.1-0.4-0.2-0.6-0.2c-0.2-0.1-0.5-0.1-0.7-0.1c-0.2,0-0.4,0-0.6,0.1
		c-0.2,0.1-0.3,0.1-0.4,0.2s-0.2,0.2-0.2,0.3c-0.1,0.1-0.1,0.3-0.1,0.4c0,0.2,0.1,0.4,0.2,0.6c0.1,0.2,0.3,0.3,0.5,0.4
		s0.4,0.2,0.7,0.3c0.2,0.1,0.5,0.2,0.8,0.3c0.3,0.1,0.5,0.3,0.8,0.4c0.2,0.2,0.5,0.3,0.7,0.5c0.2,0.2,0.3,0.5,0.5,0.7
		C377.3,484.6,377.4,484.9,377.4,485.3z"/>
	<path class="st5" d="M386.7,484.6c0,0.6-0.1,1.1-0.3,1.6c-0.2,0.5-0.4,0.9-0.8,1.2s-0.8,0.6-1.2,0.7c-0.5,0.2-1.1,0.3-1.7,0.3
		c-0.6,0-1.1-0.1-1.6-0.2s-0.9-0.4-1.2-0.7c-0.3-0.3-0.6-0.7-0.8-1.1c-0.2-0.5-0.3-1-0.3-1.6v-5.8c0,0,0-0.1,0-0.1
		c0,0,0.1-0.1,0.2-0.1c0.1,0,0.2,0,0.3-0.1c0.1,0,0.3,0,0.5,0c0.2,0,0.3,0,0.5,0s0.2,0,0.3,0.1c0.1,0,0.1,0.1,0.2,0.1
		c0,0,0,0.1,0,0.1v5.7c0,0.4,0,0.7,0.1,1c0.1,0.3,0.2,0.5,0.4,0.7c0.2,0.2,0.4,0.3,0.6,0.4c0.2,0.1,0.5,0.1,0.8,0.1
		c0.3,0,0.6,0,0.8-0.1c0.2-0.1,0.4-0.2,0.6-0.4c0.2-0.2,0.3-0.4,0.4-0.7c0.1-0.3,0.1-0.6,0.1-0.9v-5.8c0,0,0-0.1,0-0.1
		c0,0,0.1-0.1,0.2-0.1c0.1,0,0.2,0,0.3-0.1c0.1,0,0.3,0,0.5,0c0.2,0,0.3,0,0.5,0c0.1,0,0.2,0,0.3,0.1c0.1,0,0.1,0.1,0.2,0.1
		c0,0,0,0.1,0,0.1V484.6z"/>
	<path class="st5" d="M395.4,481.5c0,0.5-0.1,1-0.3,1.4c-0.2,0.4-0.4,0.8-0.7,1.1c-0.3,0.3-0.7,0.5-1.2,0.6c-0.5,0.1-1,0.2-1.7,0.2
		h-0.8v3.1c0,0,0,0.1,0,0.1c0,0-0.1,0.1-0.2,0.1s-0.2,0-0.3,0.1s-0.3,0-0.5,0c-0.2,0-0.3,0-0.5,0c-0.1,0-0.2,0-0.3-0.1
		s-0.1-0.1-0.2-0.1c0,0,0-0.1,0-0.1v-8.6c0-0.2,0.1-0.4,0.2-0.5c0.1-0.1,0.3-0.2,0.5-0.2h2.3c0.2,0,0.4,0,0.6,0
		c0.2,0,0.5,0.1,0.7,0.1c0.3,0.1,0.6,0.2,0.9,0.3s0.5,0.3,0.8,0.6c0.2,0.2,0.4,0.5,0.5,0.8C395.3,480.7,395.4,481.1,395.4,481.5z
		 M393.4,481.6c0-0.3-0.1-0.6-0.2-0.8c-0.1-0.2-0.3-0.4-0.4-0.5c-0.2-0.1-0.4-0.2-0.5-0.2c-0.2,0-0.4,0-0.6,0h-0.8v3.3h0.9
		c0.3,0,0.6,0,0.8-0.1s0.4-0.2,0.5-0.4c0.1-0.2,0.2-0.3,0.3-0.5C393.3,482.1,393.4,481.9,393.4,481.6z"/>
	<path class="st5" d="M403.5,481.5c0,0.5-0.1,1-0.3,1.4c-0.2,0.4-0.4,0.8-0.7,1.1c-0.3,0.3-0.7,0.5-1.2,0.6s-1,0.2-1.7,0.2h-0.8v3.1
		c0,0,0,0.1,0,0.1c0,0-0.1,0.1-0.2,0.1s-0.2,0-0.3,0.1s-0.3,0-0.5,0c-0.2,0-0.3,0-0.5,0c-0.1,0-0.2,0-0.3-0.1s-0.1-0.1-0.2-0.1
		c0,0,0-0.1,0-0.1v-8.6c0-0.2,0.1-0.4,0.2-0.5c0.1-0.1,0.3-0.2,0.5-0.2h2.3c0.2,0,0.4,0,0.6,0c0.2,0,0.5,0.1,0.7,0.1
		c0.3,0.1,0.6,0.2,0.9,0.3c0.3,0.2,0.5,0.3,0.8,0.6c0.2,0.2,0.4,0.5,0.5,0.8C403.4,480.7,403.5,481.1,403.5,481.5z M401.4,481.6
		c0-0.3-0.1-0.6-0.2-0.8c-0.1-0.2-0.3-0.4-0.4-0.5c-0.2-0.1-0.4-0.2-0.5-0.2c-0.2,0-0.4,0-0.6,0h-0.8v3.3h0.9c0.3,0,0.6,0,0.8-0.1
		c0.2-0.1,0.4-0.2,0.5-0.4c0.1-0.2,0.2-0.3,0.3-0.5C401.4,482.1,401.4,481.9,401.4,481.6z"/>
	<path class="st5" d="M413.6,483.2c0,0.8-0.1,1.5-0.3,2.1c-0.2,0.6-0.5,1.2-0.9,1.6c-0.4,0.4-0.9,0.8-1.5,1c-0.6,0.2-1.2,0.3-2,0.3
		c-0.7,0-1.4-0.1-2-0.3s-1-0.5-1.4-0.9c-0.4-0.4-0.6-0.9-0.8-1.5c-0.2-0.6-0.3-1.4-0.3-2.2c0-0.8,0.1-1.5,0.3-2.1
		c0.2-0.6,0.5-1.1,0.9-1.6s0.9-0.8,1.5-1s1.2-0.3,2-0.3c0.7,0,1.4,0.1,1.9,0.3c0.6,0.2,1,0.5,1.4,0.9c0.4,0.4,0.7,0.9,0.8,1.5
		C413.5,481.7,413.6,482.4,413.6,483.2z M411.6,483.3c0-0.5,0-1-0.1-1.4c-0.1-0.4-0.2-0.8-0.4-1.1c-0.2-0.3-0.4-0.5-0.8-0.7
		c-0.3-0.2-0.7-0.2-1.2-0.2c-0.5,0-0.9,0.1-1.2,0.3s-0.6,0.4-0.8,0.7s-0.3,0.7-0.4,1.1s-0.1,0.8-0.1,1.3c0,0.5,0,1,0.1,1.4
		c0.1,0.4,0.2,0.8,0.4,1.1c0.2,0.3,0.4,0.5,0.8,0.7c0.3,0.2,0.7,0.2,1.2,0.2s0.9-0.1,1.2-0.3c0.3-0.2,0.6-0.4,0.8-0.7
		c0.2-0.3,0.3-0.7,0.4-1.1S411.6,483.8,411.6,483.3z"/>
	<path class="st5" d="M422.4,487.9c0,0.1,0,0.1,0,0.1s-0.1,0.1-0.1,0.1s-0.2,0-0.3,0.1s-0.3,0-0.6,0c-0.2,0-0.4,0-0.5,0
		c-0.1,0-0.2,0-0.3-0.1c-0.1,0-0.1-0.1-0.2-0.1c0,0-0.1-0.1-0.1-0.2l-0.9-2.1c-0.1-0.2-0.2-0.5-0.3-0.6c-0.1-0.2-0.2-0.3-0.3-0.5
		s-0.3-0.2-0.4-0.3c-0.2-0.1-0.3-0.1-0.5-0.1h-0.6v3.7c0,0,0,0.1,0,0.1c0,0-0.1,0.1-0.2,0.1s-0.2,0-0.3,0.1c-0.1,0-0.3,0-0.5,0
		c-0.2,0-0.3,0-0.5,0c-0.1,0-0.2,0-0.3-0.1s-0.1-0.1-0.2-0.1c0,0,0-0.1,0-0.1v-8.7c0-0.2,0.1-0.4,0.2-0.5s0.2-0.1,0.4-0.1h2.5
		c0.3,0,0.5,0,0.6,0s0.3,0,0.4,0c0.4,0.1,0.7,0.1,1,0.3c0.3,0.1,0.6,0.3,0.8,0.5c0.2,0.2,0.4,0.5,0.5,0.8c0.1,0.3,0.2,0.6,0.2,1
		c0,0.3,0,0.6-0.1,0.9s-0.2,0.5-0.4,0.7s-0.4,0.4-0.6,0.5s-0.5,0.3-0.8,0.4c0.1,0.1,0.3,0.2,0.4,0.3c0.1,0.1,0.2,0.2,0.4,0.4
		c0.1,0.1,0.2,0.3,0.3,0.5c0.1,0.2,0.2,0.4,0.3,0.6l0.8,1.9c0.1,0.2,0.1,0.3,0.1,0.4C422.4,487.8,422.4,487.9,422.4,487.9z
		 M419.9,481.4c0-0.3-0.1-0.6-0.2-0.8s-0.4-0.4-0.7-0.5c-0.1,0-0.2,0-0.3-0.1s-0.3,0-0.5,0h-0.9v2.7h1c0.3,0,0.5,0,0.7-0.1
		c0.2-0.1,0.4-0.2,0.5-0.3c0.1-0.1,0.2-0.3,0.3-0.4C419.9,481.8,419.9,481.6,419.9,481.4z"/>
	<path class="st5" d="M430.1,479.4c0,0.1,0,0.3,0,0.4s0,0.2-0.1,0.2c0,0.1-0.1,0.1-0.1,0.1s-0.1,0-0.1,0h-2.4v7.7c0,0,0,0.1,0,0.1
		c0,0-0.1,0.1-0.2,0.1s-0.2,0-0.3,0.1s-0.3,0-0.5,0c-0.2,0-0.3,0-0.5,0c-0.1,0-0.2,0-0.3-0.1s-0.1-0.1-0.2-0.1c0,0,0-0.1,0-0.1v-7.7
		H423c0,0-0.1,0-0.1,0c0,0-0.1-0.1-0.1-0.1c0-0.1,0-0.1-0.1-0.2s0-0.2,0-0.4c0-0.1,0-0.3,0-0.4c0-0.1,0-0.2,0.1-0.2
		c0-0.1,0.1-0.1,0.1-0.1c0,0,0.1,0,0.1,0h6.8c0,0,0.1,0,0.1,0c0,0,0.1,0.1,0.1,0.1c0,0.1,0,0.1,0.1,0.2
		C430.1,479.1,430.1,479.2,430.1,479.4z"/>
</g>
<g>
	<path class="st5" d="M515.7,487.4c0.1,0.2,0.1,0.3,0.1,0.4c0,0.1,0,0.2-0.1,0.2s-0.2,0.1-0.3,0.1c-0.1,0-0.3,0-0.6,0
		c-0.3,0-0.4,0-0.6,0c-0.1,0-0.2,0-0.3,0c-0.1,0-0.1-0.1-0.2-0.1c0,0-0.1-0.1-0.1-0.2l-0.6-1.9h-3.6l-0.6,1.9c0,0.1,0,0.1-0.1,0.2
		c0,0-0.1,0.1-0.2,0.1c-0.1,0-0.2,0-0.3,0.1c-0.1,0-0.3,0-0.5,0c-0.2,0-0.4,0-0.5,0c-0.1,0-0.2-0.1-0.3-0.1c0-0.1-0.1-0.1-0.1-0.2
		c0-0.1,0.1-0.2,0.1-0.4l3-8.5c0-0.1,0.1-0.2,0.1-0.2c0-0.1,0.1-0.1,0.2-0.1c0.1,0,0.2,0,0.4-0.1c0.2,0,0.4,0,0.6,0
		c0.3,0,0.5,0,0.7,0c0.2,0,0.3,0,0.4,0.1c0.1,0,0.2,0.1,0.2,0.1s0.1,0.1,0.1,0.2L515.7,487.4z M511.3,480.4L511.3,480.4l-1.4,4.1
		h2.7L511.3,480.4z"/>
	<path class="st5" d="M523.5,486.7c0,0.1,0,0.2,0,0.3c0,0.1,0,0.2,0,0.2c0,0.1,0,0.1-0.1,0.2c0,0-0.1,0.1-0.1,0.2s-0.2,0.1-0.3,0.2
		s-0.3,0.2-0.6,0.3c-0.2,0.1-0.5,0.1-0.8,0.2c-0.3,0.1-0.6,0.1-0.9,0.1c-0.7,0-1.3-0.1-1.8-0.3s-1-0.5-1.4-0.9s-0.7-0.9-0.9-1.5
		c-0.2-0.6-0.3-1.3-0.3-2.1c0-0.8,0.1-1.5,0.3-2.2c0.2-0.6,0.5-1.2,0.9-1.6s0.9-0.8,1.4-1s1.1-0.3,1.8-0.3c0.3,0,0.5,0,0.8,0.1
		c0.2,0,0.5,0.1,0.7,0.2c0.2,0.1,0.4,0.2,0.6,0.2c0.2,0.1,0.3,0.2,0.4,0.2c0.1,0.1,0.1,0.1,0.1,0.2c0,0,0,0.1,0.1,0.2s0,0.2,0,0.2
		c0,0.1,0,0.2,0,0.3c0,0.1,0,0.3,0,0.4c0,0.1,0,0.2-0.1,0.3s-0.1,0.1-0.1,0.1c0,0-0.1,0-0.1,0c-0.1,0-0.2,0-0.3-0.1
		c-0.1-0.1-0.3-0.2-0.4-0.3c-0.2-0.1-0.4-0.2-0.6-0.3c-0.2-0.1-0.5-0.1-0.9-0.1c-0.4,0-0.7,0.1-1,0.2c-0.3,0.2-0.6,0.4-0.8,0.7
		c-0.2,0.3-0.4,0.6-0.5,1c-0.1,0.4-0.2,0.9-0.2,1.4c0,0.6,0.1,1.1,0.2,1.5s0.3,0.8,0.5,1c0.2,0.3,0.5,0.5,0.8,0.6
		c0.3,0.1,0.6,0.2,1,0.2c0.3,0,0.6,0,0.9-0.1c0.3-0.1,0.5-0.2,0.6-0.3c0.2-0.1,0.3-0.2,0.4-0.3s0.2-0.1,0.3-0.1c0,0,0.1,0,0.1,0
		c0,0,0.1,0.1,0.1,0.1s0,0.1,0,0.2S523.5,486.5,523.5,486.7z"/>
	<path class="st5" d="M531.5,486.7c0,0.1,0,0.2,0,0.3c0,0.1,0,0.2,0,0.2c0,0.1,0,0.1-0.1,0.2c0,0-0.1,0.1-0.1,0.2s-0.2,0.1-0.3,0.2
		s-0.3,0.2-0.6,0.3c-0.2,0.1-0.5,0.1-0.8,0.2c-0.3,0.1-0.6,0.1-0.9,0.1c-0.7,0-1.3-0.1-1.8-0.3s-1-0.5-1.4-0.9s-0.7-0.9-0.9-1.5
		c-0.2-0.6-0.3-1.3-0.3-2.1c0-0.8,0.1-1.5,0.3-2.2c0.2-0.6,0.5-1.2,0.9-1.6s0.9-0.8,1.4-1s1.1-0.3,1.8-0.3c0.3,0,0.5,0,0.8,0.1
		c0.2,0,0.5,0.1,0.7,0.2c0.2,0.1,0.4,0.2,0.6,0.2c0.2,0.1,0.3,0.2,0.4,0.2c0.1,0.1,0.1,0.1,0.1,0.2c0,0,0,0.1,0.1,0.2s0,0.2,0,0.2
		c0,0.1,0,0.2,0,0.3c0,0.1,0,0.3,0,0.4c0,0.1,0,0.2-0.1,0.3s-0.1,0.1-0.1,0.1c0,0-0.1,0-0.1,0c-0.1,0-0.2,0-0.3-0.1
		c-0.1-0.1-0.3-0.2-0.4-0.3c-0.2-0.1-0.4-0.2-0.6-0.3c-0.2-0.1-0.5-0.1-0.9-0.1c-0.4,0-0.7,0.1-1,0.2c-0.3,0.2-0.6,0.4-0.8,0.7
		c-0.2,0.3-0.4,0.6-0.5,1c-0.1,0.4-0.2,0.9-0.2,1.4c0,0.6,0.1,1.1,0.2,1.5s0.3,0.8,0.5,1c0.2,0.3,0.5,0.5,0.8,0.6
		c0.3,0.1,0.6,0.2,1,0.2c0.3,0,0.6,0,0.9-0.1c0.3-0.1,0.5-0.2,0.6-0.3c0.2-0.1,0.3-0.2,0.4-0.3s0.2-0.1,0.3-0.1c0,0,0.1,0,0.1,0
		c0,0,0.1,0.1,0.1,0.1s0,0.1,0,0.2S531.5,486.5,531.5,486.7z"/>
	<path class="st5" d="M541.5,483.2c0,0.8-0.1,1.5-0.3,2.1c-0.2,0.6-0.5,1.2-0.9,1.6c-0.4,0.4-0.9,0.8-1.5,1c-0.6,0.2-1.2,0.3-2,0.3
		c-0.7,0-1.4-0.1-2-0.3s-1-0.5-1.4-0.9s-0.6-0.9-0.8-1.5s-0.3-1.4-0.3-2.2c0-0.8,0.1-1.5,0.3-2.1c0.2-0.6,0.5-1.1,0.9-1.6
		s0.9-0.8,1.5-1c0.6-0.2,1.2-0.3,2-0.3c0.7,0,1.4,0.1,1.9,0.3c0.6,0.2,1,0.5,1.4,0.9c0.4,0.4,0.7,0.9,0.8,1.5
		S541.5,482.4,541.5,483.2z M539.4,483.3c0-0.5,0-1-0.1-1.4s-0.2-0.8-0.4-1.1c-0.2-0.3-0.4-0.5-0.8-0.7c-0.3-0.2-0.7-0.2-1.2-0.2
		c-0.5,0-0.9,0.1-1.2,0.3c-0.3,0.2-0.6,0.4-0.8,0.7c-0.2,0.3-0.3,0.7-0.4,1.1c-0.1,0.4-0.1,0.8-0.1,1.3c0,0.5,0,1,0.1,1.4
		s0.2,0.8,0.4,1.1c0.2,0.3,0.4,0.5,0.8,0.7c0.3,0.2,0.7,0.2,1.2,0.2c0.5,0,0.9-0.1,1.2-0.3c0.3-0.2,0.6-0.4,0.8-0.7s0.3-0.7,0.4-1.1
		C539.4,484.2,539.4,483.8,539.4,483.3z"/>
	<path class="st5" d="M550.9,484.6c0,0.6-0.1,1.1-0.3,1.6c-0.2,0.5-0.4,0.9-0.8,1.2c-0.3,0.3-0.8,0.6-1.2,0.7
		c-0.5,0.2-1.1,0.3-1.7,0.3c-0.6,0-1.1-0.1-1.6-0.2c-0.5-0.2-0.9-0.4-1.2-0.7c-0.3-0.3-0.6-0.7-0.8-1.1c-0.2-0.5-0.3-1-0.3-1.6v-5.8
		c0,0,0-0.1,0-0.1c0,0,0.1-0.1,0.2-0.1c0.1,0,0.2,0,0.3-0.1c0.1,0,0.3,0,0.5,0c0.2,0,0.3,0,0.5,0c0.1,0,0.2,0,0.3,0.1
		c0.1,0,0.1,0.1,0.2,0.1c0,0,0,0.1,0,0.1v5.7c0,0.4,0,0.7,0.1,1c0.1,0.3,0.2,0.5,0.4,0.7c0.2,0.2,0.4,0.3,0.6,0.4
		c0.2,0.1,0.5,0.1,0.8,0.1c0.3,0,0.6,0,0.8-0.1c0.2-0.1,0.4-0.2,0.6-0.4c0.2-0.2,0.3-0.4,0.4-0.7s0.1-0.6,0.1-0.9v-5.8
		c0,0,0-0.1,0-0.1c0,0,0.1-0.1,0.2-0.1c0.1,0,0.2,0,0.3-0.1c0.1,0,0.3,0,0.5,0c0.2,0,0.3,0,0.5,0s0.2,0,0.3,0.1
		c0.1,0,0.1,0.1,0.2,0.1c0,0,0,0.1,0,0.1V484.6z"/>
	<path class="st5" d="M560.9,487.5c0,0.1,0,0.2-0.1,0.3c0,0.1-0.1,0.2-0.2,0.2c-0.1,0.1-0.1,0.1-0.2,0.1c-0.1,0-0.2,0-0.3,0h-0.8
		c-0.2,0-0.3,0-0.4-0.1c-0.1,0-0.2-0.1-0.3-0.2c-0.1-0.1-0.2-0.2-0.3-0.4c-0.1-0.2-0.2-0.4-0.3-0.6l-2.4-4.5
		c-0.1-0.3-0.3-0.6-0.4-0.9c-0.1-0.3-0.3-0.6-0.4-0.9h0c0,0.4,0,0.7,0,1.1s0,0.7,0,1.1v5c0,0,0,0.1,0,0.1c0,0-0.1,0.1-0.1,0.1
		s-0.2,0-0.3,0.1c-0.1,0-0.3,0-0.4,0c-0.2,0-0.3,0-0.4,0c-0.1,0-0.2,0-0.3-0.1s-0.1-0.1-0.1-0.1c0,0,0-0.1,0-0.1v-8.6
		c0-0.2,0.1-0.4,0.2-0.5c0.1-0.1,0.3-0.2,0.5-0.2h1c0.2,0,0.3,0,0.5,0s0.2,0.1,0.3,0.2s0.2,0.2,0.3,0.3s0.2,0.3,0.3,0.5l1.9,3.5
		c0.1,0.2,0.2,0.4,0.3,0.6c0.1,0.2,0.2,0.4,0.3,0.6c0.1,0.2,0.2,0.4,0.3,0.6c0.1,0.2,0.2,0.4,0.3,0.6h0c0-0.3,0-0.7,0-1.1
		c0-0.4,0-0.7,0-1.1v-4.5c0,0,0-0.1,0-0.1c0,0,0.1-0.1,0.1-0.1c0.1,0,0.2-0.1,0.3-0.1c0.1,0,0.3,0,0.4,0c0.2,0,0.3,0,0.4,0
		c0.1,0,0.2,0,0.3,0.1c0.1,0,0.1,0.1,0.1,0.1c0,0,0,0.1,0,0.1V487.5z"/>
	<path class="st5" d="M569.4,479.4c0,0.1,0,0.3,0,0.4c0,0.1,0,0.2-0.1,0.2c0,0.1-0.1,0.1-0.1,0.1c0,0-0.1,0-0.1,0h-2.4v7.7
		c0,0,0,0.1,0,0.1c0,0-0.1,0.1-0.2,0.1s-0.2,0-0.3,0.1s-0.3,0-0.5,0c-0.2,0-0.3,0-0.5,0s-0.2,0-0.3-0.1s-0.1-0.1-0.2-0.1
		c0,0,0-0.1,0-0.1v-7.7h-2.4c0,0-0.1,0-0.1,0c0,0-0.1-0.1-0.1-0.1c0-0.1,0-0.1-0.1-0.2c0-0.1,0-0.2,0-0.4c0-0.1,0-0.3,0-0.4
		c0-0.1,0-0.2,0.1-0.2c0-0.1,0.1-0.1,0.1-0.1c0,0,0.1,0,0.1,0h6.8c0,0,0.1,0,0.1,0c0,0,0.1,0.1,0.1,0.1c0,0.1,0,0.1,0.1,0.2
		C569.4,479.1,569.4,479.2,569.4,479.4z"/>
	<path class="st5" d="M576.2,485.3c0,0.5-0.1,0.9-0.3,1.3c-0.2,0.4-0.4,0.7-0.8,1s-0.7,0.4-1.1,0.6c-0.4,0.1-0.9,0.2-1.4,0.2
		c-0.3,0-0.6,0-0.9-0.1c-0.3-0.1-0.5-0.1-0.8-0.2c-0.2-0.1-0.4-0.2-0.5-0.2s-0.3-0.2-0.3-0.2s-0.1-0.2-0.1-0.3c0-0.1,0-0.3,0-0.5
		c0-0.2,0-0.3,0-0.4c0-0.1,0-0.2,0-0.3s0.1-0.1,0.1-0.1s0.1,0,0.1,0c0.1,0,0.2,0,0.3,0.1c0.1,0.1,0.3,0.2,0.5,0.3
		c0.2,0.1,0.4,0.2,0.7,0.3c0.3,0.1,0.6,0.1,1,0.1c0.2,0,0.5,0,0.6-0.1c0.2-0.1,0.3-0.1,0.5-0.2c0.1-0.1,0.2-0.2,0.3-0.4
		c0.1-0.2,0.1-0.3,0.1-0.5c0-0.2-0.1-0.4-0.2-0.6c-0.1-0.2-0.3-0.3-0.5-0.4s-0.4-0.2-0.6-0.3c-0.2-0.1-0.5-0.2-0.8-0.3
		c-0.3-0.1-0.5-0.3-0.7-0.4c-0.2-0.2-0.5-0.3-0.6-0.5s-0.3-0.5-0.5-0.7c-0.1-0.3-0.2-0.6-0.2-1c0-0.5,0.1-0.9,0.3-1.2
		s0.4-0.6,0.7-0.9c0.3-0.2,0.6-0.4,1-0.5c0.4-0.1,0.8-0.2,1.3-0.2c0.2,0,0.5,0,0.7,0.1c0.2,0,0.4,0.1,0.6,0.1
		c0.2,0.1,0.4,0.1,0.5,0.2c0.2,0.1,0.3,0.1,0.3,0.2c0,0,0.1,0.1,0.1,0.1c0,0,0,0.1,0,0.1c0,0.1,0,0.1,0,0.2c0,0.1,0,0.2,0,0.3
		c0,0.1,0,0.3,0,0.4c0,0.1,0,0.2,0,0.2c0,0.1,0,0.1-0.1,0.1c0,0-0.1,0-0.1,0s-0.1,0-0.3-0.1c-0.1-0.1-0.3-0.1-0.4-0.2
		c-0.2-0.1-0.4-0.2-0.6-0.2c-0.2-0.1-0.5-0.1-0.7-0.1c-0.2,0-0.4,0-0.6,0.1c-0.2,0.1-0.3,0.1-0.4,0.2c-0.1,0.1-0.2,0.2-0.2,0.3
		c-0.1,0.1-0.1,0.3-0.1,0.4c0,0.2,0.1,0.4,0.2,0.6c0.1,0.2,0.3,0.3,0.5,0.4c0.2,0.1,0.4,0.2,0.7,0.3s0.5,0.2,0.8,0.3
		c0.3,0.1,0.5,0.3,0.8,0.4c0.2,0.2,0.5,0.3,0.7,0.5c0.2,0.2,0.3,0.5,0.5,0.7C576.1,484.6,576.2,484.9,576.2,485.3z"/>
</g>
</svg>
