<?xml version="1.0" encoding="utf-8"?>
<!-- Generator: Adobe Illustrator 22.0.1, SVG Export Plug-In . SVG Version: 6.00 Build 0)  -->
<svg version="1.1" id="Layer_1" xmlns="http://www.w3.org/2000/svg" xmlns:xlink="http://www.w3.org/1999/xlink" x="0px" y="0px"
	 viewBox="0 0 307.8 160.8" style="enable-background:new 0 0 307.8 160.8;" xml:space="preserve">
<style type="text/css">
	.st0{opacity:5.000000e-02;fill:#0298FE;enable-background:new    ;}
	.st1{opacity:0.1;fill:#0298FE;enable-background:new    ;}
	.st2{opacity:0.2;fill:#0298FE;enable-background:new    ;}
	.st3{opacity:0.3;fill:#0298FE;enable-background:new    ;}
	.st4{opacity:0.49;}
	.st5{fill:#0298FE;}
	.st6{fill:#C0D4EF;}
	.st7{fill:#476A91;}
	.st8{clip-path:url(#SVGID_2_);}
	.st9{fill:#8AA9D6;}
	.st10{fill:#83A3DC;}
	.st11{fill:#AAC5EF;}
	.st12{clip-path:url(#SVGID_22_);}
	.st13{fill:#2A3D56;}
	.st14{fill:#FFFFFF;}
	.st15{fill:#EA7AC8;}
	.st16{fill:#4182BA;}
	.st17{fill:#7595BC;}
	.st18{fill:#11B7A9;}
	.st19{fill:#FF6C62;}
	.st20{fill:#FFFFFF;stroke:#FFFFFF;stroke-width:0.33;stroke-miterlimit:10;}
	.st21{clip-path:url(#SVGID_24_);}
	.st22{clip-path:url(#SVGID_44_);}
	.st23{clip-path:url(#SVGID_46_);}
	.st24{clip-path:url(#SVGID_66_);}
</style>
<title>Asset 1</title>
<g>
	<ellipse class="st0" cx="214.3" cy="123" rx="69.6" ry="37.2"/>
	<ellipse class="st1" cx="214.3" cy="123" rx="60.9" ry="32.6"/>
	<ellipse class="st2" cx="214.3" cy="123" rx="51.2" ry="27.4"/>
	<ellipse class="st3" cx="214.3" cy="123" rx="41.6" ry="22.2"/>
</g>
<g>
	<ellipse class="st0" cx="192.6" cy="38.2" rx="69.6" ry="37.2"/>
	<ellipse class="st1" cx="192.6" cy="38.2" rx="60.9" ry="32.6"/>
	<ellipse class="st2" cx="192.6" cy="38.2" rx="51.2" ry="27.4"/>
	<ellipse class="st3" cx="192.6" cy="38.2" rx="41.6" ry="22.2"/>
</g>
<g id="Layer_2_1_">
	<g id="Layer_1-2">
		<g>
			<ellipse class="st0" cx="61.3" cy="88.7" rx="68.5" ry="36.6"/>
			<ellipse class="st1" cx="61.3" cy="88.7" rx="60" ry="32.1"/>
			<ellipse class="st2" cx="61.3" cy="88.7" rx="50.4" ry="26.9"/>
			<ellipse class="st3" cx="61.3" cy="88.7" rx="40.9" ry="21.8"/>
		</g>
		<g class="st4">
			<path class="st5" d="M184.7,125.5c0,8,15,14.6,33.4,14.6s33.4-6.6,33.4-14.6s-15-14.6-33.4-14.6S184.7,117.5,184.7,125.5
				L184.7,125.5z"/>
		</g>
		<path class="st6" d="M247,159l30.5-17.7c0.5-0.3,0.9-0.7,1.2-1.2c0.9-1.6,0.4-3.7-1.3-4.6l-80.3-46c-4-2.3-9-2.3-13,0l-30.6,17.6
			c-1.6,0.9-2.2,3-1.2,4.6c0.3,0.5,0.7,0.9,1.2,1.2l80.3,46.1C238,161.4,243,161.4,247,159z"/>
		<circle class="st6" cx="156.4" cy="107.8" r="5.9"/>
		<circle class="st6" cx="274.5" cy="136.2" r="5.9"/>
		<path class="st7" d="M247,154.6l30.5-17.7c0.5-0.3,0.9-0.7,1.2-1.2c0.9-1.6,0.4-3.7-1.3-4.6l-80.3-46c-4-2.3-9-2.3-13,0
			l-30.6,17.6c-1.6,0.9-2.2,3-1.3,4.6c0.3,0.5,0.7,1,1.3,1.3l80.3,46.1C238,157,243,157,247,154.6z"/>
		<g>
			<defs>
				<path id="SVGID_1_" d="M246.8,154l30.1-17.5c0.5-0.3,0.9-0.7,1.2-1.2c0.9-1.6,0.4-3.6-1.2-4.6L197.1,85c-4-2.3-8.9-2.3-12.9,0
					L154,102.4c-0.5,0.3-0.9,0.7-1.2,1.2c-0.9,1.6-0.4,3.6,1.2,4.6l79.8,45.8C237.9,156.3,242.8,156.3,246.8,154z"/>
			</defs>
			<clipPath id="SVGID_2_">
				<use xlink:href="#SVGID_1_"  style="overflow:visible;"/>
			</clipPath>
			<g class="st8">
				
					<image style="overflow:visible;enable-background:new    ;" width="127" height="73" xlink:href="34064434.png"  transform="matrix(1 0 0 1 151.91 83)">
				</image>
			</g>
		</g>
		<path class="st9" d="M272.2,142.3L272.2,142.3c0-0.4-0.4-0.7-0.6-0.5l0,0c-0.2,0.2-0.4,0.6-0.4,0.9l0,0c0,0.4,0.4,0.7,0.7,0.5l0,0
			C272.1,143,272.2,142.6,272.2,142.3z"/>
		<g>
			<defs>
				<path id="SVGID_3_" d="M271.2,142.7c0,0.2,0.1,0.4,0.3,0.5c0,0,0,0,0.1,0c0.2-0.2,0.4-0.6,0.4-0.9c0-0.2-0.1-0.4-0.3-0.5
					c0,0,0,0-0.1,0l0,0C271.3,142,271.2,142.4,271.2,142.7z"/>
			</defs>
			<clipPath id="SVGID_4_">
				<use xlink:href="#SVGID_3_"  style="overflow:visible;"/>
			</clipPath>
		</g>
		<path class="st9" d="M270.6,143.3L270.6,143.3c0-0.4-0.4-0.7-0.6-0.5l0,0c-0.2,0.2-0.4,0.6-0.4,0.9l0,0c0,0.4,0.4,0.7,0.6,0.5l0,0
			C270.4,143.9,270.6,143.6,270.6,143.3z"/>
		<g>
			<defs>
				<path id="SVGID_5_" d="M269.5,143.7c0,0.2,0.1,0.4,0.3,0.5c0,0,0,0,0.1,0c0.2-0.2,0.4-0.6,0.4-0.9c0-0.2-0.1-0.4-0.3-0.5
					c0,0,0,0-0.1,0l0,0C269.7,143,269.5,143.4,269.5,143.7z"/>
			</defs>
			<clipPath id="SVGID_6_">
				<use xlink:href="#SVGID_5_"  style="overflow:visible;"/>
			</clipPath>
		</g>
		<path class="st9" d="M269,144.3L269,144.3c0-0.4-0.4-0.7-0.6-0.5l0,0c-0.2,0.2-0.4,0.6-0.4,0.9l0,0c0,0.4,0.4,0.7,0.6,0.5l0,0
			C268.9,145,269,144.6,269,144.3z"/>
		<g>
			<defs>
				<path id="SVGID_7_" d="M267.9,144.7c0,0.2,0.1,0.4,0.3,0.5c0,0,0,0,0.1,0c0.2-0.2,0.4-0.6,0.4-0.9c0-0.2-0.1-0.4-0.3-0.5
					c0,0,0,0-0.1,0l0,0C268.1,144,267.9,144.4,267.9,144.7z"/>
			</defs>
			<clipPath id="SVGID_8_">
				<use xlink:href="#SVGID_7_"  style="overflow:visible;"/>
			</clipPath>
		</g>
		<path class="st9" d="M261.8,148.3c0,0.4,0.3,0.7,0.6,0.5l0,0l3-1.9l0,0h0.1c0.2-0.2,0.4-0.6,0.4-0.9c0-0.4-0.3-0.7-0.6-0.5l0,0
			l-3,1.9l0,0h-0.1C261.9,147.7,261.8,148,261.8,148.3z"/>
		<path class="st9" d="M261.8,148.3c0,0.4,0.3,0.7,0.6,0.5l0,0l3-1.9l0,0h0.1c0.2-0.2,0.4-0.6,0.4-0.9c0-0.4-0.3-0.7-0.6-0.5l0,0
			l-3,1.9l0,0h-0.1C261.9,147.7,261.8,148,261.8,148.3z"/>
		<g>
			<defs>
				<path id="SVGID_9_" d="M261.9,148.7c0,0,0.1,0,0.1,0l0,0l3-1.9l0,0c0,0,0,0,0,0c0.2-0.2,0.4-0.6,0.4-0.9c0-0.1,0-0.3-0.1-0.4
					c0,0-0.1,0-0.1,0l0,0l-3,1.9l0,0h-0.1c-0.2,0.2-0.4,0.6-0.4,0.9C261.8,148.5,261.8,148.6,261.9,148.7z"/>
			</defs>
			<clipPath id="SVGID_10_">
				<use xlink:href="#SVGID_9_"  style="overflow:visible;"/>
			</clipPath>
		</g>
		<path class="st9" d="M257,151.2L257,151.2c0-0.4-0.4-0.7-0.6-0.5l0,0c-0.2,0.2-0.4,0.6-0.4,0.9l0,0c0,0.5,0.4,0.7,0.7,0.5l0,0
			C256.9,151.8,257,151.5,257,151.2z"/>
		<g>
			<defs>
				<path id="SVGID_11_" d="M256,151.6c0,0.2,0.1,0.4,0.3,0.5h0.1c0.2-0.2,0.4-0.6,0.4-0.9c0-0.2-0.1-0.4-0.3-0.5c0,0,0,0-0.1,0l0,0
					C256.1,150.9,256,151.3,256,151.6z"/>
			</defs>
			<clipPath id="SVGID_12_">
				<use xlink:href="#SVGID_11_"  style="overflow:visible;"/>
			</clipPath>
		</g>
		<path class="st9" d="M255.2,152.2L255.2,152.2c0-0.5-0.4-0.7-0.6-0.5l0,0c-0.2,0.2-0.4,0.6-0.4,0.9l0,0c0,0.5,0.4,0.7,0.6,0.5l0,0
			C255,152.8,255.2,152.5,255.2,152.2z"/>
		<g>
			<defs>
				<path id="SVGID_13_" d="M254.1,152.6c0,0.2,0.1,0.4,0.3,0.5c0,0,0,0,0.1,0c0.2-0.2,0.4-0.6,0.4-0.9c0-0.2-0.1-0.4-0.3-0.5
					c0,0-0.1,0-0.1,0l0,0C254.3,152,254.1,152.3,254.1,152.6z"/>
			</defs>
			<clipPath id="SVGID_14_">
				<use xlink:href="#SVGID_13_"  style="overflow:visible;"/>
			</clipPath>
		</g>
		<path class="st9" d="M253.4,153.2L253.4,153.2c0-0.4-0.4-0.7-0.6-0.5l0,0c-0.2,0.2-0.4,0.6-0.4,0.9l0,0c0,0.4,0.4,0.7,0.6,0.5l0,0
			C253.2,153.8,253.4,153.5,253.4,153.2z"/>
		<g>
			<defs>
				<path id="SVGID_15_" d="M252.4,153.6c0,0.2,0.1,0.4,0.3,0.5c0,0,0.1,0,0.1,0c0.2-0.2,0.4-0.6,0.4-0.9c0-0.2-0.1-0.4-0.3-0.5
					h-0.1l0,0C252.5,153,252.3,153.3,252.4,153.6z"/>
			</defs>
			<clipPath id="SVGID_16_">
				<use xlink:href="#SVGID_15_"  style="overflow:visible;"/>
			</clipPath>
		</g>
		<path class="st9" d="M251.7,154.2L251.7,154.2c0-0.4-0.4-0.7-0.6-0.5l0,0c-0.2,0.2-0.4,0.6-0.4,0.9l0,0c0,0.4,0.4,0.7,0.6,0.5l0,0
			C251.6,154.9,251.8,154.5,251.7,154.2z"/>
		<g>
			<defs>
				<path id="SVGID_17_" d="M250.7,154.6c0,0.2,0.1,0.4,0.3,0.5c0,0,0.1,0,0.1,0c0.2-0.2,0.4-0.6,0.4-0.9c0-0.2-0.1-0.4-0.3-0.5
					c0,0,0,0-0.1,0l0,0C250.8,154,250.7,154.3,250.7,154.6z"/>
			</defs>
			<clipPath id="SVGID_18_">
				<use xlink:href="#SVGID_17_"  style="overflow:visible;"/>
			</clipPath>
		</g>
		<path class="st9" d="M250.1,155.2L250.1,155.2c0-0.4-0.4-0.7-0.6-0.5l0,0c-0.2,0.2-0.4,0.6-0.4,0.9l0,0c0,0.4,0.4,0.7,0.6,0.5l0,0
			C250,155.9,250.1,155.5,250.1,155.2z"/>
		<g>
			<defs>
				<path id="SVGID_19_" d="M249.1,155.6c0,0.2,0.1,0.4,0.3,0.5c0,0,0,0,0.1,0c0.2-0.2,0.4-0.6,0.4-0.9c0-0.2-0.1-0.4-0.3-0.5
					c0,0-0.1,0-0.1,0l0,0C249.2,155,249.1,155.3,249.1,155.6z"/>
			</defs>
			<clipPath id="SVGID_20_">
				<use xlink:href="#SVGID_19_"  style="overflow:visible;"/>
			</clipPath>
		</g>
		<polygon class="st10" points="228.3,151.5 229.7,152.2 229.7,156.6 228.3,155.9 		"/>
		<polygon class="st10" points="158.4,111.3 159.7,112.1 159.7,116.5 158.4,115.7 		"/>
		<ellipse class="st11" cx="255.5" cy="140.5" rx="6.3" ry="2.9"/>
		<g>
			<defs>
				<ellipse id="SVGID_21_" cx="255.5" cy="140.5" rx="5.7" ry="2.6"/>
			</defs>
			<clipPath id="SVGID_22_">
				<use xlink:href="#SVGID_21_"  style="overflow:visible;"/>
			</clipPath>
			<g class="st12">
				
					<image style="overflow:visible;enable-background:new    ;" width="13" height="7" xlink:href="34064435.png"  transform="matrix(1 0 0 1 248.91 137)">
				</image>
			</g>
		</g>
		<path class="st13" d="M173.7,97.9l5.9-3.4c0.1,0,0.1-0.1,0.1-0.1c0.1-0.2,0-0.4-0.1-0.5l0,0c-0.4-0.3-1-0.3-1.4,0l-5.9,3.4
			c-0.1,0-0.1,0.1-0.1,0.1c-0.1,0.2,0,0.4,0.1,0.5c0,0,0,0,0,0l0,0C172.7,98.1,173.2,98.1,173.7,97.9z"/>
		<path class="st14" d="M228.4,148.4l-67-37.9l0,0c0-0.1,0-0.1,0-0.2l37.1-21.7c0.2-0.1,0.5-0.1,0.8,0l61.8,35c0,0,5.3,2.9,5.3,2.9
			c0,0.1,0,0.2,0,0.2l-37.1,21.7C229,148.6,228.6,148.6,228.4,148.4z"/>
		<path class="st14" d="M265.7,126.5l-66.7-37.1H199c-0.1,0-0.2,0-0.3,0l-34.4,21c-0.2,0.1-0.2,0.3,0.1,0.4l64.9,36.7
			c0,0,0.5,0.7,0.5,0.7c0.4-0.1,0.7-0.3,1-0.6l35.2-20.7C266,126.8,266,126.6,265.7,126.5z"/>
		<path class="st15" d="M231.3,121.2L231.3,121.2C231.3,121.2,231.2,121.2,231.3,121.2z"/>
		<g id="Fill-6-2">
			<path class="st14" d="M247.7,128.1c-0.1,0.1,0,0.1,0.1,0.2l0.8,0.3c0.1,0.1,0.2,0.1,0.3,0c1.2-1.2,0.5-2.9-1.5-3.8
				c-0.1-0.1-0.2-0.1-0.4,0l-0.4,0.4c-0.1,0.1,0,0.2,0.1,0.2c0.3,0.1,0.5,0.3,0.7,0.4c0.1,0,0.2,0.1,0.3,0.1l0.8-0.1
				c0.4,0.4,0.6,0.9,0.6,1.5h-0.8c-0.1,0-0.2,0.1-0.2,0.1C247.9,127.7,247.8,127.9,247.7,128.1"/>
			<path class="st14" d="M248.5,128.7l-0.8-0.4c-0.1,0-0.2-0.1-0.2-0.2c0-0.1,0-0.1,0.1-0.2l0,0c0.1-0.1,0.2-0.3,0.3-0.5
				c0-0.1,0.1-0.1,0.3-0.2l0.7-0.1c0-0.5-0.2-0.9-0.5-1.3l-0.7,0.1c-0.1,0-0.2,0-0.3-0.1c-0.2-0.2-0.4-0.3-0.7-0.4
				c-0.1,0-0.1-0.1-0.2-0.2c0-0.1,0-0.1,0.1-0.2l0.4-0.4c0.1-0.1,0.3-0.1,0.4,0c1,0.4,1.8,1.2,2.1,2.3c0.1,0.6-0.1,1.3-0.6,1.7
				c-0.1,0.1-0.2,0.1-0.3,0.1C248.6,128.8,248.5,128.8,248.5,128.7z M247.1,124.9l-0.5,0.4c0,0,0,0,0.1,0.1c0.3,0.1,0.5,0.3,0.7,0.4
				c0.1,0,0.1,0,0.2,0l0.8-0.1l0,0c0.4,0.4,0.6,1,0.6,1.6v0.1l-0.8,0.1h-0.1l0,0c-0.1,0.2-0.2,0.4-0.4,0.5l-0.1-0.1l0.1,0.1
				c0,0,0,0,0.1,0.1l0.8,0.3c0.1,0,0.2,0,0.2,0c0.4-0.4,0.6-1,0.6-1.5c-0.3-1-1-1.8-2-2.1c0,0-0.1,0-0.1,0
				C247.2,124.8,247.1,124.9,247.1,124.9z"/>
		</g>
		<path class="st14" d="M231.5,136.5l0.2,0.1c0.2,0.1,0.5,0.1,0.7,0l0.1-0.1l0.6-0.6c0.1-0.1,0.1-0.3-0.1-0.4l-0.2-0.1
			c-0.1,0-0.1-0.1,0-0.1c0.4-0.5,1.1-0.9,1.7-1l0,0c0.1,0,0.1,0,0.2,0l0.2,0.1l0.1,0.1c0.2,0.1,0.4,0.1,0.6,0l1-0.3h0.1
			c0.2-0.1,0.2-0.3,0-0.4l-0.2-0.1l-0.2-0.1c-0.6-0.2-1.3-0.2-1.9-0.1c-1.3,0.2-2.5,0.9-3.4,1.9
			C230.8,135.8,230.9,136.2,231.5,136.5z"/>
		<ellipse class="st16" cx="208" cy="115.1" rx="15" ry="6.7"/>
		<ellipse class="st5" cx="208" cy="114" rx="15" ry="6.7"/>
		<path class="st15" d="M219.7,127.7L219.7,127.7L219.7,127.7z"/>
		<path class="st17" d="M186.1,109c-0.3,0.1-0.5,0.1-0.8,0c-0.3,0-0.5-0.1-0.8-0.3c-0.2-0.1-0.3-0.2-0.4-0.4c-0.1-0.1-0.1-0.3,0-0.5
			c0.1-0.2,0.3-0.4,0.5-0.5c0.2-0.1,0.4-0.2,0.6-0.2c0.2-0.1,0.4-0.1,0.6-0.1l0.1,0.3c-0.2,0-0.4,0-0.5,0.1c-0.1,0-0.3,0.1-0.4,0.2
			c-0.2,0.1-0.4,0.3-0.4,0.4c0,0.2,0.1,0.3,0.4,0.5c0.2,0.1,0.5,0.2,0.8,0.2c0.3,0,0.5-0.1,0.8-0.2c0.1-0.1,0.2-0.2,0.3-0.3
			c0.1-0.1,0.1-0.2,0.2-0.3l0.4,0.1c0,0.1-0.1,0.2-0.2,0.3c-0.1,0.1-0.3,0.2-0.4,0.3C186.6,108.8,186.3,108.9,186.1,109z"/>
		<path class="st17" d="M187.9,106.4c0.2,0,0.5,0,0.7,0.2l0.9,0.5l-0.4,0.3l-0.2-0.1c0,0.1,0,0.2,0,0.2c-0.1,0.1-0.1,0.2-0.2,0.2
			c-0.1,0.1-0.2,0.1-0.4,0.2c-0.1,0-0.3,0-0.4,0c-0.1,0-0.2,0-0.3-0.1c-0.1-0.1-0.2-0.1-0.2-0.2c0-0.1,0.1-0.2,0.2-0.3
			c0.2-0.1,0.4-0.3,0.6-0.4l0.1-0.1h-0.1c-0.1-0.1-0.2-0.1-0.3-0.1c-0.1,0-0.2,0-0.3,0.1c-0.1,0.1-0.2,0.1-0.3,0.2
			c-0.1,0.1-0.1,0.2-0.2,0.2l-0.4-0.1c0.1-0.1,0.1-0.2,0.2-0.3c0.1-0.1,0.2-0.2,0.4-0.3C187.5,106.5,187.7,106.4,187.9,106.4z
			 M188.6,107.2c0-0.1,0-0.2-0.1-0.2h-0.1h-0.1c-0.1,0.1-0.2,0.1-0.4,0.2c-0.1,0-0.1,0.1-0.1,0.2c0,0,0,0.1,0.1,0.1
			c0.1,0,0.2,0,0.2,0c0.1,0,0.2,0,0.3-0.1C188.5,107.4,188.6,107.3,188.6,107.2L188.6,107.2z"/>
		<path class="st17" d="M190,106.8l-2.2-1.3l0.4-0.3l2.2,1.3L190,106.8z"/>
		<path class="st17" d="M190.9,106.3l-2.2-1.3l0.4-0.3l2.2,1.3L190.9,106.3z"/>
		<path class="st17" d="M191.8,104l0.5-0.3l0.3,0.2l-0.5,0.3l1.2,0.7l-0.4,0.3l-1.2-0.7l-0.3,0.2l-0.3-0.2l0.3-0.2
			c-0.2-0.1-0.3-0.3-0.3-0.4c0.1-0.2,0.2-0.4,0.4-0.5l0.2-0.1l0.3,0.2l-0.2,0.1c-0.1,0-0.2,0.1-0.2,0.2
			C191.6,103.8,191.7,103.9,191.8,104L191.8,104z"/>
		<path class="st17" d="M194,103l-0.2,0.2c-0.3,0.2-0.3,0.3-0.1,0.5l0.8,0.5l-0.4,0.3l-1.5-0.9l0.4-0.3l0.3,0.2
			c-0.1-0.2,0-0.3,0.3-0.5l0.1-0.1L194,103z"/>
		<path class="st17" d="M195.7,103.4c-0.2,0-0.4,0-0.6,0c-0.2,0-0.4-0.1-0.5-0.2c-0.1-0.1-0.2-0.2-0.3-0.3c-0.1-0.1-0.1-0.2,0-0.3
			c0.1-0.1,0.2-0.3,0.4-0.3c0.2-0.1,0.4-0.2,0.6-0.2c0.2,0,0.4,0,0.6,0c0.2,0,0.4,0.1,0.5,0.2c0.1,0.1,0.2,0.2,0.3,0.3
			c0.1,0.1,0.1,0.2,0,0.3c-0.1,0.1-0.2,0.3-0.4,0.3C196.1,103.3,195.9,103.4,195.7,103.4z M196.1,102.8c0-0.1-0.1-0.2-0.3-0.3
			c-0.1-0.1-0.3-0.1-0.5-0.2c-0.2,0-0.3,0-0.5,0.1c-0.1,0.1-0.2,0.2-0.2,0.3s0.1,0.2,0.3,0.3c0.1,0.1,0.3,0.1,0.5,0.2
			c0.2,0,0.3,0,0.5-0.1C196.1,102.9,196.1,102.8,196.1,102.8z"/>
		<path class="st17" d="M198.6,100.2c0.2,0,0.4,0.1,0.6,0.2l0.9,0.5l-0.4,0.3l-0.9-0.5c-0.1-0.1-0.2-0.1-0.3-0.1
			c-0.1,0-0.2,0-0.3,0.1c-0.1,0.1-0.2,0.1-0.2,0.2c0,0.1,0.1,0.2,0.2,0.2l0.9,0.5l-0.4,0.3l-0.9-0.5c-0.1-0.1-0.2-0.1-0.3-0.1
			c-0.1,0-0.2,0-0.3,0.1c-0.1,0-0.2,0.1-0.2,0.2c0,0.1,0.1,0.2,0.2,0.2l0.9,0.5l-0.4,0.3l-1.5-0.9l0.4-0.3l0.2,0.1
			c0-0.1,0-0.2,0-0.2c0.1-0.1,0.2-0.2,0.3-0.2c0.2-0.2,0.5-0.2,0.8-0.2c0-0.1,0-0.2,0-0.3c0.1-0.1,0.2-0.2,0.3-0.2
			C198.1,100.2,198.4,100.2,198.6,100.2z"/>
		<path class="st17" d="M213.1,130.6l0.3,0.1l-0.7,0.4l0.6,0.4l-0.3,0.2l-0.6-0.4l-0.7,0.4l-0.3-0.1l0.7-0.4l-0.6-0.4l0.3-0.2
			l0.6,0.4L213.1,130.6z"/>
		<path class="st17" d="M214.1,129c0.4,0,0.7,0.1,1.1,0.3c0.2,0.1,0.4,0.3,0.5,0.4c0.1,0.1,0.1,0.3,0,0.4c-0.1,0.2-0.2,0.3-0.4,0.4
			c-0.2,0.1-0.3,0.2-0.5,0.2c-0.2,0.1-0.4,0.1-0.6,0.1l-0.1-0.3c0.3,0,0.6-0.1,0.9-0.2c0.2-0.1,0.3-0.2,0.2-0.4
			c-0.1-0.2-0.2-0.3-0.4-0.4c0.1,0.1,0.1,0.2,0,0.3c-0.1,0.1-0.2,0.2-0.3,0.3c-0.2,0.1-0.3,0.2-0.5,0.2c-0.2,0-0.4,0-0.5,0
			c-0.2,0-0.3-0.1-0.4-0.1c-0.1-0.1-0.2-0.2-0.3-0.3c-0.1-0.1-0.1-0.2,0-0.3c0.1-0.1,0.2-0.2,0.3-0.3
			C213.4,129.1,213.7,129,214.1,129z M214.5,129.6c0-0.1-0.1-0.2-0.2-0.2c-0.1-0.1-0.3-0.1-0.4-0.1c-0.2,0-0.3,0-0.4,0.1
			c-0.1,0-0.2,0.1-0.2,0.2c0,0.1,0.1,0.2,0.2,0.2c0.1,0.1,0.3,0.1,0.4,0.1c0.1,0,0.3-0.1,0.4-0.1
			C214.3,129.8,214.4,129.7,214.5,129.6L214.5,129.6z"/>
		<path class="st17" d="M217.6,128.8l0.6-0.3l0.3,0.2l-1.6,0.9l-0.3-0.2l0.6-0.3l-1.4-0.8l-0.2,0.4l-0.5-0.1l0.4-0.7l0.3-0.2
			L217.6,128.8z"/>
		<path class="st17" d="M220.7,127l0.6-0.3l0.3,0.2l-1.6,0.9l-0.3-0.2l0.6-0.3l-1.4-0.8l-0.2,0.4l-0.5-0.1l0.4-0.7l0.3-0.2
			L220.7,127z"/>
		<path class="st17" d="M223.4,125.4l0.3,0.2l-1.7,1l-0.3-0.2l0.1-1c0-0.1,0-0.2-0.1-0.3c0-0.1-0.1-0.1-0.2-0.2
			c-0.1-0.1-0.2-0.1-0.3-0.1c-0.1,0-0.3,0.1-0.4,0.1c-0.2,0.1-0.4,0.3-0.5,0.5l-0.4-0.1c0-0.1,0.1-0.2,0.2-0.3
			c0.1-0.1,0.3-0.2,0.4-0.3c0.2-0.1,0.5-0.2,0.8-0.3c0.2,0,0.5,0,0.7,0.1c0.1,0.1,0.2,0.1,0.3,0.3c0,0.1,0.1,0.3,0.1,0.4l-0.1,0.7
			L223.4,125.4z"/>
		<path class="st17" d="M224.8,123.9c0.2,0,0.3,0.1,0.5,0.1c0.2,0.1,0.3,0.2,0.2,0.4c-0.1,0.2-0.3,0.4-0.5,0.5
			c-0.2,0.1-0.4,0.2-0.6,0.3c-0.2,0.1-0.4,0.1-0.6,0.1l-0.1-0.3c0.3,0,0.6-0.1,0.9-0.3c0.1-0.1,0.2-0.1,0.3-0.3c0-0.1,0-0.1-0.1-0.2
			c-0.1-0.1-0.2-0.1-0.4-0.1c-0.2,0-0.3,0.1-0.4,0.2l-0.3,0.2l-0.3-0.2l0.3-0.2c0.3-0.2,0.4-0.3,0.2-0.5c-0.1-0.1-0.2-0.1-0.3-0.1
			c-0.1,0-0.3,0.1-0.4,0.1c-0.1,0.1-0.2,0.1-0.3,0.2c-0.1,0.1-0.1,0.2-0.2,0.3l-0.4-0.1c0-0.1,0.1-0.2,0.2-0.3
			c0.1-0.1,0.3-0.2,0.4-0.3c0.2-0.1,0.5-0.2,0.8-0.3c0.2,0,0.5,0,0.7,0.1c0.1,0,0.2,0.1,0.2,0.2c0,0.1,0,0.2-0.1,0.3
			C224.4,123.9,224.6,123.9,224.8,123.9z"/>
		<path class="st17" d="M227.4,122.6l0.3,0.2l-0.4,0.2l0.4,0.3l-0.5,0.3l-0.4-0.3l-1.1,0.7l-0.3-0.2l-0.3-1.5l0.4-0.2l1.5,0.8
			L227.4,122.6z M225.9,123.4l0.7-0.4l-0.9-0.5L225.9,123.4z"/>
		<path class="st17" d="M228.6,121.2c0.2,0,0.4,0,0.5,0c0.2,0,0.3,0.1,0.5,0.2c0.1,0.1,0.2,0.2,0.3,0.3c0,0.1,0,0.2-0.1,0.3
			c-0.1,0.1-0.2,0.3-0.4,0.3c-0.3,0.2-0.7,0.3-1.1,0.3l-0.1-0.3c0.3,0,0.6-0.1,0.9-0.2c0.1-0.1,0.2-0.2,0.3-0.3
			c0-0.1-0.1-0.2-0.2-0.2c-0.1-0.1-0.3-0.1-0.4-0.1c-0.2,0-0.3,0.1-0.4,0.1c-0.1,0-0.2,0.1-0.2,0.2c0,0.1-0.1,0.1-0.1,0.2l-0.3,0.2
			l-1.3-0.7l1.6-0.9l0.3,0.2l-1.1,0.7l0.6,0.3c0.1-0.1,0.2-0.3,0.3-0.3C228.2,121.3,228.4,121.2,228.6,121.2z"/>
		<path class="st17" d="M230.7,119.9c0.2,0,0.4,0,0.5,0c0.2,0,0.3,0.1,0.5,0.2c0.1,0.1,0.2,0.2,0.3,0.3c0,0.1,0,0.2,0,0.3
			c-0.1,0.1-0.2,0.2-0.4,0.3c-0.3,0.2-0.6,0.3-1,0.3c-0.4,0-0.7-0.1-1.1-0.3c-0.2-0.1-0.4-0.2-0.5-0.4c-0.1-0.1-0.1-0.3-0.1-0.4
			c0.1-0.2,0.2-0.3,0.4-0.4c0.2-0.1,0.3-0.2,0.5-0.2c0.2-0.1,0.4-0.1,0.6-0.1l0.1,0.3c-0.3,0-0.6,0.1-0.9,0.2
			c-0.2,0.1-0.3,0.2-0.2,0.4c0.1,0.2,0.2,0.4,0.4,0.4c0-0.1,0-0.2,0-0.3c0.1-0.1,0.2-0.2,0.3-0.3C230.4,120.1,230.6,120,230.7,119.9
			z M231.5,120.6c0-0.1-0.1-0.2-0.2-0.2c-0.1-0.1-0.3-0.1-0.4-0.1c-0.2,0-0.3,0-0.4,0.1c-0.1,0-0.2,0.1-0.2,0.3
			c0,0.1,0.1,0.2,0.2,0.2c0.1,0.1,0.3,0.1,0.4,0.1c0.2,0,0.3-0.1,0.4-0.1C231.4,120.8,231.4,120.7,231.5,120.6z"/>
		<path class="st17" d="M230.5,119l1.8-1l0.3,0.2l0.8,1.8l-0.5,0.3l-0.7-1.7l-1.3,0.7L230.5,119z"/>
		<path class="st17" d="M235.7,117.5c0.2,0,0.3,0,0.5,0.1c0.2,0.1,0.3,0.3,0.2,0.4c-0.1,0.2-0.3,0.4-0.5,0.5
			c-0.3,0.2-0.6,0.3-0.9,0.3c-0.2,0-0.5,0-0.7-0.1c-0.1-0.1-0.2-0.1-0.2-0.3c0-0.1,0.1-0.2,0.2-0.3c-0.2,0.1-0.3,0.1-0.5,0.1
			c-0.1,0-0.3,0-0.4-0.1c-0.2-0.1-0.3-0.2-0.2-0.4c0.1-0.2,0.3-0.4,0.5-0.5c0.2-0.1,0.5-0.2,0.8-0.3c0.2,0,0.5,0,0.7,0.1
			c0.1,0,0.2,0.1,0.2,0.3c0,0.1,0,0.2-0.1,0.3C235.3,117.5,235.5,117.5,235.7,117.5z M235.7,117.8c-0.3-0.1-0.6-0.1-0.9,0.1
			c-0.3,0.2-0.4,0.4-0.2,0.5c0.3,0.1,0.6,0.1,0.9-0.1C235.8,118.1,235.9,118,235.7,117.8z M233.7,117.8c0.1,0.1,0.2,0.1,0.4,0.1
			c0.1,0,0.3-0.1,0.4-0.2c0.1,0,0.2-0.1,0.3-0.2c0-0.1,0-0.2-0.1-0.2c-0.3-0.1-0.5-0.1-0.8,0.1C233.6,117.6,233.5,117.7,233.7,117.8
			L233.7,117.8z"/>
		<path class="st18" d="M223.8,138.8c1.9,2.1,5.9,3.3,9.1,2.6s4.3-2.9,2.4-5s-5.9-3.2-9.1-2.6S221.9,136.7,223.8,138.8z"/>
		<path class="st19" d="M239.7,128.9c1.9,2.1,5.9,3.2,9.1,2.6s4.3-2.9,2.4-5c-1.9-2.1-5.9-3.3-9.1-2.6S237.8,126.8,239.7,128.9z"/>
		<path id="Fill-6-2-2" class="st20" d="M232.1,137.5c-0.3,0.1-0.7,0.2-1,0.3c-0.1,0-0.2,0.1-0.2,0.1l-0.1,0.5
			c-0.9,0.1-1.8,0-2.7-0.2l0.1-0.5c0-0.1,0-0.1-0.1-0.1c-0.3-0.1-0.5-0.2-0.8-0.4c-0.1-0.1-0.3-0.1-0.4,0l-0.8,0.3
			c-0.1,0-0.2,0.1-0.1,0.2c1.6,1.2,4.8,1.4,7.1,0.5c0.1-0.1,0.2-0.1,0.1-0.2l-0.6-0.4C232.3,137.5,232.2,137.5,232.1,137.5"/>
		<path class="st14" d="M246.5,126c-1.4,0.4-2.7,1.2-3.7,2.3c-0.3,0.4-0.2,0.9,0.1,1.2l0.2,0.1l0.1,0.1c0.2,0.1,0.5,0.1,0.7,0
			c0,0,0.1,0,0.1-0.1l0.7-0.7c0.1-0.1,0.1-0.2,0.1-0.3c0,0,0,0,0,0c0,0-0.1-0.1-0.1-0.1l-0.2-0.1c0,0,0-0.1,0-0.1l0,0
			c0.5-0.6,1.2-1,1.9-1.2c0.1,0,0.1,0,0.2,0l0.2,0.1c0.2,0.1,0.5,0.1,0.7,0l1.1-0.4l0.1-0.1c0.2-0.1,0.2-0.3,0.1-0.5l-0.1-0.1
			C247.9,125.9,247.2,125.8,246.5,126z"/>
		<path class="st14" d="M203.3,112.2c1.1-0.7,2.3-1.2,3.6-1.4h0.1c0,0.1,0,0.2,0,0.3l-0.1,0.1c-1,0.2-1.9,0.5-2.7,1
			c-0.2,0.1-0.3,0.2-0.4,0.3c-0.7,0.4-1.1,1.2-1.2,2c0,0,0,0,0,0.1c0,0-0.1,0-0.1,0s-0.3,0-0.5,0.1h-0.1c0-0.8,0.3-1.5,0.9-2
			l0.2-0.2L203.3,112.2z"/>
		<path class="st14" d="M204.2,112.6l0.1-0.1l0.1-0.1c0.4-0.3,0.8-0.5,1.2-0.7c0.5-0.2,0.9-0.3,1.4-0.4h0.1c0,0.1,0,0.2,0,0.3
			l-0.1,0.1c-0.7,0.1-1.3,0.3-1.9,0.7c-0.2,0.1-0.3,0.2-0.4,0.3c-0.4,0.3-0.7,0.7-0.9,1.2c0,0.1,0,0.2,0,0.3l-0.1,0.1
			c-0.2,0-0.4,0-0.6,0.1h-0.1C203.2,113.7,203.6,113,204.2,112.6z"/>
		<path class="st14" d="M202.2,111.8L202.2,111.8c1.2-0.8,2.4-1.4,3.8-1.7l0.7-0.1c0.1,0,0.1,0,0.1,0c0,0.1,0,0.1,0,0.2
			c0,0,0,0,0,0.1c0,0-0.1,0-0.1,0c-0.8,0.1-1.6,0.4-2.4,0.7c-0.5,0.2-1.1,0.5-1.5,0.9c-0.1,0.1-0.3,0.2-0.4,0.3
			c-0.5,0.4-0.8,1-1,1.6c-0.1,0.2-0.1,0.4-0.1,0.7l-0.1,0.1l-0.5,0.1h-0.1c0-0.9,0.4-1.7,1.1-2.4C201.8,112.1,202,112,202.2,111.8z"
			/>
		<path class="st14" d="M207.5,112c0.1-0.1,0.2-0.1,0.3-0.2c0.2-0.1,0.4-0.1,0.6,0c0.1,0.1,0.1,0.2,0,0.3c-0.1,0.1-0.2,0.1-0.3,0.2
			c-0.1,0.1-0.1,0.2-0.1,0.3l0.9,1.5c0.1,0.1,0.2,0.2,0.3,0.2c0.9,0,1.8,0,2.7,0.1c0.3,0,0.6-0.1,0.8-0.2c0,0,0.1-0.1,0.2-0.1
			c0.2-0.1,0.4-0.1,0.6,0c0.1,0,0.1,0.1,0.1,0.2c0,0-0.1,0.1-0.1,0.1l-0.1,0.1l-0.2,0.2l-0.2,0.2l-0.1,0.1c-0.1,0-0.1,0.1-0.2,0.1
			l-3.2-0.1h-0.1l-0.1,0.1v0.1c0.6,1,1.2,2.1,1.9,3.1c0,0.1,0,0.1,0,0.1l-0.2,0.2l-0.5,0.3c-0.2,0.1-0.4,0.2-0.6,0.1
			c-0.1-0.1-0.2-0.2-0.1-0.3l0,0l0.1-0.1c0.1,0,0.1-0.1,0.1-0.2c0.1-0.1,0.1-0.2,0-0.3l-1.7-3c-0.1-0.1-0.2-0.2-0.4-0.2l-2.7-0.1
			c-0.3,0-0.5,0.1-0.7,0.2l-0.1,0.1c-0.1,0.1-0.3,0.1-0.5,0.1c-0.2,0-0.3-0.2-0.2-0.3c0-0.1,0.1-0.1,0.2-0.2l0.5-0.4h0.1
			c1,0,2,0,3,0.1h0.1c0.1,0,0.1,0,0.2,0c0,0,0-0.1,0-0.1l-0.9-1.6c0,0,0-0.1,0-0.1l0.1-0.1l0.1-0.1L207.5,112z"/>
		<g class="st4">
			<path class="st5" d="M36.4,93.7c0,8,15,14.6,33.4,14.6s33.4-6.5,33.4-14.6s-15-14.6-33.4-14.6S36.4,85.6,36.4,93.7L36.4,93.7z"/>
		</g>
		<path class="st6" d="M98.6,127.2l30.5-17.7c0.5-0.3,0.9-0.7,1.2-1.2c0.9-1.6,0.4-3.7-1.3-4.6l-80.3-46c-4-2.3-9-2.3-13,0L5.2,75.2
			C4.7,75.5,4.3,76,4,76.5c-0.9,1.6-0.4,3.7,1.3,4.6l80.3,46.1C89.6,129.5,94.6,129.5,98.6,127.2z"/>
		<circle class="st6" cx="8.1" cy="75.9" r="5.9"/>
		<circle class="st6" cx="126.2" cy="104.3" r="5.9"/>
		<path class="st7" d="M98.6,122.8l30.5-17.7c1.6-0.9,2.2-3,1.2-4.6c-0.3-0.5-0.7-0.9-1.2-1.2l-80.3-46c-4-2.3-9-2.3-13,0L5.2,70.8
			c-0.5,0.3-0.9,0.7-1.2,1.3c-0.9,1.6-0.4,3.7,1.2,4.6l80.3,46.1C89.6,125.1,94.6,125.1,98.6,122.8z"/>
		<g>
			<defs>
				<path id="SVGID_23_" d="M98.4,122.1l30.1-17.5c1.6-0.9,2.1-2.9,1.2-4.5c-0.3-0.5-0.7-0.9-1.2-1.2L48.8,53.2
					c-4-2.3-8.9-2.3-12.9,0L5.7,70.6c-0.5,0.3-0.9,0.7-1.2,1.2c-0.9,1.6-0.4,3.6,1.2,4.6l79.8,45.8
					C89.6,124.5,94.5,124.4,98.4,122.1z"/>
			</defs>
			<clipPath id="SVGID_24_">
				<use xlink:href="#SVGID_23_"  style="overflow:visible;"/>
			</clipPath>
			<g class="st21">
				
					<image style="overflow:visible;enable-background:new    ;" width="127" height="73" xlink:href="34064433.png"  transform="matrix(1 0 0 1 4.905 50.765)">
				</image>
			</g>
		</g>
		<path class="st9" d="M123.8,110.4L123.8,110.4c0-0.4-0.4-0.7-0.7-0.5l0,0c-0.2,0.2-0.4,0.6-0.4,0.9l0,0c0,0.4,0.4,0.7,0.7,0.5l0,0
			C123.7,111.1,123.9,110.8,123.8,110.4z"/>
		<g>
			<defs>
				<path id="SVGID_25_" d="M122.8,110.8c0,0.2,0.1,0.4,0.3,0.5c0,0,0,0,0.1,0c0.2-0.2,0.4-0.6,0.4-0.9c0-0.2-0.1-0.4-0.3-0.5h-0.1
					l0,0C122.9,110.2,122.8,110.5,122.8,110.8z"/>
			</defs>
			<clipPath id="SVGID_26_">
				<use xlink:href="#SVGID_25_"  style="overflow:visible;"/>
			</clipPath>
		</g>
		<path class="st9" d="M122.2,111.4L122.2,111.4c0-0.5-0.4-0.7-0.7-0.5l0,0c-0.2,0.2-0.4,0.6-0.4,0.9l0,0c0,0.4,0.4,0.7,0.7,0.5l0,0
			C122.1,112.1,122.2,111.7,122.2,111.4z"/>
		<g>
			<defs>
				<path id="SVGID_27_" d="M121.2,111.8c0,0.2,0.1,0.4,0.3,0.5c0,0,0,0,0.1,0c0.2-0.2,0.4-0.6,0.4-0.9c0-0.2-0.1-0.4-0.3-0.5
					c0,0,0,0-0.1,0l0,0C121.3,111.2,121.2,111.5,121.2,111.8z"/>
			</defs>
			<clipPath id="SVGID_28_">
				<use xlink:href="#SVGID_27_"  style="overflow:visible;"/>
			</clipPath>
		</g>
		<path class="st9" d="M120.6,112.4L120.6,112.4c0-0.4-0.4-0.7-0.7-0.5l0,0c-0.2,0.2-0.4,0.6-0.4,0.9l0,0c0,0.4,0.4,0.7,0.7,0.5l0,0
			C120.5,113.1,120.6,112.8,120.6,112.4z"/>
		<g>
			<defs>
				<path id="SVGID_29_" d="M119.6,112.8c0,0.2,0.1,0.4,0.3,0.5h0.1c0.2-0.2,0.4-0.6,0.4-0.9c0-0.2-0.1-0.4-0.3-0.5c0,0,0,0-0.1,0
					l0,0C119.7,112.2,119.6,112.5,119.6,112.8z"/>
			</defs>
			<clipPath id="SVGID_30_">
				<use xlink:href="#SVGID_29_"  style="overflow:visible;"/>
			</clipPath>
		</g>
		<path class="st9" d="M113.5,116.5c0,0.4,0.3,0.7,0.6,0.5l0,0l3-1.9l0,0l0,0c0.2-0.2,0.4-0.6,0.4-0.9c0-0.4-0.3-0.7-0.6-0.5l0,0
			l-3,1.9l0,0h-0.1C113.5,115.8,113.4,116.2,113.5,116.5z"/>
		<path class="st9" d="M113.5,116.5c0,0.4,0.3,0.7,0.6,0.5l0,0l3-1.9l0,0l0,0c0.2-0.2,0.4-0.6,0.4-0.9c0-0.4-0.3-0.7-0.6-0.5l0,0
			l-3,1.9l0,0h-0.1C113.5,115.8,113.4,116.2,113.5,116.5z"/>
		<g>
			<defs>
				<path id="SVGID_31_" d="M113.6,116.8c0,0,0.1,0,0.1,0l0,0l3-1.9l0,0h0.1c0.2-0.2,0.4-0.6,0.4-0.9c0-0.1,0-0.3-0.1-0.4h-0.1l0,0
					l-3,1.9l0,0h-0.1c-0.2,0.2-0.4,0.6-0.4,0.9C113.5,116.6,113.5,116.7,113.6,116.8z"/>
			</defs>
			<clipPath id="SVGID_32_">
				<use xlink:href="#SVGID_31_"  style="overflow:visible;"/>
			</clipPath>
		</g>
		<path class="st9" d="M108.6,119.3L108.6,119.3c0-0.4-0.4-0.7-0.7-0.5l0,0c-0.2,0.2-0.4,0.6-0.4,0.9l0,0c0,0.4,0.4,0.7,0.7,0.5l0,0
			C108.5,120,108.7,119.7,108.6,119.3z"/>
		<g>
			<defs>
				<path id="SVGID_33_" d="M107.6,119.7c0,0.2,0.1,0.4,0.3,0.5c0,0,0.1,0,0.1,0c0.2-0.2,0.4-0.6,0.4-0.9c0-0.2-0.1-0.4-0.3-0.5H108
					l0,0C107.7,119.1,107.6,119.4,107.6,119.7z"/>
			</defs>
			<clipPath id="SVGID_34_">
				<use xlink:href="#SVGID_33_"  style="overflow:visible;"/>
			</clipPath>
		</g>
		<path class="st9" d="M106.8,120.3L106.8,120.3c0-0.4-0.4-0.7-0.7-0.5l0,0c-0.2,0.2-0.4,0.6-0.4,0.9l0,0c0,0.4,0.4,0.7,0.7,0.5l0,0
			C106.7,121,106.8,120.7,106.8,120.3z"/>
		<g>
			<defs>
				<path id="SVGID_35_" d="M105.8,120.8c0,0.2,0.1,0.4,0.3,0.5h0.1c0.2-0.2,0.4-0.6,0.4-0.9c0-0.2-0.1-0.4-0.3-0.5c0,0,0,0-0.1,0
					l0,0C105.9,120.1,105.8,120.4,105.8,120.8z"/>
			</defs>
			<clipPath id="SVGID_36_">
				<use xlink:href="#SVGID_35_"  style="overflow:visible;"/>
			</clipPath>
		</g>
		<path class="st9" d="M105,121.3L105,121.3c0-0.4-0.4-0.7-0.7-0.5l0,0c-0.2,0.2-0.4,0.6-0.4,0.9l0,0c0,0.4,0.4,0.7,0.7,0.5l0,0
			C104.9,122,105,121.7,105,121.3z"/>
		<g>
			<defs>
				<path id="SVGID_37_" d="M104,121.8c0,0.2,0.1,0.4,0.3,0.5c0,0,0,0,0.1,0c0.2-0.2,0.4-0.6,0.4-0.9c0-0.2-0.1-0.4-0.3-0.5h-0.1
					l0,0C104.1,121.1,104,121.4,104,121.8z"/>
			</defs>
			<clipPath id="SVGID_38_">
				<use xlink:href="#SVGID_37_"  style="overflow:visible;"/>
			</clipPath>
		</g>
		<path class="st9" d="M103.4,122.3L103.4,122.3c0-0.5-0.4-0.7-0.7-0.5l0,0c-0.2,0.2-0.4,0.6-0.4,0.9l0,0c0,0.5,0.4,0.7,0.7,0.5l0,0
			C103.3,123,103.4,122.7,103.4,122.3z"/>
		<g>
			<defs>
				<path id="SVGID_39_" d="M102.4,122.8c0,0.2,0.1,0.4,0.3,0.5h0.1c0.2-0.2,0.4-0.6,0.4-0.9c0-0.2-0.1-0.4-0.3-0.5c0,0,0,0-0.1,0
					l0,0C102.5,122.1,102.4,122.4,102.4,122.8z"/>
			</defs>
			<clipPath id="SVGID_40_">
				<use xlink:href="#SVGID_39_"  style="overflow:visible;"/>
			</clipPath>
		</g>
		<path class="st9" d="M101.8,123.4L101.8,123.4c0-0.5-0.4-0.7-0.7-0.5l0,0c-0.2,0.2-0.4,0.6-0.4,0.9l0,0c0,0.5,0.4,0.7,0.7,0.5l0,0
			C101.7,124,101.8,123.7,101.8,123.4z"/>
		<g>
			<defs>
				<path id="SVGID_41_" d="M100.8,123.8c0,0.2,0.1,0.4,0.3,0.5c0,0,0,0,0.1,0c0.2-0.2,0.4-0.6,0.4-0.9c0-0.2-0.1-0.4-0.3-0.5
					c0,0,0,0-0.1,0l0,0C100.9,123.1,100.8,123.4,100.8,123.8z"/>
			</defs>
			<clipPath id="SVGID_42_">
				<use xlink:href="#SVGID_41_"  style="overflow:visible;"/>
			</clipPath>
		</g>
		<polygon class="st10" points="80,119.6 81.3,120.4 81.3,124.8 80,124 		"/>
		<polygon class="st10" points="10,79.4 11.4,80.2 11.4,84.6 10,83.9 		"/>
		<ellipse class="st11" cx="107.2" cy="108.6" rx="6.3" ry="2.9"/>
		<g>
			<defs>
				<ellipse id="SVGID_43_" cx="107.2" cy="108.6" rx="5.7" ry="2.6"/>
			</defs>
			<clipPath id="SVGID_44_">
				<use xlink:href="#SVGID_43_"  style="overflow:visible;"/>
			</clipPath>
			<g class="st22">
				
					<image style="overflow:visible;enable-background:new    ;" width="13" height="6" xlink:href="3406443C.png"  transform="matrix(1 0 0 1 100.91 106)">
				</image>
			</g>
		</g>
		<path class="st13" d="M25.3,66l5.9-3.4c0.1,0,0.1-0.1,0.1-0.1c0.1-0.2,0-0.4-0.1-0.5l0,0c-0.4-0.3-1-0.3-1.4,0l-5.9,3.4
			c-0.1,0-0.1,0.1-0.1,0.1c-0.1,0.2,0,0.4,0.1,0.5c0,0,0,0,0,0l0,0C24.3,66.3,24.9,66.3,25.3,66z"/>
		<path class="st14" d="M80.1,116.6L13,78.7l0,0c0-0.1,0-0.1,0-0.2l37.1-21.7c0.2-0.1,0.5-0.1,0.8,0l61.8,35l5.3,2.9
			c0,0.1,0,0.1,0,0.2l-37.1,21.7C80.6,116.7,80.3,116.7,80.1,116.6z"/>
		<path class="st14" d="M117.4,94.6L50.7,57.5h-0.1c-0.1,0-0.2,0-0.3,0l-34.5,21c-0.2,0.1-0.2,0.3,0.1,0.4l64.9,36.7
			c0,0,0.5,0.7,0.5,0.7c0.4-0.1,0.7-0.3,1-0.6l35.2-20.7C117.7,94.9,117.7,94.8,117.4,94.6z"/>
		<path class="st15" d="M82.9,89.3L82.9,89.3C82.9,89.3,82.9,89.3,82.9,89.3z"/>
		<g id="Fill-6-2-3">
			<path class="st14" d="M99.3,96.2c-0.1,0.1,0,0.2,0.1,0.2l0.8,0.3c0.1,0.1,0.2,0.1,0.3,0c1.2-1.2,0.6-2.9-1.5-3.8
				c-0.1-0.1-0.2-0.1-0.3,0l-0.4,0.4c-0.1,0.1,0,0.2,0.1,0.2c0.3,0.1,0.5,0.2,0.7,0.4c0.1,0.1,0.2,0.1,0.3,0.1l0.8-0.1
				c0.4,0.4,0.6,0.9,0.6,1.5l-0.8,0.1c-0.1,0-0.2,0-0.2,0.1C99.6,95.9,99.5,96,99.3,96.2"/>
			<path class="st14" d="M100.2,96.8l-0.8-0.3c-0.1,0-0.2-0.1-0.2-0.2c0-0.1,0-0.1,0.1-0.2l0,0c0.1-0.1,0.2-0.3,0.3-0.4
				c0-0.1,0.1-0.2,0.3-0.2h0.7c0-0.5-0.2-1-0.5-1.3h-0.7c-0.1,0-0.2,0-0.3-0.1c-0.2-0.2-0.4-0.3-0.7-0.4c-0.1-0.1-0.2-0.1-0.2-0.2
				c0-0.1,0-0.1,0.1-0.2l0.4-0.4c0.1-0.1,0.3-0.1,0.4,0c1,0.4,1.8,1.2,2.1,2.2c0.1,0.6-0.1,1.3-0.6,1.7c-0.1,0.1-0.2,0.1-0.3,0.1
				C100.3,96.9,100.2,96.9,100.2,96.8z M98.8,93l-0.4,0.4c0,0,0,0,0.1,0.1c0.3,0.1,0.5,0.3,0.7,0.4c0.1,0,0.1,0,0.2,0l0.8-0.1l0,0
				c0.4,0.4,0.6,1,0.6,1.5v0.1l-0.8,0.1h-0.1l0,0c-0.1,0.2-0.2,0.4-0.4,0.5l-0.1,0l0.1,0.1c0,0,0,0,0.1,0.1l0.8,0.3
				c0.1,0,0.2,0,0.2,0c0.4-0.4,0.6-0.9,0.5-1.5c-0.3-1-1-1.8-2-2.1c0,0-0.1,0-0.1,0C98.8,93,98.8,93,98.8,93z"/>
		</g>
		<path class="st14" d="M83.2,104.7l0.2,0.1c0.2,0.1,0.5,0.1,0.7,0l0.1-0.1l0.6-0.6c0.1-0.1,0.1-0.3-0.1-0.4l-0.2-0.1
			c-0.1,0-0.1-0.1,0-0.1c0.5-0.5,1.1-0.9,1.7-1l0,0c0.1,0,0.1,0,0.2,0l0.2,0.1h0.1c0.2,0.1,0.4,0.1,0.6,0l1-0.3h0.1
			c0.2-0.1,0.2-0.3,0-0.4l-0.2-0.1c-0.1,0-0.1-0.1-0.2-0.1c-0.6-0.2-1.3-0.2-1.9-0.1c-1.3,0.2-2.5,0.9-3.4,1.9
			C82.4,103.9,82.6,104.3,83.2,104.7z"/>
		<ellipse class="st16" cx="59.7" cy="83.2" rx="15" ry="6.7"/>
		<ellipse class="st5" cx="59.7" cy="82.1" rx="15" ry="6.7"/>
		<path class="st15" d="M71.4,95.8L71.4,95.8L71.4,95.8z"/>
		<path class="st17" d="M37.7,77.2c-0.3,0.1-0.5,0.1-0.8,0c-0.3,0-0.5-0.1-0.8-0.3c-0.2-0.1-0.3-0.2-0.5-0.4c-0.1-0.2-0.1-0.3,0-0.5
			c0.1-0.2,0.3-0.4,0.5-0.5c0.2-0.1,0.4-0.2,0.5-0.3c0.2-0.1,0.4-0.1,0.6-0.1l0.1,0.3c-0.2,0-0.3,0.1-0.5,0.1
			c-0.1,0-0.3,0.1-0.4,0.2c-0.2,0.1-0.4,0.3-0.4,0.4c0,0.2,0.1,0.3,0.4,0.5c0.2,0.1,0.5,0.2,0.8,0.2c0.4,0,0.8-0.2,1.1-0.5
			c0.1-0.1,0.1-0.2,0.2-0.3l0.5,0.1c0,0.1-0.1,0.2-0.2,0.3c-0.1,0.1-0.3,0.2-0.4,0.3C38.3,77,38,77.1,37.7,77.2z"/>
		<path class="st17" d="M39.6,74.5c0.2,0,0.5,0,0.7,0.2l0.9,0.5l-0.4,0.3l-0.2-0.1c0,0.1,0,0.2,0,0.2c-0.1,0.1-0.1,0.2-0.2,0.2
			c-0.1,0.1-0.2,0.1-0.4,0.2c-0.1,0-0.3,0-0.4,0c-0.1,0-0.2,0-0.3-0.1c-0.1-0.1-0.2-0.1-0.2-0.2c0-0.1,0.1-0.2,0.2-0.3
			c0.2-0.1,0.4-0.3,0.6-0.4l0.1-0.1h-0.1c-0.1-0.1-0.2-0.1-0.3-0.1c-0.1,0-0.2,0-0.3,0.1c-0.1,0.1-0.2,0.1-0.3,0.2
			c-0.1,0.1-0.1,0.2-0.2,0.2l-0.4-0.1c0.1-0.1,0.1-0.2,0.2-0.3c0.1-0.1,0.2-0.2,0.3-0.3C39.1,74.6,39.4,74.6,39.6,74.5z M40.3,75.3
			c0-0.1-0.1-0.2-0.2-0.2h-0.1H40c-0.1,0.1-0.2,0.2-0.4,0.2c-0.1,0-0.1,0.1-0.1,0.2c0,0,0,0.1,0.1,0.1c0.1,0,0.2,0,0.2,0
			c0.1,0,0.2,0,0.3-0.1C40.2,75.5,40.3,75.4,40.3,75.3L40.3,75.3z"/>
		<path class="st17" d="M41.7,75l-2.2-1.3l0.5-0.3l2.2,1.3L41.7,75z"/>
		<path class="st17" d="M42.6,74.4l-2.2-1.3l0.4-0.3l2.2,1.3L42.6,74.4z"/>
		<path class="st17" d="M43.5,72.1l0.5-0.3l0.3,0.2l-0.5,0.3L45,73l-0.5,0.3l-1.2-0.7L43,72.7l-0.3-0.2l0.3-0.2
			c-0.2-0.1-0.3-0.3-0.3-0.4c0.1-0.2,0.2-0.4,0.4-0.5l0.2-0.1l0.3,0.2l-0.2,0.1c-0.1,0-0.2,0.1-0.2,0.2c0,0.1,0,0.1,0.2,0.2
			L43.5,72.1z"/>
		<path class="st17" d="M45.7,71.2l-0.2,0.2c-0.3,0.2-0.3,0.3,0,0.5l0.8,0.5l-0.5,0.3l-1.5-0.9l0.4-0.3l0.3,0.2
			c-0.1-0.2,0-0.3,0.3-0.5l0.1-0.1L45.7,71.2z"/>
		<path class="st17" d="M47.3,71.5c-0.2,0-0.4,0-0.6,0c-0.2,0-0.4-0.1-0.5-0.2c-0.1-0.1-0.2-0.2-0.3-0.3c-0.1-0.1-0.1-0.2,0-0.3
			c0.1-0.1,0.2-0.3,0.4-0.3c0.2-0.1,0.4-0.2,0.6-0.2c0.2,0,0.4,0,0.6,0c0.2,0,0.4,0.1,0.5,0.2c0.1,0.1,0.3,0.2,0.3,0.3
			c0.1,0.1,0.1,0.2,0,0.3c-0.1,0.1-0.2,0.3-0.4,0.3C47.7,71.4,47.5,71.5,47.3,71.5z M47.8,70.9c0-0.1-0.1-0.2-0.3-0.3
			c-0.1-0.1-0.3-0.1-0.5-0.1c-0.2,0-0.3,0-0.5,0.1c-0.1,0.1-0.2,0.2-0.2,0.3s0.1,0.2,0.3,0.3c0.1,0.1,0.3,0.1,0.5,0.1
			c0.2,0,0.3,0,0.5-0.1C47.8,71.1,47.8,71,47.8,70.9L47.8,70.9z"/>
		<path class="st17" d="M50.3,68.3c0.2,0,0.4,0.1,0.6,0.2l0.9,0.5l-0.5,0.3l-0.9-0.5c-0.1-0.1-0.2-0.1-0.3-0.1c-0.1,0-0.2,0-0.3,0.1
			c-0.1,0.1-0.2,0.1-0.2,0.2s0.1,0.2,0.2,0.2l0.9,0.5l-0.5,0.3l-0.9-0.5c-0.1-0.1-0.2-0.1-0.3-0.1c-0.1,0-0.2,0-0.3,0.1
			c-0.1,0-0.2,0.1-0.2,0.2c0,0.1,0.1,0.2,0.2,0.2l0.9,0.5l-0.5,0.3l-1.5-0.9l0.4-0.3l0.2,0.1c0-0.1,0-0.2,0-0.2
			c0.1-0.1,0.1-0.2,0.3-0.2c0.2-0.1,0.5-0.2,0.8-0.2c0-0.1,0-0.2,0-0.3c0.1-0.1,0.2-0.2,0.3-0.2C49.8,68.3,50,68.3,50.3,68.3z"/>
		<path class="st17" d="M64.8,98.8l0.3,0.2l-0.7,0.4l0.6,0.4l-0.3,0.2L64,99.5l-0.7,0.4L63,99.8l0.7-0.4L63.1,99l0.3-0.2l0.6,0.3
			L64.8,98.8z"/>
		<path class="st17" d="M65.8,97.1c0.4,0,0.7,0.1,1.1,0.3c0.2,0.1,0.4,0.3,0.5,0.4c0.1,0.1,0.1,0.3,0,0.4c-0.1,0.2-0.2,0.3-0.4,0.4
			c-0.2,0.1-0.3,0.2-0.5,0.2C66.3,99,66.1,99,65.9,99l-0.1-0.3c0.3,0,0.6-0.1,0.9-0.3c0.2-0.1,0.3-0.2,0.2-0.4
			c-0.1-0.2-0.2-0.3-0.4-0.4c0,0.1,0,0.2,0,0.3c-0.1,0.1-0.2,0.2-0.3,0.3c-0.2,0.1-0.3,0.2-0.5,0.2c-0.2,0-0.4,0-0.5,0
			c-0.2,0-0.3-0.1-0.5-0.2c-0.1-0.1-0.2-0.2-0.3-0.3c0-0.1,0-0.2,0-0.3c0.1-0.1,0.2-0.2,0.3-0.3C65,97.2,65.4,97.1,65.8,97.1z
			 M66.1,97.8c0-0.1-0.1-0.2-0.2-0.2c-0.1-0.1-0.3-0.1-0.4-0.1c-0.2,0-0.3,0-0.4,0.1c-0.1,0-0.2,0.1-0.2,0.3c0,0.1,0.1,0.2,0.2,0.2
			c0.1,0.1,0.3,0.1,0.4,0.1c0.2,0,0.3,0,0.4-0.1C66,98,66.1,97.9,66.1,97.8z"/>
		<path class="st17" d="M69.3,96.9l0.6-0.3l0.3,0.2l-1.6,0.9l-0.3-0.2l0.6-0.3l-1.4-0.8l-0.2,0.4l-0.5-0.1l0.3-0.7l0.3-0.2
			L69.3,96.9z"/>
		<path class="st17" d="M72.4,95.1l0.6-0.3l0.3,0.2l-1.6,0.9l-0.3-0.2l0.6-0.3l-1.4-0.8L70.3,95l-0.5-0.1l0.3-0.7l0.3-0.2L72.4,95.1
			z"/>
		<path class="st17" d="M75.1,93.5l0.3,0.2l-1.7,1l-0.3-0.2l0.1-1c0-0.1,0-0.2,0-0.3c0-0.1-0.1-0.1-0.2-0.2C73.2,93,73.1,93,73,93
			c-0.1,0-0.3,0.1-0.4,0.1c-0.2,0.1-0.4,0.3-0.5,0.5l-0.4-0.1c0-0.1,0.1-0.2,0.2-0.3c0.1-0.1,0.3-0.2,0.4-0.3
			c0.2-0.1,0.5-0.2,0.8-0.3c0.2,0,0.5,0,0.7,0.1c0.1,0.1,0.2,0.1,0.3,0.3c0,0.1,0.1,0.3,0.1,0.4v0.7L75.1,93.5z"/>
		<path class="st17" d="M76.5,92c0.2,0,0.3,0,0.5,0.1c0.2,0.1,0.3,0.3,0.2,0.4c-0.1,0.2-0.3,0.4-0.5,0.5c-0.2,0.1-0.4,0.2-0.6,0.3
			c-0.2,0.1-0.4,0.1-0.6,0.1l-0.1-0.3c0.3,0,0.6-0.1,0.9-0.3c0.1,0,0.2-0.1,0.3-0.3c0-0.1,0-0.2-0.1-0.2c-0.1-0.1-0.2-0.1-0.4-0.1
			c-0.2,0-0.3,0.1-0.4,0.2l-0.3,0.2L75,92.5l0.3-0.2c0.3-0.2,0.4-0.3,0.2-0.5c-0.1-0.1-0.2-0.1-0.3-0.1c-0.1,0-0.3,0.1-0.4,0.1
			c-0.1,0.1-0.2,0.1-0.3,0.2c-0.1,0.1-0.1,0.2-0.2,0.3l-0.4-0.1c0-0.1,0.1-0.2,0.2-0.3c0.1-0.1,0.3-0.2,0.4-0.3
			c0.2-0.1,0.5-0.2,0.8-0.3c0.2,0,0.5,0,0.7,0.1c0.1,0,0.2,0.1,0.2,0.3c0,0.1,0,0.2-0.1,0.3C76.1,92,76.3,92,76.5,92z"/>
		<path class="st17" d="M79.1,90.7l0.3,0.2L79,91.1l0.4,0.2L79,91.6l-0.4-0.3L77.5,92l-0.3-0.2l-0.3-1.5l0.4-0.2l1.5,0.8L79.1,90.7z
			 M77.6,91.6l0.7-0.4l-0.8-0.5L77.6,91.6z"/>
		<path class="st17" d="M80.2,89.3c0.2,0,0.4,0,0.5,0c0.2,0,0.3,0.1,0.5,0.2c0.1,0.1,0.2,0.2,0.3,0.3c0,0.1,0,0.2-0.1,0.3
			c-0.1,0.1-0.3,0.3-0.4,0.3c-0.3,0.2-0.7,0.3-1.1,0.3l-0.1-0.3c0.3,0,0.6-0.1,0.9-0.3c0.1-0.1,0.2-0.1,0.3-0.3c0-0.1,0-0.2-0.2-0.3
			c-0.1-0.1-0.3-0.1-0.4-0.1c-0.2,0-0.3,0.1-0.5,0.1c-0.1,0.1-0.2,0.1-0.2,0.2c0,0.1-0.1,0.1-0.1,0.2l-0.3,0.2L78,89.6l1.6-0.9
			l0.3,0.2l-1.1,0.7l0.6,0.3c0.1-0.1,0.2-0.3,0.3-0.3C79.9,89.5,80,89.4,80.2,89.3z"/>
		<path class="st17" d="M82.4,88.1c0.2,0,0.4,0,0.5,0c0.2,0,0.3,0.1,0.5,0.2c0.1,0.1,0.2,0.2,0.3,0.3c0.1,0.1,0.1,0.2,0,0.3
			c-0.1,0.1-0.2,0.2-0.3,0.3c-0.3,0.2-0.6,0.3-1,0.3c-0.4,0-0.7-0.1-1.1-0.3c-0.2-0.1-0.4-0.2-0.5-0.4c-0.1-0.1-0.1-0.3-0.1-0.4
			c0.1-0.2,0.2-0.3,0.4-0.4c0.2-0.1,0.3-0.2,0.5-0.2c0.2-0.1,0.4-0.1,0.6-0.1l0.1,0.3c-0.3,0-0.6,0.1-0.9,0.3
			c-0.2,0.1-0.3,0.2-0.2,0.4c0.1,0.2,0.2,0.3,0.4,0.4c0-0.1,0-0.2,0-0.3c0.1-0.1,0.2-0.2,0.3-0.3C82.1,88.2,82.2,88.1,82.4,88.1z
			 M83.1,88.7c0-0.1-0.1-0.2-0.2-0.2c-0.1-0.1-0.3-0.1-0.4-0.1c-0.2,0-0.3,0.1-0.4,0.1c-0.1,0-0.2,0.1-0.2,0.3c0,0.1,0,0.2,0.2,0.2
			c0.1,0.1,0.3,0.1,0.4,0.1c0.2,0,0.3,0,0.4-0.1C83,88.9,83.1,88.8,83.1,88.7z"/>
		<path class="st17" d="M82.2,87.2l1.8-1l0.3,0.2l0.7,1.7l-0.5,0.3l-0.7-1.8l-1.3,0.7L82.2,87.2z"/>
		<path class="st17" d="M87.3,85.6c0.2,0,0.3,0,0.5,0.1c0.2,0.1,0.3,0.2,0.2,0.4c-0.1,0.2-0.3,0.4-0.5,0.5c-0.3,0.2-0.6,0.3-0.9,0.3
			c-0.2,0-0.5,0-0.7-0.1c-0.1,0-0.2-0.1-0.2-0.3c0-0.1,0-0.2,0.2-0.3c-0.2,0.1-0.3,0.1-0.5,0.1c-0.1,0-0.3,0-0.4-0.1
			c-0.2-0.1-0.3-0.2-0.2-0.4c0.1-0.2,0.3-0.4,0.5-0.5c0.2-0.2,0.5-0.3,0.8-0.3c0.2,0,0.5,0,0.7,0.1c0.1,0,0.2,0.1,0.2,0.3
			c0,0.1,0,0.2-0.1,0.3C87,85.6,87.2,85.6,87.3,85.6z M87.3,86c-0.3-0.1-0.6-0.1-0.8,0.1c-0.3,0.2-0.4,0.4-0.2,0.5
			c0.3,0.1,0.6,0.1,0.8-0.1C87.5,86.3,87.6,86.1,87.3,86z M85.4,86c0.1,0.1,0.2,0.1,0.4,0.1c0.1,0,0.3-0.1,0.4-0.2
			c0.1-0.1,0.2-0.1,0.3-0.3c0-0.1,0-0.1-0.1-0.2c-0.3-0.1-0.5-0.1-0.8,0.1C85.2,85.7,85.2,85.9,85.4,86z"/>
		<path class="st18" d="M75.4,106.9c1.8,2.1,5.9,3.3,9.1,2.6s4.3-2.9,2.4-5s-6-3.3-9.1-2.6S73.6,104.8,75.4,106.9z"/>
		<path class="st19" d="M91.3,97c1.8,2.1,5.9,3.3,9.1,2.6s4.3-2.9,2.4-5s-5.9-3.3-9.1-2.6S89.5,94.9,91.3,97z"/>
		<path id="Fill-6-2-4" class="st20" d="M83.7,105.6c-0.3,0.1-0.7,0.2-1,0.3c-0.1,0-0.2,0.1-0.2,0.1l-0.1,0.5
			c-0.9,0.1-1.8,0-2.7-0.2l0.1-0.5c0-0.1,0-0.1-0.1-0.2c-0.3-0.1-0.5-0.2-0.8-0.4c-0.1-0.1-0.3-0.1-0.4,0l-0.8,0.3
			c-0.1,0-0.2,0.2-0.1,0.2c2.2,1.2,4.7,1.4,7.1,0.5c0.1-0.1,0.2-0.2,0.1-0.2l-0.6-0.4C84,105.6,83.8,105.6,83.7,105.6"/>
		<path class="st14" d="M98.2,94.2c-1.4,0.4-2.7,1.2-3.7,2.4c-0.3,0.4-0.2,0.9,0.1,1.2c0,0,0.1,0.1,0.2,0.1l0.2,0.1
			c0.2,0.1,0.5,0.1,0.7,0c0,0,0.1,0,0.1-0.1l0.7-0.7c0.1-0.1,0.1-0.3,0-0.4c0,0,0,0,0,0c0,0-0.1-0.1-0.1-0.1l-0.2-0.1
			c0,0,0-0.1,0-0.1l0,0c0.5-0.6,1.1-1.1,1.9-1.3c0.1,0,0.1,0,0.2,0l0.2,0.1c0.2,0.1,0.5,0.1,0.7,0l1.1-0.4l0.1-0.1
			c0.2-0.1,0.2-0.3,0-0.5l-0.2-0.1C99.5,94,98.8,93.9,98.2,94.2z"/>
		<path class="st14" d="M54.9,80.3c1.1-0.7,2.3-1.2,3.6-1.4h0.1c0,0.1,0,0.2,0,0.3l-0.1,0.1c-1,0.2-1.9,0.5-2.7,1
			c-0.2,0.1-0.3,0.2-0.4,0.3c-0.7,0.4-1.1,1.2-1.2,2c0,0,0,0,0,0.1c0,0-0.1,0-0.1,0l-0.5,0.1h-0.1c0-0.8,0.3-1.5,0.9-2l0.2-0.2
			L54.9,80.3z"/>
		<path class="st14" d="M55.8,80.7l0.1-0.1l0.1-0.1c0.4-0.3,0.8-0.5,1.2-0.7c0.5-0.2,0.9-0.3,1.4-0.4h0.1c0,0.1,0,0.2,0,0.3
			l-0.1,0.1c-0.7,0.1-1.3,0.3-1.9,0.7c-0.2,0.1-0.3,0.2-0.5,0.3c-0.4,0.3-0.7,0.7-0.8,1.2c0,0.1,0,0.2,0,0.3l-0.1,0.1
			c-0.2,0-0.4,0-0.6,0.1h-0.1C54.8,81.8,55.2,81.1,55.8,80.7z"/>
		<path class="st14" d="M53.9,80L53.9,80c1.2-0.8,2.5-1.4,3.8-1.7l0.7-0.1c0.1,0,0.1,0,0.1,0c0,0.1,0,0.1,0,0.2c0,0,0,0,0,0.1h-0.1
			c-0.8,0.2-1.6,0.4-2.4,0.8c-0.5,0.2-1.1,0.5-1.5,0.9c-0.1,0.1-0.3,0.2-0.4,0.3c-0.5,0.4-0.8,1-1,1.6c0,0.2-0.1,0.4-0.1,0.7
			l-0.1,0.1l-0.5,0.1h-0.1c0-0.9,0.4-1.7,1.1-2.4C53.5,80.3,53.7,80.1,53.9,80z"/>
		<path class="st14" d="M59.2,80.2l0.3-0.2c0.2-0.1,0.4-0.1,0.6,0c0.1,0.1,0.1,0.2,0,0.3c-0.1,0.1-0.2,0.1-0.3,0.2
			c-0.1,0.1-0.1,0.2-0.1,0.3l0.9,1.5c0,0.1,0.2,0.2,0.3,0.2c0.9,0,1.8,0,2.7,0.1c0.3,0,0.6-0.1,0.8-0.2c0.1,0,0.1-0.1,0.2-0.1
			c0.2-0.1,0.4-0.1,0.6,0c0.1,0,0.1,0.2,0.1,0.2c0,0,0,0.1-0.1,0.1l-0.1,0.1l-0.2,0.2l-0.2,0.1L64.5,83c-0.1,0-0.1,0.1-0.2,0.1
			l-3.2-0.1h-0.1L61,83v0.1c0.6,1,1.2,2.1,1.9,3.1c0,0,0,0.1,0,0.1l-0.2,0.2l-0.5,0.3C62,87,61.8,87,61.6,86.9
			c-0.2-0.1-0.2-0.2-0.1-0.3l0,0l0.1-0.1c0.1,0,0.1-0.1,0.2-0.2c0.1-0.1,0.1-0.2,0-0.3c-0.6-1-1.2-2-1.7-3c-0.1-0.1-0.2-0.2-0.4-0.2
			L57,82.8c-0.3,0-0.5,0.1-0.7,0.2l-0.1,0.1c-0.1,0.1-0.3,0.1-0.5,0.1c-0.2,0-0.3-0.2-0.2-0.3c0-0.1,0.1-0.1,0.2-0.2l0.5-0.4h0.2
			c1,0,2,0,3,0.1h0.1c0.1,0,0.1,0,0.2,0c0,0,0-0.1,0-0.1l-0.9-1.6c0,0,0-0.1,0-0.1l0.1-0.1l0.1-0.1L59.2,80.2z"/>
		<path class="st6" d="M230.4,75.9l30.5-17.7c0.5-0.3,0.9-0.7,1.2-1.2c0.9-1.6,0.4-3.7-1.3-4.6l-80.3-46c-4-2.3-9-2.3-13,0L137,24
			c-0.5,0.3-0.9,0.7-1.2,1.2c-0.9,1.6-0.4,3.7,1.2,4.6L217.4,76C221.4,78.3,226.4,78.3,230.4,75.9z"/>
		<circle class="st6" cx="139.9" cy="24.7" r="5.9"/>
		<circle class="st6" cx="258" cy="53.1" r="5.9"/>
		<path class="st7" d="M230.4,71.5l30.5-17.7c0.5-0.3,0.9-0.7,1.2-1.2c0.9-1.6,0.4-3.7-1.3-4.6l-80.3-46c-4-2.3-9-2.3-13,0L137,19.6
			c-0.5,0.3-0.9,0.7-1.2,1.2c-0.9,1.6-0.4,3.7,1.2,4.6l80.4,46.1C221.4,73.9,226.4,73.9,230.4,71.5z"/>
		<g>
			<defs>
				<path id="SVGID_45_" d="M230.3,70.9l30.1-17.5c1.6-0.9,2.1-3,1.2-4.6c-0.3-0.5-0.7-0.9-1.2-1.2L180.6,1.9c-4-2.3-8.9-2.3-12.9,0
					l-30.2,17.4c-0.5,0.3-0.9,0.7-1.2,1.2c-0.9,1.6-0.4,3.6,1.2,4.6l79.8,45.8C221.4,73.2,226.3,73.2,230.3,70.9z"/>
			</defs>
			<clipPath id="SVGID_46_">
				<use xlink:href="#SVGID_45_"  style="overflow:visible;"/>
			</clipPath>
			<g class="st23">
				
					<image style="overflow:visible;enable-background:new    ;" width="128" height="73" xlink:href="3406443F.png"  transform="matrix(1 0 0 1 134.91 0)">
				</image>
			</g>
		</g>
		<path class="st9" d="M255.7,59.2L255.7,59.2c0-0.5-0.4-0.7-0.6-0.5l0,0c-0.2,0.2-0.4,0.6-0.4,0.9l0,0c0,0.5,0.4,0.7,0.6,0.5l0,0
			C255.5,59.8,255.7,59.5,255.7,59.2z"/>
		<g>
			<defs>
				<path id="SVGID_47_" d="M254.6,59.6c0,0.2,0.1,0.4,0.3,0.5h0.1c0.2-0.2,0.4-0.6,0.4-0.9c0-0.2-0.1-0.4-0.3-0.5c0,0-0.1,0-0.1,0
					l0,0C254.8,58.9,254.6,59.3,254.6,59.6z"/>
			</defs>
			<clipPath id="SVGID_48_">
				<use xlink:href="#SVGID_47_"  style="overflow:visible;"/>
			</clipPath>
		</g>
		<path class="st9" d="M254,60.2L254,60.2c0-0.5-0.4-0.7-0.6-0.5l0,0c-0.2,0.2-0.4,0.6-0.4,0.9l0,0c0,0.5,0.4,0.7,0.6,0.5l0,0
			C253.9,60.8,254,60.5,254,60.2z"/>
		<g>
			<defs>
				<path id="SVGID_49_" d="M253,60.6c0,0.2,0.1,0.4,0.3,0.5c0,0,0,0,0.1,0c0.2-0.2,0.4-0.6,0.4-0.9c0-0.2-0.1-0.4-0.3-0.5h-0.1l0,0
					C253.1,59.9,253,60.2,253,60.6z"/>
			</defs>
			<clipPath id="SVGID_50_">
				<use xlink:href="#SVGID_49_"  style="overflow:visible;"/>
			</clipPath>
		</g>
		<path class="st9" d="M252.4,61.2L252.4,61.2c0-0.5-0.4-0.7-0.7-0.5l0,0c-0.2,0.2-0.4,0.6-0.4,0.9l0,0c0,0.5,0.4,0.7,0.6,0.5l0,0
			C252.3,61.8,252.4,61.5,252.4,61.2z"/>
		<g>
			<defs>
				<path id="SVGID_51_" d="M251.4,61.6c0,0.2,0.1,0.4,0.3,0.5c0,0,0.1,0,0.1,0c0.2-0.2,0.4-0.6,0.4-0.9c0-0.2-0.1-0.4-0.3-0.5h-0.1
					l0,0C251.5,60.9,251.4,61.3,251.4,61.6z"/>
			</defs>
			<clipPath id="SVGID_52_">
				<use xlink:href="#SVGID_51_"  style="overflow:visible;"/>
			</clipPath>
		</g>
		<path class="st9" d="M245.3,65.2c0,0.4,0.3,0.7,0.6,0.5l0,0l3-1.9l0,0l0,0c0.2-0.2,0.4-0.6,0.4-0.9c0-0.4-0.3-0.7-0.6-0.5l0,0
			l-3,1.9l0,0h-0.1C245.4,64.6,245.2,64.9,245.3,65.2z"/>
		<path class="st9" d="M245.3,65.2c0,0.4,0.3,0.7,0.6,0.5l0,0l3-1.9l0,0l0,0c0.2-0.2,0.4-0.6,0.4-0.9c0-0.4-0.3-0.7-0.6-0.5l0,0
			l-3,1.9l0,0h-0.1C245.4,64.6,245.2,64.9,245.3,65.2z"/>
		<g>
			<defs>
				<path id="SVGID_53_" d="M245.4,65.6c0,0,0.1,0,0.1-0.1l0,0l3-1.9l0,0h0.1c0.2-0.2,0.4-0.6,0.4-0.9c0-0.1,0-0.3-0.1-0.4h-0.1l0,0
					l-3,1.9l0,0h-0.1c-0.2,0.2-0.4,0.6-0.4,0.9C245.3,65.3,245.3,65.5,245.4,65.6z"/>
			</defs>
			<clipPath id="SVGID_54_">
				<use xlink:href="#SVGID_53_"  style="overflow:visible;"/>
			</clipPath>
		</g>
		<path class="st9" d="M240.5,68.1L240.5,68.1c0-0.4-0.4-0.7-0.6-0.5l0,0c-0.2,0.2-0.4,0.6-0.4,0.9l0,0c0,0.4,0.4,0.7,0.6,0.5l0,0
			C240.3,68.7,240.5,68.4,240.5,68.1z"/>
		<g>
			<defs>
				<path id="SVGID_55_" d="M239.4,68.5c0,0.2,0.1,0.4,0.3,0.5c0,0,0.1,0,0.1,0c0.2-0.2,0.4-0.6,0.4-0.9c0-0.2-0.1-0.4-0.3-0.5
					c0,0,0,0-0.1,0l0,0C239.6,67.8,239.4,68.1,239.4,68.5z"/>
			</defs>
			<clipPath id="SVGID_56_">
				<use xlink:href="#SVGID_55_"  style="overflow:visible;"/>
			</clipPath>
		</g>
		<path class="st9" d="M238.6,69.1L238.6,69.1c0-0.4-0.4-0.7-0.7-0.5l0,0c-0.2,0.2-0.4,0.6-0.4,0.9l0,0c0,0.4,0.4,0.7,0.6,0.5l0,0
			C238.5,69.8,238.7,69.4,238.6,69.1z"/>
		<g>
			<defs>
				<path id="SVGID_57_" d="M237.6,69.5c0,0.2,0.1,0.4,0.3,0.5c0,0,0.1,0,0.1,0c0.2-0.2,0.4-0.6,0.4-0.9c0-0.2-0.1-0.4-0.3-0.5H238
					l0,0C237.7,68.8,237.6,69.2,237.6,69.5z"/>
			</defs>
			<clipPath id="SVGID_58_">
				<use xlink:href="#SVGID_57_"  style="overflow:visible;"/>
			</clipPath>
		</g>
		<path class="st9" d="M236.8,70.1L236.8,70.1c0-0.4-0.4-0.7-0.6-0.5l0,0c-0.2,0.2-0.4,0.6-0.4,0.9l0,0c0,0.4,0.4,0.7,0.6,0.5l0,0
			C236.7,70.8,236.9,70.4,236.8,70.1z"/>
		<g>
			<defs>
				<path id="SVGID_59_" d="M235.8,70.5c0,0.2,0.1,0.4,0.3,0.5h0.1c0.2-0.2,0.4-0.6,0.4-0.9c0-0.2-0.1-0.4-0.3-0.5c0,0,0,0-0.1,0
					l0,0C235.9,69.9,235.8,70.2,235.8,70.5z"/>
			</defs>
			<clipPath id="SVGID_60_">
				<use xlink:href="#SVGID_59_"  style="overflow:visible;"/>
			</clipPath>
		</g>
		<path class="st9" d="M235.2,71.1L235.2,71.1c0-0.4-0.4-0.7-0.7-0.5l0,0c-0.2,0.2-0.4,0.6-0.4,0.9l0,0c0,0.4,0.4,0.7,0.6,0.5l0,0
			C235.1,71.8,235.2,71.4,235.2,71.1z"/>
		<g>
			<defs>
				<path id="SVGID_61_" d="M234.2,71.5c0,0.2,0.1,0.4,0.3,0.5c0,0,0.1,0,0.1,0c0.2-0.2,0.4-0.6,0.4-0.9c0-0.2-0.1-0.4-0.3-0.5h-0.1
					l0,0C234.3,70.8,234.2,71.2,234.2,71.5z"/>
			</defs>
			<clipPath id="SVGID_62_">
				<use xlink:href="#SVGID_61_"  style="overflow:visible;"/>
			</clipPath>
		</g>
		<path class="st9" d="M233.6,72.1L233.6,72.1c0-0.4-0.4-0.7-0.6-0.5l0,0c-0.2,0.2-0.4,0.6-0.4,0.9l0,0c0,0.4,0.4,0.7,0.6,0.5l0,0
			C233.5,72.8,233.6,72.4,233.6,72.1z"/>
		<g>
			<defs>
				<path id="SVGID_63_" d="M232.6,72.5c0,0.2,0.1,0.4,0.3,0.5c0,0,0,0,0.1,0c0.2-0.2,0.4-0.6,0.4-0.9c0-0.2-0.1-0.4-0.3-0.5
					c0,0-0.1,0-0.1,0l0,0C232.7,71.9,232.6,72.2,232.6,72.5z"/>
			</defs>
			<clipPath id="SVGID_64_">
				<use xlink:href="#SVGID_63_"  style="overflow:visible;"/>
			</clipPath>
		</g>
		<polygon class="st10" points="211.8,68.4 213.1,69.1 213.1,73.5 211.8,72.8 		"/>
		<polygon class="st10" points="141.9,28.2 143.2,29 143.2,33.4 141.9,32.6 		"/>
		<ellipse class="st11" cx="239" cy="57.4" rx="6.3" ry="2.9"/>
		<g>
			<defs>
				<ellipse id="SVGID_65_" cx="239" cy="57.4" rx="5.7" ry="2.6"/>
			</defs>
			<clipPath id="SVGID_66_">
				<use xlink:href="#SVGID_65_"  style="overflow:visible;"/>
			</clipPath>
			<g class="st24">
				
					<image style="overflow:visible;enable-background:new    ;" width="12" height="6" xlink:href="3406443D.png"  transform="matrix(1 0 0 1 232.91 54)">
				</image>
			</g>
		</g>
		<path class="st13" d="M157.1,14.8l5.9-3.4c0.1,0,0.1-0.1,0.1-0.1c0.1-0.2,0-0.4-0.1-0.5c0,0,0,0,0,0l0,0c-0.4-0.2-1-0.2-1.4,0
			l-5.9,3.4c-0.1,0-0.1,0.1-0.1,0.1c-0.1,0.2,0,0.4,0.1,0.5c0,0,0,0,0,0l0,0C156.1,15,156.7,15,157.1,14.8z"/>
		<path class="st14" d="M211.9,65.3l-67-37.9c0,0,0,0-0.1,0c0-0.1,0-0.1,0-0.2l37.1-21.7c0.2-0.1,0.5-0.1,0.8,0l61.8,35
			c0,0,5.3,2.9,5.3,2.9c0,0.1,0,0.1,0,0.2c0,0,0,0,0,0l-37.1,21.7C212.4,65.5,212.1,65.5,211.9,65.3z"/>
		<path class="st14" d="M249.2,43.4L182.5,6.3c0,0-0.1,0-0.1,0c-0.1,0-0.2,0-0.3,0l-34.4,20.9c-0.2,0.1-0.2,0.3,0.1,0.5l64.9,36.7
			c0,0,0.5,0.7,0.5,0.7c0.3-0.1,0.7-0.3,0.9-0.6l35.2-20.7C249.5,43.7,249.5,43.5,249.2,43.4z"/>
		<path class="st15" d="M214.7,38L214.7,38C214.7,38,214.7,38.1,214.7,38z"/>
		<g id="Fill-6-2-5">
			<path class="st14" d="M231.2,44.9c-0.1,0.1,0,0.2,0.1,0.2l0.8,0.3c0.1,0.1,0.2,0.1,0.4,0c1.2-1.2,0.5-2.9-1.5-3.8
				c-0.1-0.1-0.2-0.1-0.4,0l-0.4,0.4c-0.1,0.1,0,0.2,0.1,0.2c0.2,0.1,0.5,0.3,0.7,0.4c0.1,0.1,0.2,0.1,0.3,0.1h0.8
				c0.4,0.4,0.6,0.9,0.6,1.5l-0.8,0.1c-0.1,0-0.2,0.1-0.2,0.1C231.4,44.7,231.3,44.9,231.2,44.9"/>
			<path class="st14" d="M232,45.6l-0.8-0.3c-0.1,0-0.1-0.1-0.2-0.2c0-0.1,0-0.1,0.1-0.2l0,0c0.1-0.1,0.2-0.3,0.3-0.5
				c0-0.1,0.1-0.1,0.3-0.2l0.7,0c0-0.5-0.2-0.9-0.5-1.3h-0.7c-0.1,0-0.2,0-0.3-0.1c-0.2-0.2-0.4-0.3-0.7-0.4c-0.1,0-0.1-0.1-0.2-0.2
				c0-0.1,0-0.1,0.1-0.2l0.4-0.4c0.1-0.1,0.3-0.1,0.5,0c1,0.4,1.8,1.2,2.1,2.3c0.1,0.6-0.1,1.3-0.6,1.7c-0.1,0.1-0.2,0.1-0.3,0.1
				C232.1,45.6,232,45.6,232,45.6z M230.6,41.8l-0.5,0.4c0,0,0,0,0.1,0.1c0.3,0.1,0.5,0.3,0.7,0.4c0.1,0,0.1,0.1,0.2,0l0.8-0.1l0,0
				c0.4,0.4,0.6,1,0.6,1.5v0.1l-0.8,0.1h-0.1l0,0c-0.1,0.2-0.2,0.4-0.4,0.5l-0.1-0.1l0.1,0.1c0,0,0,0,0.1,0.1l0.8,0.3
				c0.1,0,0.2,0,0.2,0c0.4-0.4,0.6-1,0.6-1.5c-0.3-1-1-1.8-2-2.1c0,0-0.1,0-0.1,0C230.7,41.7,230.6,41.8,230.6,41.8L230.6,41.8z"/>
		</g>
		<path class="st14" d="M215,53.4l0.2,0.1c0.2,0.1,0.5,0.1,0.7,0h0.1l0.6-0.6c0.1-0.1,0.1-0.3-0.1-0.4l-0.2-0.1
			c-0.1,0-0.1-0.1,0-0.1c0.5-0.5,1.1-0.9,1.7-1l0,0c0.1,0,0.1,0,0.2,0l0.2,0.1c0,0,0.1,0,0.1,0c0.2,0.1,0.4,0.1,0.6,0l1-0.3h0.1
			c0.2-0.1,0.2-0.3,0-0.4l-0.2-0.1l-0.2-0.1c-0.6-0.2-1.2-0.2-1.9-0.1c-1.3,0.2-2.5,0.9-3.4,1.9C214.2,52.7,214.4,53.1,215,53.4z"/>
		<ellipse class="st16" cx="191.5" cy="32" rx="15" ry="6.7"/>
		<ellipse class="st5" cx="191.5" cy="30.9" rx="15" ry="6.7"/>
		<path class="st15" d="M203.2,44.6L203.2,44.6L203.2,44.6z"/>
		<path class="st17" d="M169.6,25.9c-0.3,0-0.6,0-0.8,0c-0.3,0-0.5-0.1-0.8-0.3c-0.2-0.1-0.3-0.2-0.4-0.4c-0.1-0.1-0.1-0.3,0-0.5
			c0.1-0.2,0.3-0.4,0.5-0.5c0.2-0.1,0.4-0.2,0.6-0.2c0.2-0.1,0.4-0.1,0.6-0.1l0.1,0.3c-0.2,0-0.3,0.1-0.5,0.1
			c-0.1,0-0.3,0.1-0.4,0.2c-0.3,0.1-0.4,0.3-0.4,0.5s0.1,0.3,0.4,0.5c0.2,0.1,0.5,0.2,0.8,0.2c0.3,0,0.5-0.1,0.8-0.2
			c0.1-0.1,0.2-0.1,0.3-0.2c0.1-0.1,0.1-0.2,0.2-0.3l0.4,0.1c0,0.1-0.1,0.2-0.2,0.3c-0.1,0.1-0.3,0.2-0.4,0.3
			C170.1,25.7,169.8,25.8,169.6,25.9z"/>
		<path class="st17" d="M171.4,23.3c0.2,0,0.5,0.1,0.7,0.2L173,24l-0.4,0.3l-0.2-0.1c0,0.1,0,0.2,0,0.2c-0.1,0.1-0.1,0.2-0.2,0.2
			c-0.1,0.1-0.3,0.1-0.4,0.1c-0.1,0-0.3,0-0.4,0c-0.1,0-0.2,0-0.3-0.1c-0.1-0.1-0.2-0.1-0.2-0.2c0-0.1,0.1-0.2,0.2-0.2
			c0.2-0.1,0.4-0.3,0.6-0.4l0.1,0h-0.1c-0.1-0.1-0.2-0.1-0.3-0.1c-0.1,0-0.2,0.1-0.3,0.1c-0.1,0.1-0.2,0.1-0.3,0.2
			c-0.1,0.1-0.1,0.2-0.2,0.3l-0.4-0.1c0.1-0.1,0.1-0.2,0.2-0.3c0.1-0.1,0.2-0.2,0.3-0.3C170.9,23.4,171.2,23.3,171.4,23.3z
			 M172.1,24.1c0-0.1-0.1-0.2-0.2-0.2h-0.1h-0.1c-0.1,0.1-0.2,0.1-0.4,0.2c-0.1,0-0.1,0.1-0.1,0.1c0,0,0,0.1,0.1,0.1
			c0.1,0,0.2,0.1,0.3,0c0.1,0,0.2,0,0.3-0.1C172,24.3,172.1,24.2,172.1,24.1L172.1,24.1z"/>
		<path class="st17" d="M173.5,23.7l-2.2-1.3l0.4-0.3l2.2,1.3L173.5,23.7z"/>
		<path class="st17" d="M174.4,23.2l-2.2-1.3l0.4-0.3l2.2,1.3L174.4,23.2z"/>
		<path class="st17" d="M175.3,20.9l0.5-0.3l0.3,0.2l-0.5,0.3l1.2,0.7l-0.4,0.3l-1.2-0.7l-0.3,0.2l-0.3-0.2l0.3-0.2
			c-0.2-0.1-0.3-0.3-0.3-0.4c0.1-0.2,0.2-0.4,0.4-0.5l0.2-0.1l0.3,0.1l-0.2,0.1c-0.1,0-0.2,0.1-0.2,0.2
			C175.1,20.7,175.1,20.8,175.3,20.9L175.3,20.9z"/>
		<path class="st17" d="M177.5,19.9l-0.2,0.2c-0.3,0.2-0.3,0.4,0,0.5l0.8,0.5l-0.4,0.3l-1.6-0.9l0.4-0.3l0.3,0.1
			c-0.1-0.1,0-0.3,0.3-0.5l0.1-0.1L177.5,19.9z"/>
		<path class="st17" d="M179.1,20.3c-0.2,0-0.4,0-0.6,0c-0.2,0-0.4,0-0.6-0.1c-0.1-0.1-0.2-0.2-0.3-0.3c-0.1-0.1-0.1-0.2,0-0.4
			c0.1-0.1,0.2-0.3,0.4-0.3c0.4-0.2,0.8-0.3,1.2-0.3c0.2,0,0.4,0.1,0.5,0.2c0.1,0.1,0.2,0.2,0.3,0.3c0.1,0.1,0.1,0.2,0,0.3
			c-0.1,0.1-0.2,0.3-0.4,0.3C179.5,20.2,179.3,20.3,179.1,20.3z M179.6,19.6c0-0.1-0.1-0.2-0.3-0.3c-0.2-0.1-0.3-0.1-0.5-0.1
			c-0.2,0-0.3,0-0.4,0.1c-0.2,0.1-0.2,0.2-0.2,0.3c0,0.1,0.1,0.2,0.3,0.3c0.1,0.1,0.3,0.1,0.5,0.1c0.2,0,0.3,0,0.4-0.1
			C179.6,19.8,179.6,19.7,179.6,19.6z"/>
		<path class="st17" d="M182.1,17c0.2,0,0.4,0.1,0.6,0.2l0.9,0.5l-0.4,0.3l-0.9-0.5c-0.1-0.1-0.2-0.1-0.3-0.1c-0.1,0-0.2,0-0.3,0.1
			c-0.1,0-0.2,0.1-0.2,0.2c0,0.1,0.1,0.2,0.2,0.2l0.9,0.5l-0.4,0.3l-0.9-0.5c-0.1-0.1-0.2-0.1-0.3-0.1c-0.1,0-0.2,0-0.3,0.1
			c-0.1,0.1-0.2,0.1-0.2,0.2s0.1,0.2,0.2,0.2l0.9,0.5l-0.4,0.3l-1.5-0.9l0.4-0.3l0.2,0.1c0-0.1,0-0.2,0-0.2c0.1-0.1,0.2-0.2,0.3-0.2
			c0.2-0.2,0.5-0.2,0.8-0.1c0-0.1,0-0.2,0-0.3c0.1-0.1,0.2-0.2,0.3-0.3C181.6,17.1,181.8,17,182.1,17z"/>
		<path class="st17" d="M196.6,47.5l0.3,0.2l-0.7,0.4l0.6,0.4l-0.3,0.2l-0.6-0.4l-0.7,0.4l-0.3-0.2l0.7-0.4l-0.6-0.4l0.3-0.2
			l0.6,0.4L196.6,47.5z"/>
		<path class="st17" d="M197.6,45.9c0.4,0,0.8,0.1,1.1,0.3c0.2,0.1,0.4,0.2,0.5,0.4c0.1,0.1,0.1,0.3,0.1,0.4
			c-0.1,0.2-0.2,0.3-0.4,0.4c-0.2,0.1-0.3,0.2-0.5,0.2c-0.2,0.1-0.4,0.1-0.6,0.1l-0.1-0.3c0.3,0,0.6-0.1,0.9-0.3
			c0.2-0.1,0.3-0.2,0.2-0.4c-0.1-0.2-0.2-0.4-0.4-0.4c0,0.1,0,0.2,0,0.3c-0.1,0.1-0.2,0.2-0.3,0.3c-0.2,0.1-0.3,0.2-0.5,0.2
			c-0.2,0-0.3,0-0.5,0c-0.2,0-0.3-0.1-0.5-0.2c-0.1-0.1-0.2-0.2-0.3-0.3c-0.1-0.1-0.1-0.2,0-0.3c0.1-0.1,0.2-0.2,0.3-0.3
			C196.9,45.9,197.2,45.8,197.6,45.9z M197.9,46.5c0-0.1,0-0.2-0.2-0.2c-0.1-0.1-0.3-0.1-0.4-0.1c-0.2,0-0.3,0.1-0.4,0.1
			c-0.1,0-0.2,0.1-0.2,0.3c0,0.1,0,0.2,0.2,0.2c0.1,0.1,0.3,0.1,0.4,0.1c0.2,0,0.3,0,0.4-0.1C197.8,46.7,197.9,46.6,197.9,46.5z"/>
		<path class="st17" d="M201.1,45.7l0.6-0.3l0.3,0.2l-1.6,0.9l-0.3-0.2l0.6-0.3l-1.4-0.8l-0.2,0.4l-0.5-0.1l0.4-0.7l0.3-0.2
			L201.1,45.7z"/>
		<path class="st17" d="M204.2,43.9l0.6-0.3l0.3,0.2l-1.6,0.9l-0.3-0.2l0.6-0.3l-1.4-0.8l-0.2,0.4l-0.5-0.1L202,43l0.3-0.2
			L204.2,43.9z"/>
		<path class="st17" d="M206.9,42.3l0.3,0.2l-1.7,1l-0.3-0.2l0.1-1c0-0.1,0-0.2,0-0.3c0-0.1-0.1-0.1-0.2-0.2
			c-0.1-0.1-0.2-0.1-0.3-0.1c-0.1,0-0.3,0.1-0.4,0.1c-0.2,0.1-0.4,0.3-0.4,0.5l-0.4-0.1c0-0.1,0.1-0.2,0.2-0.3
			c0.1-0.1,0.3-0.2,0.4-0.3c0.2-0.1,0.5-0.2,0.8-0.3c0.2,0,0.5,0,0.7,0.1c0.1,0.1,0.2,0.2,0.3,0.3c0.1,0.1,0.1,0.3,0.1,0.4v0.7
			L206.9,42.3z"/>
		<path class="st17" d="M208.3,40.8c0.2,0,0.3,0,0.5,0.1c0.2,0.1,0.3,0.2,0.2,0.4c-0.1,0.2-0.3,0.4-0.5,0.5
			c-0.2,0.1-0.4,0.2-0.6,0.3c-0.2,0.1-0.4,0.1-0.6,0.1l-0.1-0.3c0.3,0,0.7-0.1,0.9-0.3c0.1-0.1,0.2-0.1,0.3-0.3c0-0.1,0-0.2-0.1-0.2
			c-0.1-0.1-0.2-0.1-0.4-0.1c-0.2,0-0.3,0.1-0.4,0.2l-0.3,0.2l-0.3-0.2l0.3-0.2c0.3-0.2,0.4-0.3,0.2-0.5c-0.1-0.1-0.2-0.1-0.3-0.1
			c-0.1,0-0.3,0.1-0.4,0.1c-0.1,0.1-0.2,0.1-0.3,0.2c-0.1,0.1-0.1,0.2-0.2,0.3l-0.4-0.1c0-0.1,0.1-0.2,0.2-0.3
			c0.1-0.1,0.3-0.2,0.4-0.3c0.2-0.2,0.5-0.2,0.8-0.3c0.2,0,0.4,0,0.6,0.1c0.1,0,0.2,0.1,0.2,0.3c0,0.1,0,0.2-0.1,0.3
			C207.9,40.8,208.1,40.7,208.3,40.8z"/>
		<path class="st17" d="M210.9,39.5l0.3,0.2l-0.4,0.2l0.4,0.3l-0.4,0.3l-0.4-0.2l-1.1,0.6l-0.3-0.2l-0.3-1.5l0.4-0.2l1.5,0.8
			L210.9,39.5z M209.4,40.3l0.7-0.4l-0.8-0.5L209.4,40.3z"/>
		<path class="st17" d="M212,38.1c0.2,0,0.4,0,0.5,0c0.2,0,0.3,0.1,0.5,0.2c0.1,0.1,0.2,0.2,0.3,0.3c0,0.1,0,0.2-0.1,0.3
			c-0.1,0.1-0.2,0.3-0.4,0.3c-0.3,0.2-0.7,0.3-1.1,0.4l-0.1-0.3c0.3,0,0.6-0.1,0.9-0.3c0.1,0,0.2-0.1,0.3-0.3c0-0.1,0-0.2-0.2-0.2
			c-0.1-0.1-0.3-0.1-0.4-0.1c-0.2,0-0.3,0.1-0.4,0.1c-0.1,0-0.2,0.1-0.2,0.2c-0.1,0.1-0.1,0.1-0.1,0.2l-0.3,0.2l-1.3-0.7l1.6-0.9
			l0.3,0.2l-1.1,0.7l0.6,0.3c0.1-0.1,0.2-0.3,0.3-0.3C211.6,38.2,211.8,38.2,212,38.1z"/>
		<path class="st17" d="M214.2,36.8c0.2,0,0.3,0,0.5,0c0.2,0,0.3,0.1,0.5,0.2c0.1,0.1,0.2,0.2,0.3,0.3c0.1,0.1,0.1,0.2,0,0.3
			c-0.1,0.1-0.2,0.2-0.3,0.3c-0.3,0.2-0.6,0.3-1,0.3c-0.4,0-0.7-0.1-1.1-0.3c-0.2-0.1-0.4-0.2-0.5-0.4c-0.1-0.1-0.1-0.3-0.1-0.4
			c0.1-0.2,0.2-0.3,0.4-0.4c0.2-0.1,0.3-0.2,0.5-0.2c0.2-0.1,0.4-0.1,0.6-0.1l0.1,0.3c-0.3,0-0.6,0.1-0.9,0.3
			c-0.2,0.1-0.3,0.2-0.2,0.4c0.1,0.2,0.2,0.3,0.4,0.4c0-0.1,0-0.2,0-0.3c0.1-0.1,0.2-0.2,0.3-0.3C213.9,36.9,214,36.9,214.2,36.8z
			 M214.9,37.5c0-0.1-0.1-0.2-0.2-0.2c-0.1-0.1-0.3-0.1-0.4-0.1c-0.1,0-0.3,0-0.4,0.1c-0.1,0-0.2,0.1-0.2,0.3c0,0.1,0,0.2,0.2,0.2
			c0.1,0.1,0.3,0.1,0.4,0.1c0.2,0,0.3-0.1,0.4-0.1C214.8,37.7,214.9,37.6,214.9,37.5L214.9,37.5z"/>
		<path class="st17" d="M214,35.9l1.8-1l0.3,0.2l0.8,1.8l-0.5,0.3l-0.7-1.8l-1.3,0.8L214,35.9z"/>
		<path class="st17" d="M219.2,34.4c0.2,0,0.3,0.1,0.5,0.1c0.2,0.1,0.3,0.3,0.2,0.4c-0.1,0.2-0.3,0.4-0.5,0.5
			c-0.3,0.2-0.6,0.3-0.9,0.3c-0.2,0-0.5,0-0.7-0.1c-0.1,0-0.2-0.1-0.2-0.3c0-0.1,0.1-0.2,0.1-0.3c-0.2,0-0.3,0.1-0.5,0.1
			c-0.1,0-0.3,0-0.4-0.1c-0.2-0.1-0.3-0.2-0.2-0.4c0.1-0.2,0.3-0.4,0.5-0.5c0.2-0.2,0.5-0.2,0.8-0.3c0.2,0,0.5,0,0.7,0.1
			c0.1,0,0.2,0.1,0.2,0.2c0,0.1,0,0.2-0.1,0.3C218.8,34.4,219,34.4,219.2,34.4z M219.2,34.7c-0.3-0.1-0.6-0.1-0.9,0.1
			c-0.4,0.2-0.4,0.4-0.2,0.5c0.3,0.1,0.6,0.1,0.9-0.2C219.3,35,219.4,34.8,219.2,34.7L219.2,34.7z M217.2,34.7
			c0.1,0.1,0.2,0.1,0.4,0.1c0.1,0,0.3-0.1,0.4-0.2c0.1-0.1,0.2-0.1,0.3-0.2c0-0.1,0-0.2-0.1-0.2c-0.3-0.1-0.5-0.1-0.8,0.1
			C217,34.5,217,34.6,217.2,34.7L217.2,34.7z"/>
		<path class="st18" d="M207.3,55.7c1.9,2.1,5.9,3.3,9.1,2.6s4.3-2.9,2.4-5s-5.9-3.3-9.1-2.6S205.4,53.6,207.3,55.7z"/>
		<path class="st19" d="M223.1,45.8c1.9,2.1,6,3.3,9.1,2.6s4.3-2.9,2.4-5s-5.9-3.3-9.1-2.6S221.3,43.7,223.1,45.8z"/>
		<path id="Fill-6-2-6" class="st20" d="M215.5,54.4c-0.3,0.1-0.6,0.2-0.9,0.3c-0.1,0-0.2,0.1-0.2,0.1l-0.1,0.5
			c-0.9,0.1-1.8,0-2.7-0.2l0.1-0.5c0-0.1,0-0.1-0.1-0.2c-0.3-0.1-0.5-0.2-0.8-0.4c-0.1-0.1-0.3-0.1-0.4,0l-0.8,0.3
			c-0.1,0.1-0.2,0.2-0.1,0.2c1.7,1.2,4.8,1.4,7.1,0.5c0.1,0,0.2-0.2,0.1-0.2l-0.6-0.5C215.8,54.4,215.7,54.4,215.5,54.4"/>
		<path class="st14" d="M230,42.9c-1.4,0.4-2.7,1.2-3.7,2.4c-0.3,0.4-0.3,0.9,0.1,1.2c0,0,0,0,0,0c0.1,0,0.1,0.1,0.2,0.1l0.1,0.1
			c0.2,0.1,0.5,0.1,0.7,0l0.1-0.1l0.7-0.7c0.1-0.1,0.1-0.3,0.1-0.4l-0.1-0.1l-0.2-0.1c0,0,0-0.1,0-0.1l0,0c0.5-0.6,1.2-1,1.9-1.2
			c0.1,0,0.1,0,0.2,0l0.2,0.1c0.2,0.1,0.5,0.1,0.7,0l1-0.4c0,0,0.1,0,0.1,0c0.2-0.1,0.2-0.3,0-0.5l-0.1-0.1
			C231.4,42.8,230.7,42.7,230,42.9z"/>
		<path class="st14" d="M186.7,29c1.1-0.7,2.3-1.2,3.6-1.4h0.1c0,0.1,0,0.2,0,0.3l-0.1,0.1c-1,0.2-1.9,0.5-2.7,1l-0.4,0.3
			c-0.7,0.4-1.1,1.2-1.2,2c0,0,0,0,0,0.1h-0.1c-0.2,0-0.3,0-0.5,0.1h-0.1c0-0.8,0.3-1.5,0.9-2c0.1-0.1,0.1-0.1,0.2-0.2
			C186.5,29.1,186.6,29.1,186.7,29z"/>
		<path class="st14" d="M187.6,29.5l0.1-0.1l0.1-0.1c0.4-0.3,0.8-0.5,1.2-0.7c0.5-0.2,0.9-0.3,1.4-0.4h0.1c0,0.1,0,0.2,0,0.3
			l-0.1,0.1c-0.7,0.1-1.3,0.3-1.9,0.7c-0.2,0.1-0.3,0.2-0.4,0.3c-0.4,0.3-0.7,0.7-0.9,1.2c0,0.1,0,0.2,0,0.3l-0.1,0l-0.6,0.1h-0.1
			C186.7,30.6,187,29.9,187.6,29.5z"/>
		<path class="st14" d="M185.7,28.7L185.7,28.7c1.2-0.9,2.5-1.4,3.8-1.7c0.2,0,0.5-0.1,0.7-0.1s0.1,0,0.1,0c0,0.1,0,0.2,0,0.2
			c0,0,0,0,0,0h-0.1c-0.8,0.1-1.6,0.4-2.4,0.7c-0.5,0.2-1.1,0.5-1.5,0.9c-0.1,0.1-0.3,0.2-0.4,0.3c-0.7,0.6-1.1,1.4-1.1,2.3
			l-0.1,0.1l-0.5,0.1h-0.1c0-0.9,0.4-1.7,1.1-2.3C185.3,29,185.5,28.9,185.7,28.7z"/>
		<path class="st14" d="M191,28.9l0.3-0.2c0.2-0.1,0.4-0.1,0.6,0c0.1,0.1,0.1,0.2,0,0.3s-0.2,0.1-0.3,0.2c-0.1,0.1-0.1,0.2-0.1,0.3
			l0.9,1.5c0.1,0.1,0.2,0.2,0.3,0.1l2.7,0.1c0.3,0,0.6-0.1,0.8-0.2c0,0,0.1-0.1,0.2-0.1c0.2-0.1,0.4-0.1,0.6,0
			c0.1,0,0.1,0.1,0.1,0.2c0,0-0.1,0.1-0.1,0.1l-0.1,0.1l-0.2,0.2l-0.2,0.1l-0.1,0.1c-0.1,0-0.1,0-0.2,0l-3.2-0.1h-0.1l-0.1,0.1v0.1
			c0.6,1,1.2,2.1,1.9,3.1c0,0.1,0,0.1-0.1,0.2l-0.2,0.2l-0.4,0.3c-0.2,0.1-0.4,0.2-0.6,0.1c-0.2-0.1-0.2-0.2-0.1-0.3l0,0l0.1-0.1
			c0.1,0,0.1-0.1,0.1-0.2c0.1-0.1,0.1-0.2,0-0.3l-1.7-3c-0.1-0.1-0.2-0.2-0.4-0.2l-2.7-0.1c-0.3,0-0.5,0.1-0.7,0.2l-0.1,0.1
			c-0.1,0.1-0.3,0.1-0.5,0.1c-0.2,0-0.3-0.2-0.2-0.3c0-0.1,0.1-0.1,0.2-0.2l0.5-0.4h0.1c1,0,2,0,3,0.1h0.1c0.1,0,0.1,0,0.2,0
			c0,0,0-0.1,0-0.1l-0.9-1.6c0,0,0-0.1,0-0.1l0.1-0.1l0.1-0.1L191,28.9z"/>
	</g>
</g>
</svg>
